<svg width="16" height="16" viewBox="0 0 16 16" fill="none" xmlns="http://www.w3.org/2000/svg">
<g clip-path="url(#clip0_101_3897)">
<path d="M13.6825 14.648V3.31775C13.9868 3.24816 14.2148 2.97575 14.2148 2.65059C14.2148 2.27297 13.9076 1.96572 13.53 1.96572H10.7565V1.96222C10.7565 1.60003 10.4618 1.30537 10.0997 1.30537H9.53753C9.4165 0.566031 8.77309 0 8.00003 0C7.22697 0 6.58359 0.566031 6.4625 1.30544H5.90034C5.53815 1.30544 5.2435 1.60009 5.2435 1.96228V1.96578H2.47015C2.09253 1.96575 1.78528 2.27297 1.78528 2.65062C1.78528 2.97575 2.01325 3.24816 2.31759 3.31778V14.648C2.01325 14.7176 1.78528 14.99 1.78528 15.3152C1.78528 15.6928 2.0925 16 2.47015 16H13.53C13.9076 16 14.2148 15.6928 14.2148 15.3152C14.2148 14.99 13.9868 14.7176 13.6825 14.648ZM10.7565 2.471H13.53C13.629 2.471 13.7095 2.55156 13.7095 2.65059C13.7095 2.74962 13.629 2.83019 13.53 2.83019H13.4298H10.7565V2.471ZM5.74878 3.08288V2.21837V1.96228C5.74878 1.87872 5.81678 1.81069 5.90037 1.81069H6.69468C6.83422 1.81069 6.94731 1.69759 6.94731 1.55806C6.94734 0.977563 7.41959 0.50525 8.00003 0.50525C8.58047 0.50525 9.05272 0.977531 9.05275 1.55806C9.05275 1.69763 9.16587 1.81069 9.30537 1.81069H10.0997C10.1832 1.81069 10.2512 1.87869 10.2512 1.96228V2.21841V3.08288V3.23966C10.2512 3.32322 10.1832 3.39125 10.0997 3.39125H5.90037C5.81681 3.39125 5.74878 3.32325 5.74878 3.23966V3.08288ZM2.29056 2.65062C2.29056 2.55159 2.37112 2.47103 2.47015 2.47103H5.2435V2.83025H2.57025H2.47018C2.37112 2.83022 2.29056 2.74966 2.29056 2.65062ZM13.53 15.4948H2.47015C2.37112 15.4948 2.29056 15.4142 2.29056 15.3152C2.29056 15.2161 2.37112 15.1356 2.47015 15.1356H11.1898C11.3293 15.1356 11.4424 15.0225 11.4424 14.8829C11.4424 14.7434 11.3293 14.6303 11.1898 14.6303H2.82287V3.33547H5.2505C5.2515 3.34238 5.25322 3.349 5.25443 3.35584C5.25603 3.36462 5.25759 3.37341 5.25953 3.38206C5.26218 3.39403 5.26534 3.40578 5.26865 3.4175C5.27097 3.42572 5.27315 3.434 5.27581 3.44209C5.27972 3.45413 5.28422 3.46581 5.28881 3.47753C5.29172 3.48491 5.29434 3.49241 5.29747 3.49969C5.303 3.51247 5.30925 3.52484 5.31556 3.53722C5.3185 3.54297 5.32109 3.54891 5.32418 3.55456C5.33393 3.57231 5.3444 3.58962 5.35568 3.60634C5.35697 3.60822 5.35843 3.60994 5.35972 3.61184C5.3699 3.62659 5.38053 3.64097 5.39184 3.65478C5.39628 3.66025 5.40118 3.66528 5.40578 3.67056C5.4144 3.68047 5.42306 3.69031 5.43222 3.69966C5.43787 3.70541 5.4439 3.71081 5.44981 3.71638C5.45856 3.72466 5.46737 3.73291 5.47656 3.74069C5.48309 3.74622 5.48984 3.75141 5.49656 3.75666C5.50575 3.76384 5.515 3.77091 5.52456 3.77759C5.53172 3.78263 5.53906 3.78737 5.54637 3.79209C5.55612 3.79834 5.56593 3.80438 5.57603 3.81013C5.58368 3.8145 5.5914 3.81872 5.59925 3.82275C5.60956 3.82809 5.62006 3.83313 5.63068 3.83791C5.63872 3.84153 5.64672 3.84512 5.6549 3.84844C5.6659 3.85291 5.67712 3.85684 5.68847 3.86072C5.69665 3.8635 5.70478 3.86641 5.71309 3.86891C5.72509 3.87247 5.73731 3.87541 5.74956 3.87831C5.75753 3.88019 5.76543 3.88231 5.77353 3.88394C5.78728 3.88663 5.80125 3.8885 5.81528 3.89034C5.82222 3.89125 5.82906 3.89253 5.83606 3.89325C5.85722 3.89531 5.87859 3.89653 5.90031 3.89653H10.0996C10.1213 3.89653 10.1427 3.89534 10.1639 3.89325C10.1709 3.89256 10.1777 3.89125 10.1846 3.89037C10.1986 3.88856 10.2127 3.88666 10.2264 3.88397C10.2345 3.88238 10.2424 3.88025 10.2503 3.87838C10.2626 3.87547 10.2749 3.8725 10.2869 3.86894C10.2952 3.86647 10.3033 3.86359 10.3114 3.86081C10.3228 3.85694 10.3341 3.85294 10.3452 3.84844C10.3533 3.84512 10.3612 3.84159 10.3692 3.838C10.3799 3.83316 10.3905 3.82812 10.4009 3.82275C10.4087 3.81872 10.4163 3.81456 10.4239 3.81022C10.434 3.80444 10.4439 3.79838 10.4537 3.79206C10.461 3.78737 10.4683 3.78266 10.4753 3.77772C10.485 3.77094 10.4943 3.76381 10.5036 3.75656C10.5102 3.75134 10.5169 3.74625 10.5234 3.74081C10.5327 3.73294 10.5416 3.72462 10.5505 3.71622C10.5562 3.71075 10.5622 3.70547 10.5677 3.69978C10.577 3.69031 10.5858 3.68031 10.5946 3.67031C10.5991 3.66512 10.6038 3.66022 10.6082 3.65488C10.6197 3.64088 10.6305 3.62628 10.6408 3.61134C10.6419 3.60966 10.6433 3.60812 10.6444 3.60644C10.6557 3.58969 10.6662 3.57238 10.6759 3.55463C10.679 3.549 10.6816 3.54309 10.6845 3.53737C10.6908 3.52497 10.6971 3.51259 10.7027 3.49978C10.7058 3.49253 10.7084 3.48503 10.7113 3.47766C10.7159 3.46594 10.7204 3.45425 10.7243 3.44222C10.7269 3.43409 10.7291 3.42584 10.7315 3.41759C10.7348 3.40587 10.7379 3.39416 10.7406 3.38219C10.7425 3.37353 10.7441 3.36478 10.7457 3.35597C10.7469 3.34912 10.7486 3.3425 10.7496 3.33559H13.1773V14.6303H12.0432C11.9036 14.6303 11.7906 14.7434 11.7906 14.883C11.7906 15.0225 11.9036 15.1356 12.0432 15.1356H13.53C13.629 15.1356 13.7096 15.2162 13.7096 15.3152C13.7096 15.4142 13.629 15.4948 13.53 15.4948Z" fill="#A30401"/>
<path d="M8.00009 2.23455C8.37621 2.23455 8.68218 1.92855 8.68218 1.55246C8.68218 1.17636 8.37621 0.870361 8.00009 0.870361C7.62396 0.870361 7.31799 1.17636 7.31799 1.55246C7.31799 1.92855 7.62396 2.23455 8.00009 2.23455ZM8.00009 1.37561C8.09756 1.37561 8.17693 1.45492 8.17693 1.55246C8.17693 1.64996 8.09759 1.7293 8.00009 1.7293C7.90259 1.7293 7.82324 1.64999 7.82324 1.55246C7.82324 1.45492 7.90259 1.37561 8.00009 1.37561Z" fill="#A30401"/>
<path d="M9.82835 6.22601C9.8931 6.10241 9.84535 5.94972 9.72179 5.88501L8.77691 5.39019C8.65338 5.32551 8.50066 5.37319 8.43594 5.49676L7.94113 6.44163C7.87638 6.56522 7.92413 6.71791 8.04769 6.78263C8.08507 6.80222 8.12519 6.81154 8.16472 6.81154C8.25566 6.81154 8.3436 6.76222 8.38869 6.67607L8.59941 6.27372C9.15169 8.32335 8.18744 10.4789 6.26344 11.4207C6.10016 11.2431 5.87797 11.1388 5.63685 11.1269C5.13013 11.1017 4.70494 11.4917 4.68022 11.9934C4.66816 12.2369 4.75166 12.4705 4.91538 12.6512C5.07904 12.8319 5.30329 12.938 5.54679 12.9501C5.56207 12.9508 5.57722 12.9512 5.59235 12.9512C6.07919 12.9512 6.47932 12.5701 6.50332 12.0836C6.50685 12.0121 6.50194 11.9414 6.48938 11.8727C7.55366 11.3501 8.39347 10.464 8.86057 9.36754C9.29982 8.33647 9.37519 7.19554 9.081 6.11985L9.48741 6.33266C9.61082 6.39732 9.7636 6.3496 9.82835 6.22601ZM5.99866 12.0585C5.98757 12.2825 5.79775 12.4564 5.57169 12.4453C5.463 12.4399 5.36288 12.3926 5.28979 12.3118C5.21672 12.2312 5.17944 12.1269 5.18482 12.0182C5.19554 11.8011 5.37404 11.6309 5.59116 11.6309C5.59804 11.6309 5.60491 11.6311 5.61194 11.6314C5.7206 11.6368 5.82069 11.6841 5.89375 11.7648C5.96679 11.8455 6.00404 11.9498 5.99866 12.0585Z" fill="#A30401"/>
<path d="M5.74963 8.23027L5.32491 8.65499C5.22625 8.75367 5.22625 8.91361 5.32491 9.01227C5.37422 9.06158 5.43891 9.08624 5.50353 9.08624C5.56816 9.08624 5.63285 9.06158 5.68216 9.01227L6.10691 8.58752L6.53166 9.01227C6.58097 9.06158 6.64566 9.08624 6.71028 9.08624C6.77491 9.08624 6.8396 9.06158 6.88891 9.01227C6.98757 8.91358 6.98757 8.75364 6.88891 8.65499L6.46419 8.23027L6.88894 7.80552C6.9876 7.70683 6.9876 7.54689 6.88894 7.44824C6.79028 7.34961 6.63032 7.34961 6.53166 7.44824L6.10688 7.87302L5.6821 7.44824C5.58344 7.34961 5.42347 7.34961 5.32485 7.44824C5.22619 7.54692 5.22619 7.70686 5.32485 7.80552L5.74963 8.23027Z" fill="#A30401"/>
<path d="M10.8224 10.8636L11.2471 10.4388C11.3457 10.3402 11.3457 10.1802 11.2471 10.0815C11.1484 9.98291 10.9884 9.98291 10.8898 10.0815L10.465 10.5063L10.0403 10.0815C9.94159 9.98291 9.78166 9.98291 9.683 10.0815C9.58434 10.1802 9.58434 10.3402 9.683 10.4388L10.1078 10.8636L9.68303 11.2883C9.58438 11.387 9.58438 11.5469 9.68303 11.6456C9.73238 11.6949 9.79706 11.7195 9.86169 11.7195C9.92631 11.7195 9.991 11.6949 10.0403 11.6456L10.4651 11.2208L10.8898 11.6456C10.9391 11.6949 11.0038 11.7195 11.0684 11.7195C11.1331 11.7195 11.1978 11.6949 11.2471 11.6456C11.3458 11.5469 11.3458 11.3869 11.2471 11.2883L10.8224 10.8636Z" fill="#A30401"/>
</g>
<defs>
<clipPath id="clip0_101_3897">
<rect width="16" height="16" fill="white"/>
</clipPath>
</defs>
</svg>
