<svg width="20" height="20" viewBox="0 0 20 20" fill="none" xmlns="http://www.w3.org/2000/svg">
<g clip-path="url(#clip0_3_15)">
<path d="M19.756 0.244355C19.5997 0.0881291 19.3878 0.000366211 19.1669 0.000366211C18.9459 0.000366211 18.734 0.0881291 18.5777 0.244355L10.0002 8.82185L1.42269 0.244355C1.26642 0.0881291 1.05449 0.000366211 0.833522 0.000366211C0.612551 0.000366211 0.400628 0.0881291 0.244355 0.244355C0.0881291 0.400628 0.000366211 0.612551 0.000366211 0.833522C0.000366211 1.05449 0.0881291 1.26642 0.244355 1.42269L8.82185 10.0002L0.244355 18.5777C0.0881291 18.734 0.000366211 18.9459 0.000366211 19.1669C0.000366211 19.3878 0.0881291 19.5997 0.244355 19.756C0.400628 19.9122 0.612551 20 0.833522 20C1.05449 20 1.26642 19.9122 1.42269 19.756L10.0002 11.1785L18.5777 19.756C18.734 19.9122 18.9459 20 19.1669 20C19.3878 20 19.5997 19.9122 19.756 19.756C19.9122 19.5997 20 19.3878 20 19.1669C20 18.9459 19.9122 18.734 19.756 18.5777L11.1785 10.0002L19.756 1.42269C19.9122 1.26642 20 1.05449 20 0.833522C20 0.612551 19.9122 0.400628 19.756 0.244355Z" fill="#BCBCBC"/>
</g>
<defs>
<clipPath id="clip0_3_15">
<rect width="20" height="20" fill="white"/>
</clipPath>
</defs>
</svg>
