<svg width="17" height="17" viewBox="0 0 17 17" fill="none" xmlns="http://www.w3.org/2000/svg">
<path d="M2.83333 12.0416C3.61574 12.0416 4.25 11.4073 4.25 10.6249C4.25 9.84252 3.61574 9.20825 2.83333 9.20825C2.05093 9.20825 1.41667 9.84252 1.41667 10.6249C1.41667 11.4073 2.05093 12.0416 2.83333 12.0416Z" stroke="#A30401" stroke-width="1.41667"/>
<path d="M13.4583 5.66667C12.6759 5.66667 12.0416 6.30093 12.0416 7.08333C12.0416 7.86574 12.6759 8.5 13.4583 8.5C14.2407 8.5 14.875 7.86574 14.875 7.08333C14.875 6.30093 14.2407 5.66667 13.4583 5.66667Z" stroke="#A30401" stroke-width="1.41667"/>
<path d="M12.75 7.79168L11.6875 8.85418C10.967 9.57463 10.6068 9.93481 10.1736 10.0147C10.0037 10.046 9.82957 10.046 9.65964 10.0147C9.22643 9.93481 8.86624 9.57463 8.14579 8.85418C7.42535 8.13373 7.06517 7.77355 6.63192 7.69365C6.46205 7.66234 6.28787 7.66234 6.118 7.69365C5.68475 7.77355 5.32454 8.13373 4.60413 8.85418L3.54163 9.91668" stroke="#A30401" stroke-width="1.41667"/>
</svg>
