<svg width="878" height="501" viewBox="0 0 878 501" fill="none" xmlns="http://www.w3.org/2000/svg">
<g clip-path="url(#clip0_169_1854)">
<rect x="1" y="1" width="876" height="499" rx="15" fill="white"/>
<g clip-path="url(#clip1_169_1854)">
<mask id="path-3-outside-1_169_1854" maskUnits="userSpaceOnUse" x="1" y="85" width="876" height="82" fill="black">
<rect fill="white" x="1" y="85" width="876" height="82"/>
<path d="M1 85H877V166H1V85Z"/>
</mask>
<path d="M1 85H877V166H1V85Z" fill="white"/>
<mask id="path-5-outside-2_169_1854" maskUnits="userSpaceOnUse" x="460" y="85" width="417" height="82" fill="black">
<rect fill="white" x="460" y="85" width="417" height="82"/>
<path d="M460 85H877V166H460V85Z"/>
</mask>
<path d="M460 85H877V166H460V85Z" fill="#FF1F00"/>
<path d="M677.45 139H680.5V121.375H678.375L673.65 122.875L674.3 125.375L677.45 124.5V139Z" fill="white"/>
<path d="M460 85H877H460ZM877 167H460V165H877V167ZM460 166V85V166ZM877 85V166V85Z" fill="#BCBCBC" mask="url(#path-5-outside-2_169_1854)"/>
<mask id="path-8-outside-3_169_1854" maskUnits="userSpaceOnUse" x="1" y="85" width="458" height="82" fill="black">
<rect fill="white" x="1" y="85" width="458" height="82"/>
<path d="M1 100C1 91.7157 7.71573 85 16 85H459V166H1V100Z"/>
</mask>
<path d="M1 100C1 91.7157 7.71573 85 16 85H459V166H1V100Z" fill="white"/>
<path d="M29.8351 122.091H31.8409L37.129 109.236H34.7038L30.8745 119.046L27.027 109.236H24.547L29.8351 122.091ZM38.7422 110.895H41.1127V108.798H38.7422V110.895ZM38.8152 122H41.0398V112.372H38.8152V122ZM47.2238 122.182C49.2296 122.182 50.7978 121.179 50.7978 119.155V119.119C50.7978 117.387 49.1932 116.748 47.8073 116.311C46.6768 115.964 45.6374 115.636 45.6374 114.943V114.907C45.6374 114.378 46.1297 113.958 46.9868 113.958C47.7891 113.958 48.7738 114.305 49.7037 114.87L50.579 113.302C49.5579 112.627 48.2632 112.208 47.0415 112.208C45.1268 112.208 43.6133 113.32 43.6133 115.162V115.198C43.6133 117.022 45.218 117.624 46.6221 118.007C47.7526 118.353 48.7738 118.627 48.7738 119.356V119.392C48.7738 120.031 48.2267 120.432 47.2785 120.432C46.2756 120.432 45.1997 120.031 44.1239 119.247L43.1392 120.742C44.361 121.708 45.838 122.182 47.2238 122.182ZM53.095 110.895H55.4655V108.798H53.095V110.895ZM53.1679 122H55.3925V112.372H53.1679V122ZM62.853 122.219C65.8252 122.219 68.0134 119.921 68.0134 117.204V117.168C68.0134 114.414 65.8617 112.171 62.8895 112.171C59.9354 112.171 57.7473 114.451 57.7473 117.204V117.241C57.7473 119.976 59.9172 122.219 62.853 122.219ZM62.8895 120.286C61.1936 120.286 59.9537 118.882 59.9537 117.204V117.168C59.9537 115.49 61.0842 114.104 62.853 114.104C64.5853 114.104 65.807 115.508 65.807 117.204V117.241C65.807 118.9 64.6947 120.286 62.8895 120.286ZM70.2422 122H72.4668V116.566C72.4668 115.053 73.3421 114.177 74.6368 114.177C75.9497 114.177 76.6973 115.016 76.6973 116.53V122H78.9037V115.855C78.9037 113.612 77.6637 112.171 75.4756 112.171C73.9621 112.171 73.105 112.956 72.4668 113.849V112.372H70.2422V122ZM91.6119 122.219C94.5842 122.219 96.7723 119.921 96.7723 117.204V117.168C96.7723 114.414 94.6206 112.171 91.6484 112.171C88.6943 112.171 86.5062 114.451 86.5062 117.204V117.241C86.5062 119.976 88.6761 122.219 91.6119 122.219ZM91.6484 120.286C89.9525 120.286 88.7126 118.882 88.7126 117.204V117.168C88.7126 115.49 89.8431 114.104 91.6119 114.104C93.3442 114.104 94.5659 115.508 94.5659 117.204V117.241C94.5659 118.9 93.4536 120.286 91.6484 120.286ZM99.5117 122H101.718V114.268H104.234V112.445H101.682V111.916C101.682 110.95 102.101 110.457 102.958 110.457C103.45 110.457 103.815 110.549 104.253 110.694V108.835C103.76 108.689 103.232 108.579 102.447 108.579C101.517 108.579 100.806 108.835 100.296 109.345C99.767 109.874 99.5117 110.658 99.5117 111.716V112.427H98.2899V114.268H99.5117V122ZM111.597 122H113.84V116.803H120.277V114.761H113.84V111.278H121.098V109.236H111.597V122ZM126.627 122.201C128.104 122.201 128.998 121.435 129.636 120.505V122H131.861V112.372H129.636V117.806C129.636 119.319 128.761 120.177 127.466 120.177C126.153 120.177 125.406 119.356 125.406 117.842V112.372H123.199V118.499C123.199 120.76 124.439 122.201 126.627 122.201ZM137.844 122.164C138.701 122.164 139.266 121.982 139.831 121.672V119.867C139.394 120.085 138.938 120.195 138.464 120.195C137.716 120.195 137.279 119.848 137.279 118.991V114.268H139.868V112.372H137.279V109.728H135.072V112.372H133.85V114.268H135.072V119.338C135.072 121.453 136.221 122.164 137.844 122.164ZM145.432 122.201C146.909 122.201 147.802 121.435 148.441 120.505V122H150.665V112.372H148.441V117.806C148.441 119.319 147.565 120.177 146.271 120.177C144.958 120.177 144.21 119.356 144.21 117.842V112.372H142.004V118.499C142.004 120.76 143.244 122.201 145.432 122.201ZM153.403 122H155.627V118.335C155.627 115.782 156.958 114.524 158.91 114.524H159.037V112.19C157.341 112.117 156.229 113.083 155.627 114.542V112.372H153.403V122ZM165.046 122.219C166.814 122.219 168.054 121.508 168.984 120.414L167.69 119.265C166.906 120.012 166.176 120.414 165.082 120.414C163.642 120.414 162.547 119.557 162.31 117.97H169.386C169.404 117.751 169.422 117.551 169.422 117.35C169.422 114.578 167.872 112.171 164.809 112.171C162.055 112.171 160.104 114.414 160.104 117.186V117.222C160.104 120.195 162.274 122.219 165.046 122.219ZM162.292 116.511C162.493 114.998 163.423 113.977 164.79 113.977C166.249 113.977 167.088 115.107 167.234 116.511H162.292ZM181.827 122.182C184.508 122.182 186.386 120.778 186.386 118.371V118.335C186.386 116.201 184.982 115.29 182.302 114.597C179.84 114.013 179.256 113.576 179.256 112.591V112.554C179.256 111.697 180.022 111.041 181.335 111.041C182.502 111.041 183.633 111.497 184.8 112.354L186.003 110.658C184.69 109.619 183.25 109.053 181.372 109.053C178.837 109.053 177.013 110.567 177.013 112.755V112.791C177.013 115.125 178.545 115.964 181.262 116.603C183.633 117.131 184.143 117.66 184.143 118.554V118.59C184.143 119.538 183.268 120.195 181.882 120.195C180.296 120.195 179.092 119.611 177.852 118.535L176.503 120.14C178.035 121.526 179.858 122.182 181.827 122.182ZM191.907 122.164C192.764 122.164 193.329 121.982 193.895 121.672V119.867C193.457 120.085 193.001 120.195 192.527 120.195C191.779 120.195 191.342 119.848 191.342 118.991V114.268H193.931V112.372H191.342V109.728H189.135V112.372H187.914V114.268H189.135V119.338C189.135 121.453 190.284 122.164 191.907 122.164ZM198.948 122.201C200.425 122.201 201.428 121.581 202.084 120.797V122H204.236V116.293C204.236 115.034 203.908 114.031 203.197 113.32C202.504 112.609 201.446 112.244 200.006 112.244C198.474 112.244 197.435 112.573 196.359 113.029L196.96 114.761C197.836 114.396 198.62 114.159 199.714 114.159C201.264 114.159 202.103 114.87 202.103 116.256V116.493C201.355 116.256 200.607 116.092 199.513 116.092C197.161 116.092 195.52 117.095 195.52 119.192V119.228C195.52 121.179 197.143 122.201 198.948 122.201ZM199.568 120.596C198.492 120.596 197.69 120.067 197.69 119.137V119.101C197.69 118.08 198.51 117.496 199.951 117.496C200.826 117.496 201.574 117.66 202.139 117.879V118.535C202.139 119.775 201.027 120.596 199.568 120.596ZM210.017 122.164C210.874 122.164 211.439 121.982 212.005 121.672V119.867C211.567 120.085 211.111 120.195 210.637 120.195C209.889 120.195 209.452 119.848 209.452 118.991V114.268H212.041V112.372H209.452V109.728H207.245V112.372H206.024V114.268H207.245V119.338C207.245 121.453 208.394 122.164 210.017 122.164ZM218.432 122.219C220.201 122.219 221.441 121.508 222.371 120.414L221.076 119.265C220.292 120.012 219.563 120.414 218.469 120.414C217.028 120.414 215.934 119.557 215.697 117.97H222.772C222.79 117.751 222.809 117.551 222.809 117.35C222.809 114.578 221.259 112.171 218.195 112.171C215.442 112.171 213.491 114.414 213.491 117.186V117.222C213.491 120.195 215.66 122.219 218.432 122.219ZM215.679 116.511C215.879 114.998 216.809 113.977 218.177 113.977C219.636 113.977 220.474 115.107 220.62 116.511H215.679Z" fill="black"/>
<path d="M1 85H459H1ZM459 167H1V165H459V167ZM1 166V85V166ZM459 85V166V85Z" fill="#BCBCBC" mask="url(#path-8-outside-3_169_1854)"/>
</g>
<path d="M1 85H877H1ZM877 167H1V165H877V167ZM1 166V85V166ZM877 85V166V85Z" fill="#BCBCBC" mask="url(#path-3-outside-1_169_1854)"/>
<g clip-path="url(#clip2_169_1854)">
<mask id="path-11-outside-4_169_1854" maskUnits="userSpaceOnUse" x="1" y="169" width="876" height="82" fill="black">
<rect fill="white" x="1" y="169" width="876" height="82"/>
<path d="M1 169H877V250H1V169Z"/>
</mask>
<path d="M1 169H877V250H1V169Z" fill="white"/>
<mask id="path-13-outside-5_169_1854" maskUnits="userSpaceOnUse" x="460" y="169" width="417" height="82" fill="black">
<rect fill="white" x="460" y="169" width="417" height="82"/>
<path d="M460 169H877V250H460V169Z"/>
</mask>
<path d="M460 169H877V250H460V169Z" fill="#FDD504"/>
<path d="M674.225 223H686.875V220.3H678.55L682.15 217.3C685.25 214.75 686.7 213.3 686.7 210.525V210.475C686.7 207.35 684.325 205.25 680.925 205.25C677.825 205.25 676.15 206.575 674.475 208.9L676.675 210.625C678 208.85 679.1 208 680.7 208C682.3 208 683.525 209.025 683.525 210.725C683.525 212.325 682.625 213.4 680.25 215.45L674.225 220.575V223Z" fill="black"/>
<path d="M460 169H877H460ZM877 251H460V249H877V251ZM460 250V169V250ZM877 169V250V169Z" fill="#BCBCBC" mask="url(#path-13-outside-5_169_1854)"/>
<mask id="path-16-outside-6_169_1854" maskUnits="userSpaceOnUse" x="1" y="169" width="458" height="82" fill="black">
<rect fill="white" x="1" y="169" width="458" height="82"/>
<path d="M1 184C1 175.716 7.71573 169 16 169H459V250H1V184Z"/>
</mask>
<path d="M1 184C1 175.716 7.71573 169 16 169H459V250H1V184Z" fill="white"/>
<path d="M25.6411 217H27.884V211.803H34.3209V209.761H27.884V206.278H35.1414V204.236H25.6411V217ZM37.3889 205.895H39.7594V203.798H37.3889V205.895ZM37.4618 217H39.6864V207.372H37.4618V217ZM42.5517 217H44.7764V213.335C44.7764 210.782 46.1075 209.524 48.0586 209.524H48.1863V207.19C46.4904 207.117 45.3781 208.083 44.7764 209.542V207.372H42.5517V217ZM53.403 217.182C55.4088 217.182 56.977 216.179 56.977 214.155V214.119C56.977 212.387 55.3723 211.748 53.9865 211.311C52.8559 210.964 51.8165 210.636 51.8165 209.943V209.907C51.8165 209.378 52.3089 208.958 53.1659 208.958C53.9682 208.958 54.9529 209.305 55.8829 209.87L56.7582 208.302C55.737 207.627 54.4423 207.208 53.2206 207.208C51.306 207.208 49.7925 208.32 49.7925 210.162V210.198C49.7925 212.022 51.3971 212.624 52.8012 213.007C53.9318 213.353 54.9529 213.627 54.9529 214.356V214.392C54.9529 215.031 54.4059 215.432 53.4577 215.432C52.4548 215.432 51.3789 215.031 50.3031 214.247L49.3184 215.742C50.5401 216.708 52.0171 217.182 53.403 217.182ZM62.2871 217.164C63.1442 217.164 63.7094 216.982 64.2747 216.672V214.867C63.8371 215.085 63.3812 215.195 62.9071 215.195C62.1595 215.195 61.7219 214.848 61.7219 213.991V209.268H64.3112V207.372H61.7219V204.728H59.5155V207.372H58.2937V209.268H59.5155V214.338C59.5155 216.453 60.6642 217.164 62.2871 217.164ZM76.7462 217.182C79.4267 217.182 81.3048 215.778 81.3048 213.371V213.335C81.3048 211.201 79.9008 210.29 77.2203 209.597C74.7586 209.013 74.1751 208.576 74.1751 207.591V207.554C74.1751 206.697 74.9409 206.041 76.2538 206.041C77.4208 206.041 78.5514 206.497 79.7184 207.354L80.9219 205.658C79.609 204.619 78.1685 204.053 76.2903 204.053C73.7557 204.053 71.9322 205.567 71.9322 207.755V207.791C71.9322 210.125 73.4639 210.964 76.1809 211.603C78.5514 212.131 79.062 212.66 79.062 213.554V213.59C79.062 214.538 78.1867 215.195 76.8009 215.195C75.2144 215.195 74.0109 214.611 72.771 213.535L71.4216 215.14C72.9533 216.526 74.7768 217.182 76.7462 217.182ZM86.8257 217.164C87.6827 217.164 88.248 216.982 88.8133 216.672V214.867C88.3757 215.085 87.9198 215.195 87.4457 215.195C86.6981 215.195 86.2604 214.848 86.2604 213.991V209.268H88.8498V207.372H86.2604V204.728H84.054V207.372H82.8323V209.268H84.054V214.338C84.054 216.453 85.2028 217.164 86.8257 217.164ZM95.2408 217.219C97.0095 217.219 98.2495 216.508 99.1795 215.414L97.8848 214.265C97.1007 215.012 96.3713 215.414 95.2772 215.414C93.8367 215.414 92.7426 214.557 92.5055 212.97H99.5806C99.5989 212.751 99.6171 212.551 99.6171 212.35C99.6171 209.578 98.0671 207.171 95.0037 207.171C92.2503 207.171 90.2991 209.414 90.2991 212.186V212.222C90.2991 215.195 92.4691 217.219 95.2408 217.219ZM92.4873 211.511C92.6879 209.998 93.6179 208.977 94.9855 208.977C96.4442 208.977 97.283 210.107 97.4289 211.511H92.4873ZM101.815 219.918H104.039V215.505C104.714 216.398 105.717 217.201 107.322 217.201C109.601 217.201 111.789 215.414 111.789 212.204V212.168C111.789 208.958 109.583 207.171 107.322 207.171C105.735 207.171 104.75 207.974 104.039 208.977V207.372H101.815V219.918ZM106.793 215.286C105.279 215.286 103.985 214.046 103.985 212.204V212.168C103.985 210.326 105.279 209.086 106.793 209.086C108.27 209.086 109.546 210.308 109.546 212.168V212.204C109.546 214.101 108.306 215.286 106.793 215.286ZM117.367 217.182C119.373 217.182 120.941 216.179 120.941 214.155V214.119C120.941 212.387 119.336 211.748 117.951 211.311C116.82 210.964 115.781 210.636 115.781 209.943V209.907C115.781 209.378 116.273 208.958 117.13 208.958C117.932 208.958 118.917 209.305 119.847 209.87L120.722 208.302C119.701 207.627 118.406 207.208 117.185 207.208C115.27 207.208 113.757 208.32 113.757 210.162V210.198C113.757 212.022 115.361 212.624 116.765 213.007C117.896 213.353 118.917 213.627 118.917 214.356V214.392C118.917 215.031 118.37 215.432 117.422 215.432C116.419 215.432 115.343 215.031 114.267 214.247L113.282 215.742C114.504 216.708 115.981 217.182 117.367 217.182ZM126.827 219.334H128.742L136.984 202.449H135.069L126.827 219.334ZM143.9 217H146.143V212.897H148.677C151.504 212.897 153.783 211.384 153.783 208.539V208.503C153.783 205.932 151.923 204.236 148.933 204.236H143.9V217ZM146.143 210.873V206.278H148.75C150.428 206.278 151.504 207.044 151.504 208.557V208.594C151.504 209.925 150.446 210.873 148.75 210.873H146.143ZM155.934 217H158.159V203.689H155.934V217ZM163.814 217.201C165.291 217.201 166.294 216.581 166.95 215.797V217H169.102V211.293C169.102 210.034 168.774 209.031 168.063 208.32C167.37 207.609 166.312 207.244 164.872 207.244C163.34 207.244 162.301 207.573 161.225 208.029L161.827 209.761C162.702 209.396 163.486 209.159 164.58 209.159C166.13 209.159 166.969 209.87 166.969 211.256V211.493C166.221 211.256 165.473 211.092 164.379 211.092C162.027 211.092 160.386 212.095 160.386 214.192V214.228C160.386 216.179 162.009 217.201 163.814 217.201ZM164.434 215.596C163.358 215.596 162.556 215.067 162.556 214.137V214.101C162.556 213.08 163.376 212.496 164.817 212.496C165.692 212.496 166.44 212.66 167.005 212.879V213.535C167.005 214.775 165.893 215.596 164.434 215.596ZM171.726 217H173.951V211.566C173.951 210.053 174.826 209.177 176.121 209.177C177.434 209.177 178.182 210.016 178.182 211.53V217H180.388V210.855C180.388 208.612 179.148 207.171 176.96 207.171C175.446 207.171 174.589 207.956 173.951 208.849V207.372H171.726V217ZM190.908 212.952H192.385L192.567 211.493C194.591 211.165 196.251 210.125 196.251 207.81V207.773C196.251 205.494 194.518 204.072 191.966 204.072C189.996 204.072 188.647 204.874 187.571 206.096L188.939 207.554C189.814 206.624 190.744 206.114 191.911 206.114C193.224 206.114 193.99 206.825 193.99 207.846V207.883C193.99 209.104 192.968 209.834 190.634 209.907L190.543 209.998L190.908 212.952ZM190.379 217H192.823V214.484H190.379V217Z" fill="black"/>
<path d="M1 169H459H1ZM459 251H1V249H459V251ZM1 250V169V250ZM459 169V250V169Z" fill="#BCBCBC" mask="url(#path-16-outside-6_169_1854)"/>
</g>
<path d="M1 169H877H1ZM877 251H1V249H877V251ZM1 250V169V250ZM877 169V250V169Z" fill="#BCBCBC" mask="url(#path-11-outside-4_169_1854)"/>
<g clip-path="url(#clip3_169_1854)">
<mask id="path-19-outside-7_169_1854" maskUnits="userSpaceOnUse" x="1" y="253" width="876" height="82" fill="black">
<rect fill="white" x="1" y="253" width="876" height="82"/>
<path d="M1 253H877V334H1V253Z"/>
</mask>
<path d="M1 253H877V334H1V253Z" fill="white"/>
<mask id="path-21-outside-8_169_1854" maskUnits="userSpaceOnUse" x="460" y="253" width="417" height="82" fill="black">
<rect fill="white" x="460" y="253" width="417" height="82"/>
<path d="M460 253H877V334H460V253Z"/>
</mask>
<path d="M460 253H877V334H460V253Z" fill="#BCBCBC"/>
<path d="M682.025 307.3C686.625 307.3 689.675 303.25 689.675 298.25V298.2C689.675 293.2 686.65 289.2 682.075 289.2C677.475 289.2 674.425 293.25 674.425 298.25V298.3C674.425 303.3 677.425 307.3 682.025 307.3ZM682.075 304.525C679.35 304.525 677.6 301.7 677.6 298.25V298.2C677.6 294.75 679.325 291.975 682.025 291.975C684.725 291.975 686.5 294.8 686.5 298.25V298.3C686.5 301.725 684.775 304.525 682.075 304.525Z" fill="black"/>
<path d="M460 253H877H460ZM877 335H460V333H877V335ZM460 334V253V334ZM877 253V334V253Z" fill="#BCBCBC" mask="url(#path-21-outside-8_169_1854)"/>
<mask id="path-24-outside-9_169_1854" maskUnits="userSpaceOnUse" x="1" y="253" width="458" height="82" fill="black">
<rect fill="white" x="1" y="253" width="458" height="82"/>
<path d="M1 268C1 259.716 7.71573 253 16 253H459V334H1V268Z"/>
</mask>
<path d="M1 268C1 259.716 7.71573 253 16 253H459V334H1V268Z" fill="white"/>
<path d="M28.7593 301H31.0021V290.314H35.0685V288.236H24.6929V290.314H28.7593V301ZM39.6678 301.219C42.64 301.219 44.8282 298.921 44.8282 296.204V296.168C44.8282 293.414 42.6765 291.171 39.7043 291.171C36.7502 291.171 34.5621 293.451 34.5621 296.204V296.241C34.5621 298.976 36.732 301.219 39.6678 301.219ZM39.7043 299.286C38.0084 299.286 36.7685 297.882 36.7685 296.204V296.168C36.7685 294.49 37.899 293.104 39.6678 293.104C41.4001 293.104 42.6218 294.508 42.6218 296.204V296.241C42.6218 297.9 41.5095 299.286 39.7043 299.286ZM50.3028 301.164C51.1598 301.164 51.7251 300.982 52.2904 300.672V298.867C51.8527 299.085 51.3969 299.195 50.9228 299.195C50.1751 299.195 49.7375 298.848 49.7375 297.991V293.268H52.3268V291.372H49.7375V288.728H47.5311V291.372H46.3094V293.268H47.5311V298.338C47.5311 300.453 48.6799 301.164 50.3028 301.164ZM57.3438 301.201C58.8208 301.201 59.8237 300.581 60.4802 299.797V301H62.6319V295.293C62.6319 294.034 62.3037 293.031 61.5925 292.32C60.8996 291.609 59.842 291.244 58.4014 291.244C56.8697 291.244 55.8303 291.573 54.7545 292.029L55.3562 293.761C56.2315 293.396 57.0156 293.159 58.1097 293.159C59.6596 293.159 60.4984 293.87 60.4984 295.256V295.493C59.7508 295.256 59.0032 295.092 57.9091 295.092C55.5568 295.092 53.9157 296.095 53.9157 298.192V298.228C53.9157 300.179 55.5386 301.201 57.3438 301.201ZM57.9638 299.596C56.8879 299.596 56.0856 299.067 56.0856 298.137V298.101C56.0856 297.08 56.9062 296.496 58.3467 296.496C59.222 296.496 59.9696 296.66 60.5349 296.879V297.535C60.5349 298.775 59.4226 299.596 57.9638 299.596ZM65.3838 301H67.6084V287.689H65.3838V301Z" fill="black"/>
<path d="M1 253H459H1ZM459 335H1V333H459V335ZM1 334V253V334ZM459 253V334V253Z" fill="#BCBCBC" mask="url(#path-24-outside-9_169_1854)"/>
</g>
<path d="M1 253H877H1ZM877 335H1V333H877V335ZM1 334V253V334ZM877 253V334V253Z" fill="#BCBCBC" mask="url(#path-19-outside-7_169_1854)"/>
<g clip-path="url(#clip4_169_1854)">
<mask id="path-27-outside-10_169_1854" maskUnits="userSpaceOnUse" x="1" y="337" width="876" height="82" fill="black">
<rect fill="white" x="1" y="337" width="876" height="82"/>
<path d="M1 337H877V418H1V337Z"/>
</mask>
<path d="M1 337H877V418H1V337Z" fill="white"/>
<mask id="path-29-outside-11_169_1854" maskUnits="userSpaceOnUse" x="460" y="337" width="417" height="82" fill="black">
<rect fill="white" x="460" y="337" width="417" height="82"/>
<path d="M460 337H877V418H460V337Z"/>
</mask>
<path d="M460 337H877V418H460V337Z" fill="#0057FF"/>
<path d="M680.775 391.3C684.425 391.3 686.9 388.975 686.9 385.75V385.7C686.9 382.475 684.4 381.125 681.75 380.8L686.625 375.8V373.5H675.05V376.175H682.625L677.9 381.2L678.4 383.125H679.825C682.3 383.125 683.85 384.1 683.85 385.825V385.875C683.85 387.475 682.525 388.525 680.825 388.525C678.85 388.525 677.5 387.725 676.225 386.225L674.075 388.25C675.575 390.05 677.7 391.3 680.775 391.3Z" fill="white"/>
<path d="M460 337H877H460ZM877 419H460V417H877V419ZM460 418V337V418ZM877 337V418V337Z" fill="#BCBCBC" mask="url(#path-29-outside-11_169_1854)"/>
<mask id="path-32-outside-12_169_1854" maskUnits="userSpaceOnUse" x="1" y="337" width="458" height="82" fill="black">
<rect fill="white" x="1" y="337" width="458" height="82"/>
<path d="M1 352C1 343.716 7.71573 337 16 337H459V418H1V352Z"/>
</mask>
<path d="M1 352C1 343.716 7.71573 337 16 337H459V418H1V352Z" fill="white"/>
<path d="M25.6411 385H27.884V380.551H30.6922L33.8285 385H36.4908L33.0444 380.168C34.8132 379.657 36.0714 378.399 36.0714 376.302V376.266C36.0714 375.153 35.6885 374.223 35.0138 373.512C34.1932 372.71 32.935 372.236 31.3304 372.236H25.6411V385ZM27.884 378.563V374.278H31.148C32.8256 374.278 33.7921 375.007 33.7921 376.393V376.43C33.7921 377.743 32.7709 378.563 31.1663 378.563H27.884ZM42.798 385.219C44.5668 385.219 45.8068 384.508 46.7367 383.414L45.4421 382.265C44.658 383.012 43.9286 383.414 42.8345 383.414C41.394 383.414 40.2999 382.557 40.0628 380.97H47.1379C47.1561 380.751 47.1744 380.551 47.1744 380.35C47.1744 377.578 45.6244 375.171 42.561 375.171C39.8075 375.171 37.8564 377.414 37.8564 380.186V380.222C37.8564 383.195 40.0264 385.219 42.798 385.219ZM40.0446 379.511C40.2452 377.998 41.1751 376.977 42.5427 376.977C44.0015 376.977 44.8403 378.107 44.9862 379.511H40.0446ZM52.6907 385.182C54.6965 385.182 56.2647 384.179 56.2647 382.155V382.119C56.2647 380.387 54.66 379.748 53.2742 379.311C52.1436 378.964 51.1042 378.636 51.1042 377.943V377.907C51.1042 377.378 51.5966 376.958 52.4536 376.958C53.2559 376.958 54.2406 377.305 55.1706 377.87L56.0459 376.302C55.0247 375.627 53.7301 375.208 52.5083 375.208C50.5937 375.208 49.0802 376.32 49.0802 378.162V378.198C49.0802 380.022 50.6848 380.624 52.0889 381.007C53.2195 381.353 54.2406 381.627 54.2406 382.356V382.392C54.2406 383.031 53.6936 383.432 52.7454 383.432C51.7425 383.432 50.6666 383.031 49.5908 382.247L48.6061 383.742C49.8278 384.708 51.3048 385.182 52.6907 385.182ZM58.5618 373.895H60.9324V371.798H58.5618V373.895ZM58.6348 385H60.8594V375.372H58.6348V385ZM67.0434 385.182C69.0492 385.182 70.6174 384.179 70.6174 382.155V382.119C70.6174 380.387 69.0128 379.748 67.6269 379.311C66.4964 378.964 65.457 378.636 65.457 377.943V377.907C65.457 377.378 65.9493 376.958 66.8064 376.958C67.6087 376.958 68.5934 377.305 69.5233 377.87L70.3986 376.302C69.3775 375.627 68.0828 375.208 66.8611 375.208C64.9464 375.208 63.4329 376.32 63.4329 378.162V378.198C63.4329 380.022 65.0376 380.624 66.4417 381.007C67.5722 381.353 68.5934 381.627 68.5934 382.356V382.392C68.5934 383.031 68.0463 383.432 67.0981 383.432C66.0952 383.432 65.0194 383.031 63.9435 382.247L62.9588 383.742C64.1806 384.708 65.6576 385.182 67.0434 385.182ZM75.9276 385.164C76.7846 385.164 77.3499 384.982 77.9152 384.672V382.867C77.4775 383.085 77.0217 383.195 76.5476 383.195C75.7999 383.195 75.3623 382.848 75.3623 381.991V377.268H77.9516V375.372H75.3623V372.728H73.1559V375.372H71.9342V377.268H73.1559V382.338C73.1559 384.453 74.3047 385.164 75.9276 385.164ZM82.9686 385.201C84.4456 385.201 85.4485 384.581 86.105 383.797V385H88.2567V379.293C88.2567 378.034 87.9285 377.031 87.2173 376.32C86.5244 375.609 85.4668 375.244 84.0262 375.244C82.4945 375.244 81.4551 375.573 80.3793 376.029L80.981 377.761C81.8563 377.396 82.6404 377.159 83.7345 377.159C85.2844 377.159 86.1232 377.87 86.1232 379.256V379.493C85.3756 379.256 84.628 379.092 83.5339 379.092C81.1816 379.092 79.5405 380.095 79.5405 382.192V382.228C79.5405 384.179 81.1634 385.201 82.9686 385.201ZM83.5886 383.596C82.5128 383.596 81.7104 383.067 81.7104 382.137V382.101C81.7104 381.08 82.531 380.496 83.9715 380.496C84.8468 380.496 85.5944 380.66 86.1597 380.879V381.535C86.1597 382.775 85.0474 383.596 83.5886 383.596ZM90.8809 385H93.1056V379.566C93.1056 378.053 93.9808 377.177 95.2755 377.177C96.5884 377.177 97.336 378.016 97.336 379.53V385H99.5424V378.855C99.5424 376.612 98.3025 375.171 96.1143 375.171C94.6008 375.171 93.7438 375.956 93.1056 376.849V375.372H90.8809V385ZM106.656 385.219C108.534 385.219 109.647 384.489 110.595 383.414L109.264 382.101C108.553 382.812 107.805 383.286 106.766 383.286C105.07 383.286 103.884 381.918 103.884 380.204V380.168C103.884 378.49 105.07 377.104 106.674 377.104C107.768 377.104 108.48 377.597 109.154 378.308L110.54 376.831C109.61 375.846 108.498 375.171 106.693 375.171C103.793 375.171 101.678 377.469 101.678 380.204V380.241C101.678 382.976 103.793 385.219 106.656 385.219ZM116.77 385.219C118.539 385.219 119.779 384.508 120.709 383.414L119.414 382.265C118.63 383.012 117.9 383.414 116.806 383.414C115.366 383.414 114.272 382.557 114.035 380.97H121.11C121.128 380.751 121.146 380.551 121.146 380.35C121.146 377.578 119.596 375.171 116.533 375.171C113.779 375.171 111.828 377.414 111.828 380.186V380.222C111.828 383.195 113.998 385.219 116.77 385.219ZM114.016 379.511C114.217 377.998 115.147 376.977 116.515 376.977C117.973 376.977 118.812 378.107 118.958 379.511H114.016ZM125.021 380.952H126.498L126.68 379.493C128.704 379.165 130.363 378.125 130.363 375.81V375.773C130.363 373.494 128.631 372.072 126.078 372.072C124.109 372.072 122.76 372.874 121.684 374.096L123.051 375.554C123.927 374.624 124.857 374.114 126.024 374.114C127.336 374.114 128.102 374.825 128.102 375.846V375.883C128.102 377.104 127.081 377.834 124.747 377.907L124.656 377.998L125.021 380.952ZM124.492 385H126.935V382.484H124.492V385Z" fill="black"/>
<path d="M1 337H459H1ZM459 419H1V417H459V419ZM1 418V337V418ZM459 337V418V337Z" fill="#BCBCBC" mask="url(#path-32-outside-12_169_1854)"/>
</g>
<path d="M1 337H877H1ZM877 419H1V417H877V419ZM1 418V337V418ZM877 337V418V337Z" fill="#BCBCBC" mask="url(#path-27-outside-10_169_1854)"/>
<g clip-path="url(#clip5_169_1854)">
<mask id="path-35-outside-13_169_1854" maskUnits="userSpaceOnUse" x="1" y="421" width="876" height="82" fill="black">
<rect fill="white" x="1" y="421" width="876" height="82"/>
<path d="M1 421H877V502H1V421Z"/>
</mask>
<path d="M1 421H877V502H1V421Z" fill="white"/>
<mask id="path-37-outside-14_169_1854" maskUnits="userSpaceOnUse" x="460" y="421" width="417" height="82" fill="black">
<rect fill="white" x="460" y="421" width="417" height="82"/>
<path d="M460 421H877V502H460V421Z"/>
</mask>
<path d="M460 421H877V502H460V421Z" fill="#FF1F00"/>
<path d="M654.4 475H657.5V468.025L664.45 457.5H660.925L655.975 465.225L651.1 457.5H647.45L654.4 468.1V475ZM670.087 475.3C672.512 475.3 674.212 474.325 675.487 472.825L673.712 471.25C672.637 472.275 671.637 472.825 670.137 472.825C668.162 472.825 666.662 471.65 666.337 469.475H676.037C676.062 469.175 676.087 468.9 676.087 468.625C676.087 464.825 673.962 461.525 669.762 461.525C665.987 461.525 663.312 464.6 663.312 468.4V468.45C663.312 472.525 666.287 475.3 670.087 475.3ZM666.312 467.475C666.587 465.4 667.862 464 669.737 464C671.737 464 672.887 465.55 673.087 467.475H666.312ZM683.65 475.25C686.4 475.25 688.55 473.875 688.55 471.1V471.05C688.55 468.675 686.35 467.8 684.45 467.2C682.9 466.725 681.475 466.275 681.475 465.325V465.275C681.475 464.55 682.15 463.975 683.325 463.975C684.425 463.975 685.775 464.45 687.05 465.225L688.25 463.075C686.85 462.15 685.075 461.575 683.4 461.575C680.775 461.575 678.7 463.1 678.7 465.625V465.675C678.7 468.175 680.9 469 682.825 469.525C684.375 470 685.775 470.375 685.775 471.375V471.425C685.775 472.3 685.025 472.85 683.725 472.85C682.35 472.85 680.875 472.3 679.4 471.225L678.05 473.275C679.725 474.6 681.75 475.25 683.65 475.25Z" fill="white"/>
<path d="M460 421H877H460ZM877 503H460V501H877V503ZM460 502V421V502ZM877 421V502V421Z" fill="#BCBCBC" mask="url(#path-37-outside-14_169_1854)"/>
<mask id="path-40-outside-15_169_1854" maskUnits="userSpaceOnUse" x="1" y="421" width="458" height="82" fill="black">
<rect fill="white" x="1" y="421" width="458" height="82"/>
<path d="M1 436C1 427.716 7.71573 421 16 421H459V502H1V436Z"/>
</mask>
<path d="M1 436C1 427.716 7.71573 421 16 421H459V502H1V436Z" fill="white"/>
<path d="M25.6411 469H27.884V464.551H30.6922L33.8285 469H36.4908L33.0444 464.168C34.8132 463.657 36.0714 462.399 36.0714 460.302V460.266C36.0714 459.153 35.6885 458.223 35.0138 457.512C34.1932 456.71 32.935 456.236 31.3304 456.236H25.6411V469ZM27.884 462.563V458.278H31.148C32.8256 458.278 33.7921 459.007 33.7921 460.393V460.43C33.7921 461.743 32.7709 462.563 31.1663 462.563H27.884ZM42.798 469.219C44.5668 469.219 45.8068 468.508 46.7367 467.414L45.4421 466.265C44.658 467.012 43.9286 467.414 42.8345 467.414C41.394 467.414 40.2999 466.557 40.0628 464.97H47.1379C47.1561 464.751 47.1744 464.551 47.1744 464.35C47.1744 461.578 45.6244 459.171 42.561 459.171C39.8075 459.171 37.8564 461.414 37.8564 464.186V464.222C37.8564 467.195 40.0264 469.219 42.798 469.219ZM40.0446 463.511C40.2452 461.998 41.1751 460.977 42.5427 460.977C44.0015 460.977 44.8403 462.107 44.9862 463.511H40.0446ZM52.1619 469.201C53.6389 469.201 54.6418 468.581 55.2982 467.797V469H57.4499V463.293C57.4499 462.034 57.1217 461.031 56.4106 460.32C55.7176 459.609 54.66 459.244 53.2195 459.244C51.6878 459.244 50.6484 459.573 49.5725 460.029L50.1743 461.761C51.0495 461.396 51.8336 461.159 52.9277 461.159C54.4777 461.159 55.3165 461.87 55.3165 463.256V463.493C54.5689 463.256 53.8212 463.092 52.7271 463.092C50.3749 463.092 48.7337 464.095 48.7337 466.192V466.228C48.7337 468.179 50.3566 469.201 52.1619 469.201ZM52.7818 467.596C51.706 467.596 50.9037 467.067 50.9037 466.137V466.101C50.9037 465.08 51.7242 464.496 53.1648 464.496C54.04 464.496 54.7877 464.66 55.3529 464.879V465.535C55.3529 466.775 54.2406 467.596 52.7818 467.596ZM64.0676 469.201C65.6175 469.201 66.6387 468.398 67.3498 467.395V469H69.5563V455.689H67.3498V460.867C66.6752 459.956 65.6358 459.171 64.0676 459.171C61.77 459.171 59.6001 460.958 59.6001 464.168V464.204C59.6001 467.414 61.8065 469.201 64.0676 469.201ZM64.5964 467.286C63.0829 467.286 61.8247 466.064 61.8247 464.204V464.168C61.8247 462.271 63.0829 461.086 64.5964 461.086C66.0734 461.086 67.3863 462.308 67.3863 464.168V464.204C67.3863 466.046 66.0734 467.286 64.5964 467.286ZM76.4836 466.52L73.7849 459.372H71.4143L75.426 469.018C75.0613 469.839 74.6966 470.112 74.0584 470.112C73.6025 470.112 73.1831 469.966 72.7637 469.748L72.0161 471.371C72.6908 471.753 73.3655 471.972 74.2954 471.972C75.8454 471.972 76.6842 471.243 77.4683 469.255L81.2976 459.372H79L76.4836 466.52ZM88.9107 469H91.1536V463.803H97.5905V461.761H91.1536V458.278H98.411V456.236H88.9107V469ZM104.932 469.219C107.904 469.219 110.092 466.921 110.092 464.204V464.168C110.092 461.414 107.941 459.171 104.968 459.171C102.014 459.171 99.8261 461.451 99.8261 464.204V464.241C99.8261 466.976 101.996 469.219 104.932 469.219ZM104.968 467.286C103.272 467.286 102.032 465.882 102.032 464.204V464.168C102.032 462.49 103.163 461.104 104.932 461.104C106.664 461.104 107.886 462.508 107.886 464.204V464.241C107.886 465.9 106.774 467.286 104.968 467.286ZM112.321 469H114.546V465.335C114.546 462.782 115.877 461.524 117.828 461.524H117.956V459.19C116.26 459.117 115.147 460.083 114.546 461.542V459.372H112.321V469ZM131.52 469.219C133.891 469.219 135.404 468.362 136.699 466.958L135.258 465.499C134.164 466.52 133.143 467.14 131.593 467.14C129.15 467.14 127.381 465.116 127.381 462.618V462.581C127.381 460.083 129.168 458.096 131.575 458.096C133.052 458.096 134.128 458.716 135.167 459.664L136.608 458.004C135.386 456.837 133.964 456.017 131.593 456.017C127.746 456.017 125.029 458.989 125.029 462.618V462.654C125.029 466.319 127.8 469.219 131.52 469.219ZM138.801 469H141.025V463.566C141.025 462.053 141.9 461.177 143.195 461.177C144.508 461.177 145.256 462.016 145.256 463.53V469H147.462V462.855C147.462 460.612 146.222 459.171 144.034 459.171C142.52 459.171 141.663 459.956 141.025 460.849V455.689H138.801V469ZM152.898 469.201C154.375 469.201 155.378 468.581 156.035 467.797V469H158.186V463.293C158.186 462.034 157.858 461.031 157.147 460.32C156.454 459.609 155.396 459.244 153.956 459.244C152.424 459.244 151.385 459.573 150.309 460.029L150.911 461.761C151.786 461.396 152.57 461.159 153.664 461.159C155.214 461.159 156.053 461.87 156.053 463.256V463.493C155.305 463.256 154.558 463.092 153.463 463.092C151.111 463.092 149.47 464.095 149.47 466.192V466.228C149.47 468.179 151.093 469.201 152.898 469.201ZM153.518 467.596C152.442 467.596 151.64 467.067 151.64 466.137V466.101C151.64 465.08 152.461 464.496 153.901 464.496C154.776 464.496 155.524 464.66 156.089 464.879V465.535C156.089 466.775 154.977 467.596 153.518 467.596ZM160.81 469H163.035V463.566C163.035 462.053 163.91 461.177 165.205 461.177C166.518 461.177 167.266 462.016 167.266 463.53V469H169.472V462.855C169.472 460.612 168.232 459.171 166.044 459.171C164.53 459.171 163.673 459.956 163.035 460.849V459.372H160.81V469ZM176.422 471.954C178.172 471.954 179.503 471.535 180.379 470.659C181.199 469.839 181.6 468.635 181.6 467.031V459.372H179.394V460.813C178.646 459.919 177.643 459.171 176.02 459.171C173.759 459.171 171.644 460.849 171.644 463.694V463.73C171.644 466.557 173.741 468.234 176.02 468.234C177.607 468.234 178.61 467.505 179.412 466.484V467.213C179.412 469.164 178.336 470.149 176.367 470.149C175.054 470.149 173.978 469.784 172.939 469.146L172.118 470.805C173.376 471.571 174.817 471.954 176.422 471.954ZM176.604 466.356C175.09 466.356 173.869 465.28 173.869 463.712V463.675C173.869 462.089 175.072 461.05 176.604 461.05C178.136 461.05 179.43 462.125 179.43 463.675V463.712C179.43 465.28 178.136 466.356 176.604 466.356ZM188.783 469.219C190.552 469.219 191.792 468.508 192.722 467.414L191.427 466.265C190.643 467.012 189.913 467.414 188.819 467.414C187.379 467.414 186.285 466.557 186.048 464.97H193.123C193.141 464.751 193.159 464.551 193.159 464.35C193.159 461.578 191.609 459.171 188.546 459.171C185.792 459.171 183.841 461.414 183.841 464.186V464.222C183.841 467.195 186.011 469.219 188.783 469.219ZM186.029 463.511C186.23 461.998 187.16 460.977 188.528 460.977C189.986 460.977 190.825 462.107 190.971 463.511H186.029ZM197.034 464.952H198.511L198.693 463.493C200.717 463.165 202.376 462.125 202.376 459.81V459.773C202.376 457.494 200.644 456.072 198.091 456.072C196.122 456.072 194.773 456.874 193.697 458.096L195.064 459.554C195.94 458.624 196.87 458.114 198.037 458.114C199.35 458.114 200.115 458.825 200.115 459.846V459.883C200.115 461.104 199.094 461.834 196.76 461.907L196.669 461.998L197.034 464.952ZM196.505 469H198.948V466.484H196.505V469Z" fill="black"/>
<path d="M1 421H459H1ZM459 503H1V501H459V503ZM1 502V421V502ZM459 421V502V421Z" fill="#BCBCBC" mask="url(#path-40-outside-15_169_1854)"/>
</g>
<path d="M1 421H877H1ZM877 503H1V501H877V503ZM1 502V421V502ZM877 421V502V421Z" fill="#BCBCBC" mask="url(#path-35-outside-13_169_1854)"/>
<g clip-path="url(#clip6_169_1854)">
<mask id="path-43-outside-16_169_1854" maskUnits="userSpaceOnUse" x="1" y="1" width="876" height="82" fill="black">
<rect fill="white" x="1" y="1" width="876" height="82"/>
<path d="M1 16C1 7.71573 7.71573 1 16 1H862C870.284 1 877 7.71573 877 16V82H1V16Z"/>
</mask>
<path d="M1 16C1 7.71573 7.71573 1 16 1H862C870.284 1 877 7.71573 877 16V82H1V16Z" fill="white"/>
<mask id="path-45-outside-17_169_1854" maskUnits="userSpaceOnUse" x="459" y="1" width="418" height="82" fill="black">
<rect fill="white" x="459" y="1" width="418" height="82"/>
<path d="M459 1H862C870.284 1 877 7.71573 877 16V82H459V1Z"/>
</mask>
<path d="M459 1H862C870.284 1 877 7.71573 877 16V82H459V1Z" fill="#1CFD17"/>
<path d="M679.775 55.3C683.425 55.3 685.9 52.975 685.9 49.75V49.7C685.9 46.475 683.4 45.125 680.75 44.8L685.625 39.8V37.5H674.05V40.175H681.625L676.9 45.2L677.4 47.125H678.825C681.3 47.125 682.85 48.1 682.85 49.825V49.875C682.85 51.475 681.525 52.525 679.825 52.525C677.85 52.525 676.5 51.725 675.225 50.225L673.075 52.25C674.575 54.05 676.7 55.3 679.775 55.3Z" fill="black"/>
<path d="M459 1H877H459ZM877 83H459V81H877V83ZM459 82V1V82ZM877 1V82V1Z" fill="#BCBCBC" mask="url(#path-45-outside-17_169_1854)"/>
<mask id="path-48-outside-18_169_1854" maskUnits="userSpaceOnUse" x="1" y="1" width="458" height="82" fill="black">
<rect fill="white" x="1" y="1" width="458" height="82"/>
<path d="M1 16C1 7.71573 7.71573 1 16 1H459V82H1V16Z"/>
</mask>
<path d="M1 16C1 7.71573 7.71573 1 16 1H459V82H1V16Z" fill="white"/>
<path d="M25.6411 38H30.4004C34.412 38 37.1837 35.2101 37.1837 31.6178V31.5814C37.1837 27.9891 34.412 25.2357 30.4004 25.2357H25.6411V38ZM30.4004 27.278C33.0809 27.278 34.8314 29.1197 34.8314 31.6178V31.6543C34.8314 34.1525 33.0809 35.9577 30.4004 35.9577H27.884V27.278H30.4004ZM39.686 26.895H42.0565V24.798H39.686V26.895ZM39.759 38H41.9836V28.3721H39.759V38ZM48.1676 38.1823C50.1734 38.1823 51.7416 37.1794 51.7416 35.1554V35.1189C51.7416 33.3866 50.137 32.7484 48.7511 32.3108C47.6206 31.9643 46.5812 31.6361 46.5812 30.9432V30.9067C46.5812 30.3779 47.0735 29.9585 47.9305 29.9585C48.7329 29.9585 49.7176 30.3049 50.6475 30.8702L51.5228 29.302C50.5016 28.6273 49.207 28.2079 47.9852 28.2079C46.0706 28.2079 44.5571 29.3203 44.5571 31.162V31.1984C44.5571 33.0219 46.1618 33.6237 47.5659 34.0066C48.6964 34.353 49.7176 34.6266 49.7176 35.356V35.3924C49.7176 36.0306 49.1705 36.4318 48.2223 36.4318C47.2194 36.4318 46.1435 36.0306 45.0677 35.2466L44.083 36.7418C45.3047 37.7082 46.7818 38.1823 48.1676 38.1823ZM57.1247 38.1823C59.1305 38.1823 60.6987 37.1794 60.6987 35.1554V35.1189C60.6987 33.3866 59.0941 32.7484 57.7082 32.3108C56.5777 31.9643 55.5383 31.6361 55.5383 30.9432V30.9067C55.5383 30.3779 56.0306 29.9585 56.8877 29.9585C57.69 29.9585 58.6747 30.3049 59.6046 30.8702L60.4799 29.302C59.4588 28.6273 58.1641 28.2079 56.9424 28.2079C55.0277 28.2079 53.5142 29.3203 53.5142 31.162V31.1984C53.5142 33.0219 55.1189 33.6237 56.523 34.0066C57.6535 34.353 58.6747 34.6266 58.6747 35.356V35.3924C58.6747 36.0306 58.1276 36.4318 57.1794 36.4318C56.1765 36.4318 55.1006 36.0306 54.0248 35.2466L53.0401 36.7418C54.2619 37.7082 55.7389 38.1823 57.1247 38.1823ZM65.7311 38.2006C67.2081 38.2006 68.211 37.5806 68.8675 36.7965V38H71.0192V32.2925C71.0192 31.0343 70.6909 30.0314 69.9798 29.3203C69.2869 28.6091 68.2292 28.2444 66.7887 28.2444C65.257 28.2444 64.2176 28.5726 63.1417 29.0285L63.7435 30.7608C64.6188 30.3961 65.4029 30.1591 66.4969 30.1591C68.0469 30.1591 68.8857 30.8702 68.8857 32.2561V32.4931C68.1381 32.2561 67.3904 32.0919 66.2964 32.0919C63.9441 32.0919 62.3029 33.0949 62.3029 35.1918V35.2283C62.3029 37.1794 63.9258 38.2006 65.7311 38.2006ZM66.3511 36.5959C65.2752 36.5959 64.4729 36.0671 64.4729 35.1371V35.1007C64.4729 34.0795 65.2934 33.496 66.734 33.496C67.6093 33.496 68.3569 33.6601 68.9222 33.8789V34.5354C68.9222 35.7754 67.8098 36.5959 66.3511 36.5959ZM76.8001 38.1641C77.6572 38.1641 78.2225 37.9818 78.7877 37.6718V35.8665C78.3501 36.0854 77.8942 36.1948 77.4201 36.1948C76.6725 36.1948 76.2349 35.8483 76.2349 34.9913V30.2685H78.8242V28.3721H76.2349V25.728H74.0285V28.3721H72.8067V30.2685H74.0285V35.3377C74.0285 37.453 75.1773 38.1641 76.8001 38.1641ZM81.106 26.895H83.4765V24.798H81.106V26.895ZM81.1789 38H83.4035V28.3721H81.1789V38ZM89.5875 38.1823C91.5934 38.1823 93.1616 37.1794 93.1616 35.1554V35.1189C93.1616 33.3866 91.5569 32.7484 90.1711 32.3108C89.0405 31.9643 88.0011 31.6361 88.0011 30.9432V30.9067C88.0011 30.3779 88.4935 29.9585 89.3505 29.9585C90.1528 29.9585 91.1375 30.3049 92.0675 30.8702L92.9427 29.302C91.9216 28.6273 90.6269 28.2079 89.4052 28.2079C87.4906 28.2079 85.9771 29.3203 85.9771 31.162V31.1984C85.9771 33.0219 87.5817 33.6237 88.9858 34.0066C90.1164 34.353 91.1375 34.6266 91.1375 35.356V35.3924C91.1375 36.0306 90.5905 36.4318 89.6423 36.4318C88.6393 36.4318 87.5635 36.0306 86.4876 35.2466L85.503 36.7418C86.7247 37.7082 88.2017 38.1823 89.5875 38.1823ZM95.9146 38H98.121V30.2685H100.637V28.445H98.0845V27.9162C98.0845 26.9497 98.5039 26.4574 99.3609 26.4574C99.8533 26.4574 100.218 26.5486 100.656 26.6945V24.8345C100.163 24.6886 99.6345 24.5792 98.8504 24.5792C97.9204 24.5792 97.2092 24.8345 96.6987 25.3451C96.1699 25.8739 95.9146 26.658 95.9146 27.7156V28.4268H94.6929V30.2685H95.9146V38ZM104.783 38.2006C106.26 38.2006 107.263 37.5806 107.919 36.7965V38H110.071V32.2925C110.071 31.0343 109.743 30.0314 109.031 29.3203C108.338 28.6091 107.281 28.2444 105.84 28.2444C104.309 28.2444 103.269 28.5726 102.193 29.0285L102.795 30.7608C103.67 30.3961 104.454 30.1591 105.549 30.1591C107.098 30.1591 107.937 30.8702 107.937 32.2561V32.4931C107.19 32.2561 106.442 32.0919 105.348 32.0919C102.996 32.0919 101.355 33.0949 101.355 35.1918V35.2283C101.355 37.1794 102.977 38.2006 104.783 38.2006ZM105.403 36.5959C104.327 36.5959 103.524 36.0671 103.524 35.1371V35.1007C103.524 34.0795 104.345 33.496 105.786 33.496C106.661 33.496 107.408 33.6601 107.974 33.8789V34.5354C107.974 35.7754 106.861 36.5959 105.403 36.5959ZM117.162 38.2188C119.041 38.2188 120.153 37.4894 121.101 36.4136L119.77 35.1007C119.059 35.8118 118.311 36.2859 117.272 36.2859C115.576 36.2859 114.391 34.9183 114.391 33.2043V33.1678C114.391 31.4902 115.576 30.1044 117.181 30.1044C118.275 30.1044 118.986 30.5967 119.661 31.3078L121.046 29.8308C120.117 28.8462 119.004 28.1715 117.199 28.1715C114.3 28.1715 112.184 30.469 112.184 33.2043V33.2407C112.184 35.9759 114.3 38.2188 117.162 38.2188ZM126.358 38.1641C127.215 38.1641 127.78 37.9818 128.346 37.6718V35.8665C127.908 36.0854 127.452 36.1948 126.978 36.1948C126.23 36.1948 125.793 35.8483 125.793 34.9913V30.2685H128.382V28.3721H125.793V25.728H123.586V28.3721H122.365V30.2685H123.586V35.3377C123.586 37.453 124.735 38.1641 126.358 38.1641ZM130.664 26.895H133.034V24.798H130.664V26.895ZM130.737 38H132.961V28.3721H130.737V38ZM140.422 38.2188C143.394 38.2188 145.582 35.9212 145.582 33.2043V33.1678C145.582 30.4143 143.431 28.1715 140.458 28.1715C137.504 28.1715 135.316 30.4508 135.316 33.2043V33.2407C135.316 35.9759 137.486 38.2188 140.422 38.2188ZM140.458 36.2859C138.763 36.2859 137.523 34.8819 137.523 33.2043V33.1678C137.523 31.4902 138.653 30.1044 140.422 30.1044C142.154 30.1044 143.376 31.5084 143.376 33.2043V33.2407C143.376 34.9001 142.264 36.2859 140.458 36.2859ZM147.811 38H150.036V32.566C150.036 31.0526 150.911 30.1773 152.206 30.1773C153.519 30.1773 154.266 31.0161 154.266 32.5296V38H156.473V31.8549C156.473 29.612 155.233 28.1715 153.044 28.1715C151.531 28.1715 150.674 28.9556 150.036 29.8491V28.3721H147.811V38ZM157.295 40.334H159.21L167.452 23.4487H165.537L157.295 40.334ZM178.836 38.1823C181.516 38.1823 183.395 36.7783 183.395 34.3713V34.3348C183.395 32.2013 181.99 31.2896 179.31 30.5967C176.848 30.0132 176.265 29.5755 176.265 28.5909V28.5544C176.265 27.6974 177.031 27.0409 178.343 27.0409C179.511 27.0409 180.641 27.4968 181.808 28.3538L183.012 26.658C181.699 25.6186 180.258 25.0533 178.38 25.0533C175.845 25.0533 174.022 26.5668 174.022 28.755V28.7915C174.022 31.1255 175.554 31.9643 178.271 32.6025C180.641 33.1313 181.152 33.6601 181.152 34.5536V34.5901C181.152 35.5383 180.276 36.1948 178.891 36.1948C177.304 36.1948 176.101 35.6112 174.861 34.5354L173.511 36.1401C175.043 37.5259 176.866 38.1823 178.836 38.1823ZM188.549 38.2006C190.026 38.2006 191.028 37.5806 191.685 36.7965V38H193.837V32.2925C193.837 31.0343 193.508 30.0314 192.797 29.3203C192.104 28.6091 191.047 28.2444 189.606 28.2444C188.074 28.2444 187.035 28.5726 185.959 29.0285L186.561 30.7608C187.436 30.3961 188.22 30.1591 189.314 30.1591C190.864 30.1591 191.703 30.8702 191.703 32.2561V32.4931C190.956 32.2561 190.208 32.0919 189.114 32.0919C186.762 32.0919 185.12 33.0949 185.12 35.1918V35.2283C185.12 37.1794 186.743 38.2006 188.549 38.2006ZM189.169 36.5959C188.093 36.5959 187.29 36.0671 187.29 35.1371V35.1007C187.29 34.0795 188.111 33.496 189.551 33.496C190.427 33.496 191.174 33.6601 191.74 33.8789V34.5354C191.74 35.7754 190.627 36.5959 189.169 36.5959ZM199.618 38.1641C200.475 38.1641 201.04 37.9818 201.605 37.6718V35.8665C201.168 36.0854 200.712 36.1948 200.238 36.1948C199.49 36.1948 199.052 35.8483 199.052 34.9913V30.2685H201.642V28.3721H199.052V25.728H196.846V28.3721H195.624V30.2685H196.846V35.3377C196.846 37.453 197.995 38.1641 199.618 38.1641ZM203.923 26.895H206.294V24.798H203.923V26.895ZM203.996 38H206.221V28.3721H203.996V38ZM212.405 38.1823C214.411 38.1823 215.979 37.1794 215.979 35.1554V35.1189C215.979 33.3866 214.374 32.7484 212.989 32.3108C211.858 31.9643 210.819 31.6361 210.819 30.9432V30.9067C210.819 30.3779 211.311 29.9585 212.168 29.9585C212.97 29.9585 213.955 30.3049 214.885 30.8702L215.76 29.302C214.739 28.6273 213.444 28.2079 212.223 28.2079C210.308 28.2079 208.795 29.3203 208.795 31.162V31.1984C208.795 33.0219 210.399 33.6237 211.803 34.0066C212.934 34.353 213.955 34.6266 213.955 35.356V35.3924C213.955 36.0306 213.408 36.4318 212.46 36.4318C211.457 36.4318 210.381 36.0306 209.305 35.2466L208.32 36.7418C209.542 37.7082 211.019 38.1823 212.405 38.1823ZM218.732 38H220.938V30.2685H223.455V28.445H220.902V27.9162C220.902 26.9497 221.321 26.4574 222.178 26.4574C222.671 26.4574 223.035 26.5486 223.473 26.6945V24.8345C222.981 24.6886 222.452 24.5792 221.668 24.5792C220.738 24.5792 220.027 24.8345 219.516 25.3451C218.987 25.8739 218.732 26.658 218.732 27.7156V28.4268H217.51V30.2685H218.732V38ZM227.6 38.2006C229.077 38.2006 230.08 37.5806 230.736 36.7965V38H232.888V32.2925C232.888 31.0343 232.56 30.0314 231.849 29.3203C231.156 28.6091 230.098 28.2444 228.658 28.2444C227.126 28.2444 226.087 28.5726 225.011 29.0285L225.613 30.7608C226.488 30.3961 227.272 30.1591 228.366 30.1591C229.916 30.1591 230.755 30.8702 230.755 32.2561V32.4931C230.007 32.2561 229.259 32.0919 228.165 32.0919C225.813 32.0919 224.172 33.0949 224.172 35.1918V35.2283C224.172 37.1794 225.795 38.2006 227.6 38.2006ZM228.22 36.5959C227.144 36.5959 226.342 36.0671 226.342 35.1371V35.1007C226.342 34.0795 227.162 33.496 228.603 33.496C229.478 33.496 230.226 33.6601 230.791 33.8789V34.5354C230.791 35.7754 229.679 36.5959 228.22 36.5959ZM239.98 38.2188C241.858 38.2188 242.97 37.4894 243.919 36.4136L242.588 35.1007C241.876 35.8118 241.129 36.2859 240.089 36.2859C238.394 36.2859 237.208 34.9183 237.208 33.2043V33.1678C237.208 31.4902 238.394 30.1044 239.998 30.1044C241.092 30.1044 241.803 30.5967 242.478 31.3078L243.864 29.8308C242.934 28.8462 241.822 28.1715 240.016 28.1715C237.117 28.1715 235.002 30.469 235.002 33.2043V33.2407C235.002 35.9759 237.117 38.2188 239.98 38.2188ZM249.176 38.1641C250.033 38.1641 250.598 37.9818 251.163 37.6718V35.8665C250.725 36.0854 250.27 36.1948 249.796 36.1948C249.048 36.1948 248.61 35.8483 248.61 34.9913V30.2685H251.2V28.3721H248.61V25.728H246.404V28.3721H245.182V30.2685H246.404V35.3377C246.404 37.453 247.553 38.1641 249.176 38.1641ZM253.481 26.895H255.852V24.798H253.481V26.895ZM253.554 38H255.779V28.3721H253.554V38ZM263.239 38.2188C266.212 38.2188 268.4 35.9212 268.4 33.2043V33.1678C268.4 30.4143 266.248 28.1715 263.276 28.1715C260.322 28.1715 258.134 30.4508 258.134 33.2043V33.2407C258.134 35.9759 260.304 38.2188 263.239 38.2188ZM263.276 36.2859C261.58 36.2859 260.34 34.8819 260.34 33.2043V33.1678C260.34 31.4902 261.471 30.1044 263.239 30.1044C264.972 30.1044 266.193 31.5084 266.193 33.2043V33.2407C266.193 34.9001 265.081 36.2859 263.276 36.2859ZM270.629 38H272.853V32.566C272.853 31.0526 273.728 30.1773 275.023 30.1773C276.336 30.1773 277.084 31.0161 277.084 32.5296V38H279.29V31.8549C279.29 29.612 278.05 28.1715 275.862 28.1715C274.348 28.1715 273.491 28.9556 272.853 29.8491V28.3721H270.629V38ZM289.737 38.0729H291.706L293.876 31.4902L296.028 38.0729H298.016L301.17 28.3721H298.946L296.976 34.973L294.843 28.3356H292.946L290.813 34.973L288.88 28.3721H286.601L289.737 38.0729ZM303.164 26.895H305.534V24.798H303.164V26.895ZM303.237 38H305.461V28.3721H303.237V38ZM311.573 38.1641C312.43 38.1641 312.995 37.9818 313.56 37.6718V35.8665C313.123 36.0854 312.667 36.1948 312.193 36.1948C311.445 36.1948 311.007 35.8483 311.007 34.9913V30.2685H313.597V28.3721H311.007V25.728H308.801V28.3721H307.579V30.2685H308.801V35.3377C308.801 37.453 309.95 38.1641 311.573 38.1641ZM315.824 38H318.048V32.566C318.048 31.0526 318.924 30.1773 320.218 30.1773C321.531 30.1773 322.279 31.0161 322.279 32.5296V38H324.485V31.8549C324.485 29.612 323.245 28.1715 321.057 28.1715C319.544 28.1715 318.687 28.9556 318.048 29.8491V24.6886H315.824V38ZM335.844 38.1641C336.701 38.1641 337.266 37.9818 337.832 37.6718V35.8665C337.394 36.0854 336.938 36.1948 336.464 36.1948C335.716 36.1948 335.279 35.8483 335.279 34.9913V30.2685H337.868V28.3721H335.279V25.728H333.072V28.3721H331.851V30.2685H333.072V35.3377C333.072 37.453 334.221 38.1641 335.844 38.1641ZM340.095 38H342.32V32.566C342.32 31.0526 343.195 30.1773 344.49 30.1773C345.803 30.1773 346.55 31.0161 346.55 32.5296V38H348.757V31.8549C348.757 29.612 347.517 28.1715 345.328 28.1715C343.815 28.1715 342.958 28.9556 342.32 29.8491V24.6886H340.095V38ZM355.834 38.2188C357.603 38.2188 358.843 37.5077 359.773 36.4136L358.478 35.2648C357.694 36.0124 356.964 36.4136 355.87 36.4136C354.43 36.4136 353.336 35.5565 353.099 33.9701H360.174C360.192 33.7513 360.21 33.5507 360.21 33.3501C360.21 30.5785 358.66 28.1715 355.597 28.1715C352.843 28.1715 350.892 30.4143 350.892 33.186V33.2225C350.892 36.1948 353.062 38.2188 355.834 38.2188ZM353.08 32.5113C353.281 30.9979 354.211 29.9767 355.579 29.9767C357.037 29.9767 357.876 31.1073 358.022 32.5113H353.08ZM372.342 38.2188C374.22 38.2188 375.333 37.4894 376.281 36.4136L374.95 35.1007C374.239 35.8118 373.491 36.2859 372.452 36.2859C370.756 36.2859 369.57 34.9183 369.57 33.2043V33.1678C369.57 31.4902 370.756 30.1044 372.36 30.1044C373.454 30.1044 374.166 30.5967 374.84 31.3078L376.226 29.8308C375.296 28.8462 374.184 28.1715 372.379 28.1715C369.479 28.1715 367.364 30.469 367.364 33.2043V33.2407C367.364 35.9759 369.479 38.2188 372.342 38.2188ZM381.611 38.2006C383.088 38.2006 383.982 37.4347 384.62 36.5048V38H386.844V28.3721H384.62V33.806C384.62 35.3195 383.745 36.1765 382.45 36.1765C381.137 36.1765 380.389 35.356 380.389 33.8425V28.3721H378.183V34.4989C378.183 36.76 379.423 38.2006 381.611 38.2006ZM389.582 38H391.806V34.3348C391.806 31.7819 393.138 30.5238 395.089 30.5238H395.216V28.1897C393.521 28.1168 392.408 29.0832 391.806 30.542V28.3721H389.582V38ZM397.114 38H399.339V34.3348C399.339 31.7819 400.67 30.5238 402.621 30.5238H402.749V28.1897C401.053 28.1168 399.941 29.0832 399.339 30.542V28.3721H397.114V38ZM408.757 38.2188C410.526 38.2188 411.766 37.5077 412.696 36.4136L411.401 35.2648C410.617 36.0124 409.888 36.4136 408.794 36.4136C407.353 36.4136 406.259 35.5565 406.022 33.9701H413.097C413.115 33.7513 413.134 33.5507 413.134 33.3501C413.134 30.5785 411.584 28.1715 408.52 28.1715C405.767 28.1715 403.816 30.4143 403.816 33.186V33.2225C403.816 36.1948 405.986 38.2188 408.757 38.2188ZM406.004 32.5113C406.204 30.9979 407.134 29.9767 408.502 29.9767C409.961 29.9767 410.8 31.1073 410.946 32.5113H406.004ZM415.331 38H417.556V32.566C417.556 31.0526 418.431 30.1773 419.726 30.1773C421.039 30.1773 421.786 31.0161 421.786 32.5296V38H423.993V31.8549C423.993 29.612 422.753 28.1715 420.565 28.1715C419.051 28.1715 418.194 28.9556 417.556 29.8491V28.3721H415.331V38ZM429.885 38.1641C430.742 38.1641 431.307 37.9818 431.872 37.6718V35.8665C431.435 36.0854 430.979 36.1948 430.505 36.1948C429.757 36.1948 429.319 35.8483 429.319 34.9913V30.2685H431.909V28.3721H429.319V25.728H427.113V28.3721H425.891V30.2685H427.113V35.3377C427.113 37.453 428.262 38.1641 429.885 38.1641ZM28.6863 60.1823C30.6922 60.1823 32.2603 59.1794 32.2603 57.1554V57.1189C32.2603 55.3866 30.6557 54.7484 29.2698 54.3108C28.1393 53.9643 27.0999 53.6361 27.0999 52.9432V52.9067C27.0999 52.3779 27.5922 51.9585 28.4493 51.9585C29.2516 51.9585 30.2363 52.3049 31.1663 52.8702L32.0415 51.302C31.0204 50.6273 29.7257 50.2079 28.504 50.2079C26.5893 50.2079 25.0759 51.3203 25.0759 53.162V53.1984C25.0759 55.0219 26.6805 55.6237 28.0846 56.0066C29.2151 56.353 30.2363 56.6266 30.2363 57.356V57.3924C30.2363 58.0306 29.6892 58.4318 28.741 58.4318C27.7381 58.4318 26.6623 58.0306 25.5864 57.2466L24.6017 58.7418C25.8235 59.7082 27.3005 60.1823 28.6863 60.1823ZM37.5705 60.1641C38.4275 60.1641 38.9928 59.9818 39.5581 59.6718V57.8665C39.1205 58.0854 38.6646 58.1948 38.1905 58.1948C37.4429 58.1948 37.0052 57.8483 37.0052 56.9913V52.2685H39.5946V50.3721H37.0052V47.728H34.7988V50.3721H33.5771V52.2685H34.7988V57.3377C34.7988 59.453 35.9476 60.1641 37.5705 60.1641ZM44.6115 60.2006C46.0886 60.2006 47.0915 59.5806 47.7479 58.7965V60H49.8996V54.2925C49.8996 53.0343 49.5714 52.0314 48.8602 51.3203C48.1673 50.6091 47.1097 50.2444 45.6692 50.2444C44.1374 50.2444 43.0981 50.5726 42.0222 51.0285L42.6239 52.7608C43.4992 52.3961 44.2833 52.1591 45.3774 52.1591C46.9274 52.1591 47.7661 52.8702 47.7661 54.2561V54.4931C47.0185 54.2561 46.2709 54.0919 45.1768 54.0919C42.8245 54.0919 41.1834 55.0949 41.1834 57.1918V57.2283C41.1834 59.1794 42.8063 60.2006 44.6115 60.2006ZM45.2315 58.5959C44.1557 58.5959 43.3533 58.0671 43.3533 57.1371V57.1007C43.3533 56.0795 44.1739 55.496 45.6144 55.496C46.4897 55.496 47.2373 55.6601 47.8026 55.8789V56.5354C47.8026 57.7754 46.6903 58.5959 45.2315 58.5959ZM55.6806 60.1641C56.5376 60.1641 57.1029 59.9818 57.6682 59.6718V57.8665C57.2306 58.0854 56.7747 58.1948 56.3006 58.1948C55.553 58.1948 55.1153 57.8483 55.1153 56.9913V52.2685H57.7047V50.3721H55.1153V47.728H52.9089V50.3721H51.6872V52.2685H52.9089V57.3377C52.9089 59.453 54.0577 60.1641 55.6806 60.1641ZM64.0957 60.2188C65.8644 60.2188 67.1044 59.5077 68.0344 58.4136L66.7397 57.2648C65.9556 58.0124 65.2262 58.4136 64.1321 58.4136C62.6916 58.4136 61.5975 57.5565 61.3604 55.9701H68.4355C68.4538 55.7513 68.472 55.5507 68.472 55.3501C68.472 52.5785 66.922 50.1715 63.8586 50.1715C61.1052 50.1715 59.154 52.4143 59.154 55.186V55.2225C59.154 58.1948 61.324 60.2188 64.0957 60.2188ZM61.3422 54.5113C61.5428 52.9979 62.4728 51.9767 63.8404 51.9767C65.2991 51.9767 66.1379 53.1073 66.2838 54.5113H61.3422Z" fill="black"/>
<path d="M1 1H459H1ZM459 83H1V81H459V83ZM1 82V1V82ZM459 1V82V1Z" fill="#BCBCBC" mask="url(#path-48-outside-18_169_1854)"/>
</g>
<path d="M1 1H877H1ZM877 83H1V81H877V83ZM1 82V1V82ZM877 1V82V1Z" fill="#BCBCBC" mask="url(#path-43-outside-16_169_1854)"/>
</g>
<rect x="0.5" y="0.5" width="877" height="500" rx="15.5" stroke="#BCBCBC"/>
<defs>
<clipPath id="clip0_169_1854">
<rect x="1" y="1" width="876" height="499" rx="15" fill="white"/>
</clipPath>
<clipPath id="clip1_169_1854">
<path d="M1 85H877V166H1V85Z" fill="white"/>
</clipPath>
<clipPath id="clip2_169_1854">
<path d="M1 169H877V250H1V169Z" fill="white"/>
</clipPath>
<clipPath id="clip3_169_1854">
<path d="M1 253H877V334H1V253Z" fill="white"/>
</clipPath>
<clipPath id="clip4_169_1854">
<path d="M1 337H877V418H1V337Z" fill="white"/>
</clipPath>
<clipPath id="clip5_169_1854">
<path d="M1 421H877V502H1V421Z" fill="white"/>
</clipPath>
<clipPath id="clip6_169_1854">
<path d="M1 16C1 7.71573 7.71573 1 16 1H862C870.284 1 877 7.71573 877 16V82H1V16Z" fill="white"/>
</clipPath>
</defs>
</svg>
