<svg width="16" height="16" viewBox="0 0 16 16" fill="none" xmlns="http://www.w3.org/2000/svg">
<path opacity="0.1" d="M6 4C6 5.10457 5.10457 6 4 6C2.89543 6 2 5.10457 2 4C2 2.89543 2.89543 2 4 2C5.10457 2 6 2.89543 6 4Z" fill="#A30401"/>
<path opacity="0.1" d="M14 12C14 13.1046 13.1046 14 12 14C10.8954 14 10 13.1046 10 12C10 10.8954 10.8954 10 12 10C13.1046 10 14 10.8954 14 12Z" fill="#A30401"/>
<path d="M6 4C6 5.10457 5.10457 6 4 6C2.89543 6 2 5.10457 2 4C2 2.89543 2.89543 2 4 2C5.10457 2 6 2.89543 6 4Z" stroke="#A30401" stroke-width="1.58333"/>
<path d="M14 12C14 13.1046 13.1046 14 12 14C10.8954 14 10 13.1046 10 12C10 10.8954 10.8954 10 12 10C13.1046 10 14 10.8954 14 12Z" stroke="#A30401" stroke-width="1.58333"/>
<path d="M10 2L8.04038 3.95963C8.01811 3.98193 8.01811 4.01807 8.04038 4.04037L10 6" stroke="#A30401" stroke-width="1.58333" stroke-linecap="round" stroke-linejoin="round"/>
<path d="M6 14L7.96487 12.0351C7.98427 12.0157 7.98427 11.9843 7.96487 11.9649L6 10" stroke="#A30401" stroke-width="1.58333" stroke-linecap="round" stroke-linejoin="round"/>
<path d="M8 4C9.8856 4 10.8284 4 11.4142 4.58579C12 5.17157 12 6.11438 12 8V10" stroke="#A30401" stroke-width="1.58333"/>
<path d="M8 12C6.11438 12 5.17157 12 4.58579 11.4142C4 10.8284 4 9.8856 4 8V6" stroke="#A30401" stroke-width="1.58333"/>
</svg>
