<svg width="15" height="7" viewBox="0 0 15 7" fill="none" xmlns="http://www.w3.org/2000/svg">
<path d="M11.3333 16H3.33333C2.4496 15.9989 1.60237 15.6474 0.97748 15.0225C0.352588 14.3976 0.00105857 13.5504 0 12.6667V3.33333C0.00105857 2.4496 0.352588 1.60237 0.97748 0.97748C1.60237 0.352588 2.4496 0.00105857 3.33333 0L11.3333 0C12.2171 0.00105857 13.0643 0.352588 13.6892 0.97748C14.3141 1.60237 14.6656 2.4496 14.6667 3.33333V12.6667C14.6656 13.5504 14.3141 14.3976 13.6892 15.0225C13.0643 15.6474 12.2171 15.9989 11.3333 16V16ZM3.33333 1.33333C2.8029 1.33333 2.29419 1.54405 1.91912 1.91912C1.54405 2.29419 1.33333 2.8029 1.33333 3.33333V12.6667C1.33333 13.1971 1.54405 13.7058 1.91912 14.0809C2.29419 14.456 2.8029 14.6667 3.33333 14.6667H11.3333C11.8638 14.6667 12.3725 14.456 12.7475 14.0809C13.1226 13.7058 13.3333 13.1971 13.3333 12.6667V3.33333C13.3333 2.8029 13.1226 2.29419 12.7475 1.91912C12.3725 1.54405 11.8638 1.33333 11.3333 1.33333H3.33333ZM10 6.66667H4.66667C4.13623 6.66667 3.62753 6.45595 3.25245 6.08088C2.87738 5.70581 2.66667 5.1971 2.66667 4.66667C2.66667 4.13623 2.87738 3.62753 3.25245 3.25245C3.62753 2.87738 4.13623 2.66667 4.66667 2.66667H10C10.5304 2.66667 11.0391 2.87738 11.4142 3.25245C11.7893 3.62753 12 4.13623 12 4.66667C12 5.1971 11.7893 5.70581 11.4142 6.08088C11.0391 6.45595 10.5304 6.66667 10 6.66667V6.66667ZM4.66667 4C4.48986 4 4.32029 4.07024 4.19526 4.19526C4.07024 4.32029 4 4.48986 4 4.66667C4 4.84348 4.07024 5.01305 4.19526 5.13807C4.32029 5.2631 4.48986 5.33333 4.66667 5.33333H10C10.1768 5.33333 10.3464 5.2631 10.4714 5.13807C10.5964 5.01305 10.6667 4.84348 10.6667 4.66667C10.6667 4.48986 10.5964 4.32029 10.4714 4.19526C10.3464 4.07024 10.1768 4 10 4H4.66667ZM3.33333 8.66667C3.20148 8.66667 3.07259 8.70577 2.96295 8.77902C2.85332 8.85227 2.76787 8.95639 2.71741 9.07821C2.66696 9.20003 2.65375 9.33407 2.67948 9.46339C2.7052 9.59271 2.76869 9.7115 2.86193 9.80474C2.95516 9.89797 3.07395 9.96147 3.20327 9.98719C3.33259 10.0129 3.46664 9.99971 3.58846 9.94925C3.71027 9.89879 3.81439 9.81335 3.88765 9.70371C3.9609 9.59408 4 9.46519 4 9.33333C4 9.15652 3.92976 8.98695 3.80474 8.86193C3.67971 8.7369 3.51014 8.66667 3.33333 8.66667ZM6 8.66667C5.86815 8.66667 5.73925 8.70577 5.62962 8.77902C5.51999 8.85227 5.43454 8.95639 5.38408 9.07821C5.33362 9.20003 5.32042 9.33407 5.34614 9.46339C5.37187 9.59271 5.43536 9.7115 5.5286 9.80474C5.62183 9.89797 5.74062 9.96147 5.86994 9.98719C5.99926 10.0129 6.13331 9.99971 6.25512 9.94925C6.37694 9.89879 6.48106 9.81335 6.55431 9.70371C6.62757 9.59408 6.66667 9.46519 6.66667 9.33333C6.66667 9.15652 6.59643 8.98695 6.4714 8.86193C6.34638 8.7369 6.17681 8.66667 6 8.66667ZM8.66667 8.66667C8.53481 8.66667 8.40592 8.70577 8.29629 8.77902C8.18665 8.85227 8.10121 8.95639 8.05075 9.07821C8.00029 9.20003 7.98709 9.33407 8.01281 9.46339C8.03853 9.59271 8.10203 9.7115 8.19526 9.80474C8.2885 9.89797 8.40729 9.96147 8.53661 9.98719C8.66593 10.0129 8.79997 9.99971 8.92179 9.94925C9.04361 9.89879 9.14773 9.81335 9.22098 9.70371C9.29423 9.59408 9.33333 9.46519 9.33333 9.33333C9.33333 9.15652 9.2631 8.98695 9.13807 8.86193C9.01305 8.7369 8.84348 8.66667 8.66667 8.66667ZM3.33333 11.3333C3.20148 11.3333 3.07259 11.3724 2.96295 11.4457C2.85332 11.5189 2.76787 11.6231 2.71741 11.7449C2.66696 11.8667 2.65375 12.0007 2.67948 12.1301C2.7052 12.2594 2.76869 12.3782 2.86193 12.4714C2.95516 12.5646 3.07395 12.6281 3.20327 12.6539C3.33259 12.6796 3.46664 12.6664 3.58846 12.6159C3.71027 12.5655 3.81439 12.48 3.88765 12.3704C3.9609 12.2607 4 12.1319 4 12C4 11.8232 3.92976 11.6536 3.80474 11.5286C3.67971 11.4036 3.51014 11.3333 3.33333 11.3333ZM6 11.3333C5.86815 11.3333 5.73925 11.3724 5.62962 11.4457C5.51999 11.5189 5.43454 11.6231 5.38408 11.7449C5.33362 11.8667 5.32042 12.0007 5.34614 12.1301C5.37187 12.2594 5.43536 12.3782 5.5286 12.4714C5.62183 12.5646 5.74062 12.6281 5.86994 12.6539C5.99926 12.6796 6.13331 12.6664 6.25512 12.6159C6.37694 12.5655 6.48106 12.48 6.55431 12.3704C6.62757 12.2607 6.66667 12.1319 6.66667 12C6.66667 11.8232 6.59643 11.6536 6.4714 11.5286C6.34638 11.4036 6.17681 11.3333 6 11.3333ZM11.3333 8.66667C11.2015 8.66667 11.0726 8.70577 10.963 8.77902C10.8533 8.85227 10.7679 8.95639 10.7174 9.07821C10.667 9.20003 10.6538 9.33407 10.6795 9.46339C10.7052 9.59271 10.7687 9.7115 10.8619 9.80474C10.9552 9.89797 11.074 9.96147 11.2033 9.98719C11.3326 10.0129 11.4666 9.99971 11.5885 9.94925C11.7103 9.89879 11.8144 9.81335 11.8876 9.70371C11.9609 9.59408 12 9.46519 12 9.33333C12 9.15652 11.9298 8.98695 11.8047 8.86193C11.6797 8.7369 11.5101 8.66667 11.3333 8.66667ZM12 12C12 11.8232 11.9298 11.6536 11.8047 11.5286C11.6797 11.4036 11.5101 11.3333 11.3333 11.3333H8.66667C8.48986 11.3333 8.32029 11.4036 8.19526 11.5286C8.07024 11.6536 8 11.8232 8 12C8 12.1768 8.07024 12.3464 8.19526 12.4714C8.32029 12.5964 8.48986 12.6667 8.66667 12.6667H11.3333C11.5101 12.6667 11.6797 12.5964 11.8047 12.4714C11.9298 12.3464 12 12.1768 12 12Z" fill="#A30401"/>
</svg>
