<svg width="9" height="9" viewBox="0 0 9 9" fill="none" xmlns="http://www.w3.org/2000/svg">
<g clip-path="url(#clip0_172_2815)">
<path d="M7.80417 1.48653H6.65211C6.56586 1.06711 6.33765 0.690249 6.00594 0.419468C5.67423 0.148686 5.25931 0.000540548 4.83112 0L4.08785 0C3.65966 0.000540548 3.24474 0.148686 2.91303 0.419468C2.58132 0.690249 2.35311 1.06711 2.26686 1.48653H1.1148C1.01623 1.48653 0.921707 1.52568 0.852013 1.59538C0.782318 1.66507 0.743164 1.7596 0.743164 1.85816C0.743164 1.95672 0.782318 2.05125 0.852013 2.12094C0.921707 2.19064 1.01623 2.22979 1.1148 2.22979H1.48643V7.06101C1.48702 7.55364 1.68298 8.02593 2.03132 8.37427C2.37967 8.72262 2.85195 8.91858 3.34459 8.91917H5.57438C6.06701 8.91858 6.5393 8.72262 6.88765 8.37427C7.23599 8.02593 7.43195 7.55364 7.43254 7.06101V2.22979H7.80417C7.90273 2.22979 7.99726 2.19064 8.06696 2.12094C8.13665 2.05125 8.1758 1.95672 8.1758 1.85816C8.1758 1.7596 8.13665 1.66507 8.06696 1.59538C7.99726 1.52568 7.90273 1.48653 7.80417 1.48653V1.48653ZM4.08785 0.743264H4.83112C5.06163 0.743545 5.28641 0.815129 5.47464 0.948198C5.66287 1.08127 5.80532 1.26931 5.88246 1.48653H3.0365C3.11365 1.26931 3.2561 1.08127 3.44433 0.948198C3.63256 0.815129 3.85734 0.743545 4.08785 0.743264V0.743264ZM6.68928 7.06101C6.68928 7.3567 6.57181 7.64027 6.36273 7.84936C6.15365 8.05844 5.87007 8.1759 5.57438 8.1759H3.34459C3.0489 8.1759 2.76532 8.05844 2.55624 7.84936C2.34715 7.64027 2.22969 7.3567 2.22969 7.06101V2.22979H6.68928V7.06101Z" fill="#A30401"/>
<path d="M3.71636 6.68911C3.81492 6.68911 3.90945 6.64996 3.97914 6.58027C4.04884 6.51057 4.08799 6.41605 4.08799 6.31748V4.0877C4.08799 3.98913 4.04884 3.89461 3.97914 3.82491C3.90945 3.75522 3.81492 3.71606 3.71636 3.71606C3.6178 3.71606 3.52327 3.75522 3.45357 3.82491C3.38388 3.89461 3.34473 3.98913 3.34473 4.0877V6.31748C3.34473 6.41605 3.38388 6.51057 3.45357 6.58027C3.52327 6.64996 3.6178 6.68911 3.71636 6.68911Z" fill="#A30401"/>
<path d="M5.20269 6.68911C5.30125 6.68911 5.39578 6.64996 5.46547 6.58027C5.53517 6.51057 5.57432 6.41605 5.57432 6.31748V4.0877C5.57432 3.98913 5.53517 3.89461 5.46547 3.82491C5.39578 3.75522 5.30125 3.71606 5.20269 3.71606C5.10413 3.71606 5.0096 3.75522 4.9399 3.82491C4.87021 3.89461 4.83105 3.98913 4.83105 4.0877V6.31748C4.83105 6.41605 4.87021 6.51057 4.9399 6.58027C5.0096 6.64996 5.10413 6.68911 5.20269 6.68911Z" fill="#A30401"/>
</g>
<defs>
<clipPath id="clip0_172_2815">
<rect width="8.91917" height="8.91917" fill="white"/>
</clipPath>
</defs>
</svg>
