<svg width="12" height="12" viewBox="0 0 12 12" fill="none" xmlns="http://www.w3.org/2000/svg">
<g clip-path="url(#clip0_150_314)">
<path d="M2.51124 5.87143C2.51124 5.37753 2.11085 4.97714 1.61695 4.97714C1.12304 4.97714 0.722656 5.37753 0.722656 5.87143C0.722656 6.36533 1.12304 6.76572 1.61695 6.76572C2.11085 6.76572 2.51124 6.36533 2.51124 5.87143Z" fill="#374957"/>
<path d="M6.98291 5.87143C6.98291 5.37753 6.58253 4.97714 6.08862 4.97714C5.59472 4.97714 5.19434 5.37753 5.19434 5.87143C5.19434 6.36533 5.59472 6.76572 6.08862 6.76572C6.58253 6.76572 6.98291 6.36533 6.98291 5.87143Z" fill="#374957"/>
<path d="M11.4544 5.87143C11.4544 5.37753 11.054 4.97714 10.5601 4.97714C10.0662 4.97714 9.66577 5.37753 9.66577 5.87143C9.66577 6.36533 10.0662 6.76572 10.5601 6.76572C11.054 6.76572 11.4544 6.36533 11.4544 5.87143Z" fill="#374957"/>
</g>
<defs>
<clipPath id="clip0_150_314">
<rect width="10.7315" height="10.7315" fill="white" transform="matrix(0 -1 1 0 0.722656 11.2372)"/>
</clipPath>
</defs>
</svg>
