<svg width="18" height="18" viewBox="0 0 18 18" fill="none" xmlns="http://www.w3.org/2000/svg">
<path d="M14.0324 6.15752C13.9627 6.08722 13.8798 6.03143 13.7884 5.99335C13.697 5.95527 13.5989 5.93567 13.4999 5.93567C13.4009 5.93567 13.3029 5.95527 13.2115 5.99335C13.1201 6.03143 13.0371 6.08722 12.9674 6.15752L9.53242 9.59251C9.4627 9.66281 9.37975 9.7186 9.28836 9.75668C9.19696 9.79475 9.09893 9.81436 8.99992 9.81436C8.90091 9.81436 8.80289 9.79475 8.71149 9.75668C8.6201 9.7186 8.53715 9.66281 8.46742 9.59251L5.03242 6.15752C4.9627 6.08722 4.87975 6.03143 4.78836 5.99335C4.69696 5.95527 4.59893 5.93567 4.49992 5.93567C4.40091 5.93567 4.30288 5.95527 4.21149 5.99335C4.1201 6.03143 4.03715 6.08722 3.96742 6.15752C3.82773 6.29804 3.74933 6.48813 3.74933 6.68627C3.74933 6.8844 3.82773 7.07449 3.96742 7.21501L7.40992 10.6575C7.8318 11.0789 8.40367 11.3155 8.99992 11.3155C9.59618 11.3155 10.168 11.0789 10.5899 10.6575L14.0324 7.21501C14.1721 7.07449 14.2505 6.8844 14.2505 6.68627C14.2505 6.48813 14.1721 6.29804 14.0324 6.15752Z" fill="#A30401"/>
</svg>
