<svg width="12" height="7" viewBox="0 0 12 7" fill="none" xmlns="http://www.w3.org/2000/svg">
<path d="M11.194 1.09404C11.1243 1.02374 11.0413 0.967949 10.95 0.929872C10.8586 0.891796 10.7605 0.872192 10.6615 0.872192C10.5625 0.872192 10.4645 0.891796 10.3731 0.929872C10.2817 0.967949 10.1987 1.02374 10.129 1.09404L6.69402 4.52903C6.6243 4.59933 6.54134 4.65513 6.44995 4.6932C6.35856 4.73128 6.26053 4.75088 6.16152 4.75088C6.06251 4.75088 5.96448 4.73128 5.87309 4.6932C5.78169 4.65513 5.69874 4.59933 5.62902 4.52903L2.19402 1.09404C2.1243 1.02374 2.04134 0.967949 1.94995 0.929872C1.85856 0.891796 1.76053 0.872192 1.66152 0.872192C1.56251 0.872192 1.46448 0.891796 1.37308 0.929872C1.28169 0.967949 1.19874 1.02374 1.12902 1.09404C0.989329 1.23456 0.910923 1.42465 0.910923 1.62279C0.910923 1.82093 0.989329 2.01102 1.12902 2.15154L4.57152 5.59403C4.99339 6.01538 5.56527 6.25205 6.16152 6.25205C6.75777 6.25205 7.32964 6.01538 7.75152 5.59403L11.194 2.15154C11.3337 2.01102 11.4121 1.82093 11.4121 1.62279C11.4121 1.42465 11.3337 1.23456 11.194 1.09404V1.09404Z" fill="#374957"/>
</svg>
