<svg width="9" height="10" viewBox="0 0 9 10" fill="none" xmlns="http://www.w3.org/2000/svg">
<g clip-path="url(#clip0_172_2813)">
<path d="M6.94853 0.585817L2.41717 5.11718C2.2441 5.28931 2.1069 5.49407 2.0135 5.71959C1.9201 5.94511 1.87237 6.18692 1.87305 6.43102V6.93017C1.87305 7.02874 1.91221 7.12327 1.98191 7.19297C2.05161 7.26268 2.14615 7.30183 2.24472 7.30183H2.74387C2.98797 7.30252 3.22978 7.25479 3.4553 7.16139C3.68082 7.06799 3.88558 6.93078 4.05771 6.75771L8.58907 2.22635C8.80627 2.00862 8.92825 1.71363 8.92825 1.40609C8.92825 1.09854 8.80627 0.80355 8.58907 0.585817C8.36818 0.374671 8.07438 0.256836 7.7688 0.256836C7.46323 0.256836 7.16942 0.374671 6.94853 0.585817V0.585817ZM8.06353 1.70082L3.53217 6.23218C3.3226 6.44047 3.03935 6.55773 2.74387 6.5585H2.61639V6.43102C2.61716 6.13554 2.73442 5.85229 2.94271 5.64271L7.47407 1.11135C7.55345 1.03552 7.65902 0.993198 7.7688 0.993198C7.87859 0.993198 7.98415 1.03552 8.06353 1.11135C8.14156 1.18959 8.18538 1.29559 8.18538 1.40609C8.18538 1.51658 8.14156 1.62258 8.06353 1.70082V1.70082Z" fill="#A30401"/>
<path d="M8.56249 3.57719C8.46392 3.57719 8.36939 3.61634 8.29969 3.68604C8.22998 3.75575 8.19083 3.85028 8.19083 3.94885V5.81499H6.70416C6.40844 5.81499 6.12484 5.93246 5.91574 6.14157C5.70663 6.35067 5.58916 6.63427 5.58916 6.92999V8.41666H1.87249C1.57678 8.41666 1.29317 8.29918 1.08407 8.09008C0.874966 7.88098 0.757494 7.59737 0.757494 7.30166V2.09832C0.757494 1.80261 0.874966 1.519 1.08407 1.3099C1.29317 1.1008 1.57678 0.983324 1.87249 0.983324H5.2331C5.33168 0.983324 5.42621 0.944166 5.49591 0.874465C5.56561 0.804764 5.60477 0.710229 5.60477 0.611657C5.60477 0.513085 5.56561 0.41855 5.49591 0.348849C5.42621 0.279148 5.33168 0.23999 5.2331 0.23999H1.87249C1.37981 0.24058 0.907483 0.436558 0.559105 0.784935C0.210728 1.13331 0.0147503 1.60564 0.0141602 2.09832L0.0141602 7.30166C0.0147503 7.79434 0.210728 8.26667 0.559105 8.61505C0.907483 8.96342 1.37981 9.1594 1.87249 9.15999H6.08831C6.33246 9.16069 6.57433 9.11296 6.79991 9.01956C7.0255 8.92616 7.23032 8.78895 7.40252 8.61587L8.38967 7.62798C8.56277 7.45585 8.70002 7.2511 8.79349 7.02559C8.88695 6.80007 8.93476 6.55826 8.93416 6.31414V3.94885C8.93416 3.85028 8.895 3.75575 8.8253 3.68604C8.7556 3.61634 8.66107 3.57719 8.56249 3.57719ZM6.87699 8.09033C6.72758 8.23937 6.53865 8.34255 6.33249 8.38767V6.92999C6.33249 6.83142 6.37165 6.73688 6.44135 6.66718C6.51105 6.59748 6.60559 6.55832 6.70416 6.55832H8.16295C8.11697 6.76405 8.01392 6.95264 7.86562 7.10244L6.87699 8.09033Z" fill="#A30401"/>
</g>
<defs>
<clipPath id="clip0_172_2813">
<rect width="8.92" height="8.92" fill="white" transform="translate(0.0141602 0.23999)"/>
</clipPath>
</defs>
</svg>
