<svg width="16" height="16" viewBox="0 0 16 16" fill="none" xmlns="http://www.w3.org/2000/svg">
<g clip-path="url(#clip0_101_3874)">
<path d="M11.5 13C11.3674 13 11.2402 13.0527 11.1464 13.1464C11.0527 13.2402 11 13.3674 11 13.5V15H1V3H3V3.5C3 3.63261 3.05268 3.75979 3.14645 3.85355C3.24021 3.94732 3.36739 4 3.5 4H8.5C8.63261 4 8.75979 3.94732 8.85355 3.85355C8.94732 3.75979 9 3.63261 9 3.5V3H11V3.5C11 3.63261 11.0527 3.75979 11.1464 3.85355C11.2402 3.94732 11.3674 4 11.5 4C11.6326 4 11.7598 3.94732 11.8536 3.85355C11.9473 3.75979 12 3.63261 12 3.5V2.5C12 2.36739 11.9473 2.24021 11.8536 2.14645C11.7598 2.05268 11.6326 2 11.5 2H9V1.5C9 1.10218 8.84197 0.720645 8.56066 0.439341C8.27936 0.158036 7.89782 0 7.5 0H4.5C4.10218 0 3.72064 0.158036 3.43934 0.439341C3.15803 0.720645 3 1.10218 3 1.5V2H0.5C0.367392 2 0.240214 2.05268 0.146446 2.14645C0.052678 2.24021 0 2.36739 0 2.5V15.5C0 15.6326 0.052678 15.7598 0.146446 15.8536C0.240214 15.9473 0.367392 16 0.5 16H11.5C11.6326 16 11.7598 15.9473 11.8536 15.8536C11.9473 15.7598 12 15.6326 12 15.5V13.5C12 13.3674 11.9473 13.2402 11.8536 13.1464C11.7598 13.0527 11.6326 13 11.5 13ZM4 1.5C4 1.36739 4.05268 1.24021 4.14645 1.14645C4.24021 1.05268 4.36739 1 4.5 1H7.5C7.63261 1 7.75979 1.05268 7.85355 1.14645C7.94732 1.24021 8 1.36739 8 1.5V3H4V1.5ZM15.854 6.146L13.854 4.146C13.8076 4.09944 13.7524 4.0625 13.6916 4.03729C13.6309 4.01208 13.5658 3.99911 13.5 3.99911C13.4342 3.99911 13.3691 4.01208 13.3084 4.03729C13.2476 4.0625 13.1924 4.09944 13.146 4.146L7.146 10.146C7.0996 10.1925 7.06282 10.2477 7.03777 10.3085C7.01272 10.3692 6.99988 10.4343 7 10.5V12.5C7 12.6326 7.05268 12.7598 7.14645 12.8536C7.24021 12.9473 7.36739 13 7.5 13H9.5C9.56571 13.0001 9.63079 12.9873 9.69153 12.9622C9.75227 12.9372 9.80748 12.9004 9.854 12.854L15.854 6.854C15.9006 6.80755 15.9375 6.75238 15.9627 6.69164C15.9879 6.63089 16.0009 6.56577 16.0009 6.5C16.0009 6.43423 15.9879 6.36911 15.9627 6.30836C15.9375 6.24762 15.9006 6.19245 15.854 6.146ZM8 12V10.707L13.5 5.207L14.793 6.5L9.293 12H8ZM6 12.5C6 12.6326 5.94732 12.7598 5.85355 12.8536C5.75979 12.9473 5.63261 13 5.5 13H3.5C3.36739 13 3.24021 12.9473 3.14645 12.8536C3.05268 12.7598 3 12.6326 3 12.5C3 12.3674 3.05268 12.2402 3.14645 12.1464C3.24021 12.0527 3.36739 12 3.5 12H5.5C5.63261 12 5.75979 12.0527 5.85355 12.1464C5.94732 12.2402 6 12.3674 6 12.5ZM6 9.5C6 9.63261 5.94732 9.75979 5.85355 9.85355C5.75979 9.94732 5.63261 10 5.5 10H3.5C3.36739 10 3.24021 9.94732 3.14645 9.85355C3.05268 9.75979 3 9.63261 3 9.5C3 9.36739 3.05268 9.24021 3.14645 9.14645C3.24021 9.05268 3.36739 9 3.5 9H5.5C5.63261 9 5.75979 9.05268 5.85355 9.14645C5.94732 9.24021 6 9.36739 6 9.5ZM8.5 7H3.5C3.36739 7 3.24021 6.94732 3.14645 6.85355C3.05268 6.75979 3 6.63261 3 6.5C3 6.36739 3.05268 6.24021 3.14645 6.14645C3.24021 6.05268 3.36739 6 3.5 6H8.5C8.63261 6 8.75979 6.05268 8.85355 6.14645C8.94732 6.24021 9 6.36739 9 6.5C9 6.63261 8.94732 6.75979 8.85355 6.85355C8.75979 6.94732 8.63261 7 8.5 7Z" fill="#A30401"/>
</g>
<defs>
<clipPath id="clip0_101_3874">
<rect width="16" height="16" fill="white"/>
</clipPath>
</defs>
</svg>
