<svg width="16" height="16" viewBox="0 0 16 16" fill="none" xmlns="http://www.w3.org/2000/svg">
<g clip-path="url(#clip0_101_3842)">
<path d="M5.40616 7.89978C3.52616 8.03312 3.53283 10.7665 5.40616 10.8998H9.85282C10.3928 10.9065 10.9128 10.6998 11.3128 10.3398C12.6328 9.18645 11.9262 6.87312 10.1928 6.65309C9.57282 2.89309 4.13949 4.31976 5.42616 7.89978" fill="#A30401"/>
<path d="M6.00004 15.1667C3.15337 15.1667 0.833374 12.8467 0.833374 10C0.833374 9.72667 1.06004 9.5 1.33337 9.5C1.60671 9.5 1.83337 9.72667 1.83337 10C1.83337 11.9733 3.20671 13.6267 5.05337 14.06L4.87337 13.76C4.73337 13.52 4.80671 13.2133 5.04671 13.0733C5.28004 12.9333 5.59337 13.0067 5.73337 13.2467L6.43337 14.4133C6.52671 14.5667 6.52671 14.76 6.44004 14.9133C6.34671 15.0667 6.18004 15.1667 6.00004 15.1667Z" fill="#A30401"/>
<path d="M14.667 6.49992C14.3936 6.49992 14.167 6.27325 14.167 5.99992C14.167 4.02659 12.7936 2.37325 10.947 1.93992L11.1269 2.23992C11.2669 2.47992 11.1936 2.78659 10.9536 2.92658C10.7203 3.06659 10.407 2.99325 10.267 2.75325L9.56695 1.58659C9.47362 1.43325 9.47362 1.23992 9.56028 1.08659C9.65362 0.933252 9.82028 0.833252 10.0003 0.833252C12.8469 0.833252 15.167 3.15325 15.167 5.99992C15.167 6.27325 14.9403 6.49992 14.667 6.49992Z" fill="#A30401"/>
</g>
<defs>
<clipPath id="clip0_101_3842">
<rect width="16" height="16" fill="white"/>
</clipPath>
</defs>
</svg>
