<svg width="324" height="216" viewBox="0 0 324 216" fill="none" xmlns="http://www.w3.org/2000/svg">
<g clip-path="url(#clip0_172_3297)">
<path d="M159.946 184.552C204.184 184.552 240.045 148.69 240.045 104.453C240.045 60.2149 204.184 24.3533 159.946 24.3533C115.708 24.3533 79.8467 60.2149 79.8467 104.453C79.8467 148.69 115.708 184.552 159.946 184.552Z" fill="url(#paint0_linear_172_3297)"/>
<path fill-rule="evenodd" clip-rule="evenodd" d="M221.771 105.693H69.748C55.4776 105.693 56.1325 93.888 60.7937 89.7746C65.5713 85.5583 75.0112 87.2686 75.0112 87.2686C75.0112 87.2686 77.8217 79.3278 87.0723 75.4621C95.2551 72.0424 103.827 73.6697 103.827 73.6697C103.827 73.6697 103.827 68.22 109.066 63.7066C114.306 59.1926 121.292 59.6318 121.292 59.6318C121.292 59.6318 126.094 29.5808 158.184 29.5808C190.275 29.5808 193.986 57.8765 193.986 57.8765C193.986 57.8765 201.19 57.8765 206.43 62.7023C211.669 67.528 212.324 73.0112 212.324 73.0112C212.324 73.0112 229.845 70.6388 235.028 85.8258C238.116 94.8772 231.771 105.693 221.771 105.693Z" fill="white" stroke="#E1E4E5" stroke-width="1.44"/>
<path fill-rule="evenodd" clip-rule="evenodd" d="M175.04 135.147H126.329C121.973 135.147 120.097 129.513 123.661 127.015C123.71 126.979 123.761 126.943 123.811 126.908C128.886 123.424 135.546 123.741 135.546 123.741C135.546 123.741 136.496 104.888 154.414 104.888C170.613 104.888 177.073 120.772 179.403 129.524C180.16 132.367 177.985 135.147 175.04 135.147Z" fill="white" stroke="#E1E4E5" stroke-width="1.44"/>
<path fill-rule="evenodd" clip-rule="evenodd" d="M111.544 102.939C111.544 131.359 142.505 161.996 153.799 172.228C156.139 174.348 159.579 174.348 161.919 172.228C173.207 161.996 204.168 131.359 204.168 102.939C204.168 78.0297 183.432 57.8369 157.856 57.8369C132.279 57.8369 111.544 78.0297 111.544 102.939Z" fill="#A30401" stroke="#A30401" stroke-width="8.28" stroke-linecap="round" stroke-linejoin="round"/>
<path d="M157.856 87.3079V124.357M176.38 105.833H139.331" stroke="white" stroke-width="8.28" stroke-linecap="round" stroke-linejoin="round"/>
<path fill-rule="evenodd" clip-rule="evenodd" d="M57.423 159.159H124.589C130.027 159.159 132.372 152.206 127.921 149.122C127.859 149.079 127.795 149.035 127.732 148.992C121.395 144.691 113.079 145.081 113.079 145.081C113.079 145.081 111.891 121.817 89.5152 121.817C78.4528 121.817 69.5125 140.488 69.5125 140.488C69.5125 140.488 54.4634 140.488 51.973 152.219C51.2202 155.773 53.7442 159.159 57.423 159.159ZM212.85 146.463H267.543C271.971 146.463 273.881 140.762 270.256 138.232L270.102 138.125C264.942 134.599 258.171 134.919 258.171 134.919C258.171 134.919 257.203 115.842 238.983 115.842C229.975 115.842 222.695 131.152 222.695 131.152C222.695 131.152 210.441 131.152 208.413 140.772C207.8 143.686 209.855 146.463 212.85 146.463ZM229.148 189.033H183.411C179.709 189.033 178.112 184.375 181.143 182.308C181.185 182.279 181.228 182.25 181.271 182.221C185.586 179.339 191.249 179.601 191.249 179.601C191.249 179.601 192.058 164.013 207.295 164.013C214.828 164.013 220.916 176.523 220.916 176.523C220.916 176.523 231.164 176.523 232.86 184.383C233.372 186.764 231.654 189.033 229.148 189.033ZM134.297 191.647H93.0382C89.6981 191.647 88.2574 187.406 90.9919 185.524L91.1075 185.445C95.0002 182.821 100.109 183.06 100.109 183.06C100.109 183.06 100.839 168.868 114.584 168.868C121.379 168.868 126.871 180.257 126.871 180.257C126.871 180.257 136.115 180.257 137.645 187.413C138.108 189.581 136.557 191.647 134.297 191.647Z" fill="white" stroke="#E1E4E5" stroke-width="1.44"/>
</g>
<defs>
<linearGradient id="paint0_linear_172_3297" x1="163.362" y1="274.369" x2="158.422" y2="-149.916" gradientUnits="userSpaceOnUse">
<stop stop-color="white"/>
<stop offset="1" stop-color="#EEEEEE"/>
</linearGradient>
<clipPath id="clip0_172_3297">
<rect width="324" height="216" fill="white"/>
</clipPath>
</defs>
</svg>
