<svg width="16" height="16" viewBox="0 0 16 16" fill="none" xmlns="http://www.w3.org/2000/svg">
<g clip-path="url(#clip0_101_3889)">
<path d="M15 9.5H9V10.5H15V9.5Z" fill="#A30401"/>
<path d="M15 11.5H9V12.5H15V11.5Z" fill="#A30401"/>
<path d="M13 13.5H9V14.5H13V13.5Z" fill="#A30401"/>
<path d="M12 2C11.5578 2.00134 11.1285 2.14933 10.7795 2.42077C10.4304 2.69221 10.1812 3.07178 10.071 3.5H5.99997V2H1.99997V6H5.99997V4.5H10.071C10.1176 4.67896 10.1891 4.85048 10.2834 5.0095L5.00947 10.2835C4.70464 10.0998 4.35586 10.0019 3.99997 10C3.62559 9.99859 3.25832 10.1023 2.93997 10.2993C2.62161 10.4963 2.36494 10.7787 2.19917 11.1144C2.0334 11.4501 1.96518 11.8256 2.00227 12.1981C2.03936 12.5707 2.18028 12.9253 2.40898 13.2217C2.63769 13.5182 2.945 13.7444 3.29595 13.8748C3.64691 14.0052 4.02741 14.0344 4.39416 13.9592C4.76092 13.884 5.0992 13.7074 5.37053 13.4494C5.64185 13.1914 5.83532 12.8625 5.92892 12.5H7.99997V11.5H5.92892C5.88238 11.321 5.81088 11.1495 5.71652 10.9905L10.9905 5.71655C11.2953 5.90022 11.6441 5.99815 12 6C12.5304 6 13.0391 5.78929 13.4142 5.41421C13.7893 5.03914 14 4.53043 14 4C14 3.46957 13.7893 2.96086 13.4142 2.58579C13.0391 2.21071 12.5304 2 12 2ZM4.99997 5H2.99997V3H4.99997V5ZM3.99997 13C3.80219 13 3.60885 12.9414 3.4444 12.8315C3.27995 12.7216 3.15178 12.5654 3.07609 12.3827C3.0004 12.2 2.9806 11.9989 3.01919 11.8049C3.05777 11.6109 3.15301 11.4327 3.29286 11.2929C3.43272 11.153 3.6109 11.0578 3.80488 11.0192C3.99886 10.9806 4.19993 11.0004 4.38265 11.0761C4.56538 11.1518 4.72156 11.28 4.83144 11.4444C4.94132 11.6089 4.99997 11.8022 4.99997 12C4.99967 12.2651 4.89421 12.5193 4.70674 12.7068C4.51927 12.8942 4.26509 12.9997 3.99997 13ZM12 5C11.8022 5 11.6088 4.94135 11.4444 4.83147C11.28 4.72159 11.1518 4.56541 11.0761 4.38268C11.0004 4.19996 10.9806 3.99889 11.0192 3.80491C11.0578 3.61093 11.153 3.43275 11.2929 3.29289C11.4327 3.15304 11.6109 3.0578 11.8049 3.01921C11.9989 2.98063 12.1999 3.00043 12.3827 3.07612C12.5654 3.15181 12.7216 3.27998 12.8314 3.44443C12.9413 3.60888 13 3.80222 13 4C12.9997 4.26512 12.8942 4.5193 12.7067 4.70677C12.5193 4.89424 12.2651 4.9997 12 5Z" fill="#A30401"/>
</g>
<defs>
<clipPath id="clip0_101_3889">
<rect width="16" height="16" fill="white"/>
</clipPath>
</defs>
</svg>
