<svg width="282" height="188" viewBox="0 0 282 188" fill="none" xmlns="http://www.w3.org/2000/svg">
<g clip-path="url(#clip0_147_1875)">
<path fill-rule="evenodd" clip-rule="evenodd" d="M190.272 45.7721L165.484 20.9915C162.196 17.7052 157.738 15.8584 153.089 15.8569H90.224C80.5383 15.8569 72.6934 23.6994 72.6934 33.3817V156.057C72.6934 165.739 80.5383 173.582 90.224 173.582H177.878C187.563 173.582 195.408 165.739 195.408 156.057V58.1623C195.407 53.5146 193.559 49.0578 190.272 45.7721Z" fill="white" stroke="#E1E4E5" stroke-width="1.25333"/>
<path fill-rule="evenodd" clip-rule="evenodd" d="M203.463 45.7721L178.675 20.9915C175.387 17.7051 170.929 15.8583 166.281 15.8569H103.416C93.73 15.8569 85.8848 23.6994 85.8848 33.3817V156.057C85.8848 165.739 93.73 173.582 103.416 173.582H191.069C200.755 173.582 208.6 165.739 208.6 156.057V58.1623C208.598 53.5145 206.751 49.0578 203.463 45.7721Z" fill="white" stroke="#E1E4E5" stroke-width="1.25333"/>
<path d="M191.069 165.206C186.405 166.311 181.473 162.356 181.473 162.356C181.473 162.356 184.105 156.612 188.771 155.51C193.434 154.406 198.365 158.357 198.365 158.357C198.365 158.357 195.733 164.102 191.069 165.206Z" fill="url(#paint0_linear_147_1875)"/>
<path d="M208.357 30.7966C203.559 26.6509 203.979 18.2959 203.979 18.2959C203.979 18.2959 212.18 16.6684 216.976 20.8185C221.774 24.9646 221.357 33.3152 221.357 33.3152C221.357 33.3152 213.156 34.9423 208.357 30.7966Z" fill="url(#paint1_linear_147_1875)"/>
<path d="M59.4503 106.152C55.925 109.74 49.3328 108.984 49.3328 108.984C49.3328 108.984 48.4605 102.41 51.9889 98.8242C55.5142 95.2362 62.1033 95.9904 62.1033 95.9904C62.1033 95.9904 62.9756 102.564 59.4503 106.152Z" fill="url(#paint2_linear_147_1875)"/>
<path d="M225.743 117.277C223.65 117.277 221.954 118.974 221.954 121.067C221.954 123.16 223.65 124.856 225.743 124.856C227.836 124.856 229.533 123.16 229.533 121.067C229.533 118.974 227.836 117.277 225.743 117.277Z" fill="#A30401"/>
<path d="M64.1468 139.655C61.2022 139.655 58.8152 141.965 58.8152 144.814C58.8152 147.664 61.2022 149.974 64.1468 149.974C67.0914 149.974 69.4785 147.664 69.4785 144.814C69.4785 141.965 67.0914 139.655 64.1468 139.655Z" fill="#A30401"/>
<path d="M65.1852 72.7174C64.1404 72.7174 63.2933 71.8704 63.2933 70.8255C63.2933 69.7806 64.1404 68.9336 65.1852 68.9336C66.2301 68.9336 67.0771 69.7806 67.0771 70.8255C67.0771 71.8704 66.2301 72.7174 65.1852 72.7174Z" fill="#A30401"/>
<path d="M231.702 42.9316C229.707 42.9316 228.09 41.3145 228.09 39.3198C228.09 37.3251 229.707 35.708 231.702 35.708C233.696 35.708 235.313 37.3251 235.313 39.3198C235.313 41.3145 233.696 42.9316 231.702 42.9316Z" fill="#A30401"/>
<path d="M218.344 159.145C216.55 159.145 215.096 157.69 215.096 155.896C215.096 154.102 216.55 152.648 218.344 152.648C220.138 152.648 221.593 154.102 221.593 155.896C221.593 157.69 220.138 159.145 218.344 159.145Z" fill="#E1E4E5"/>
<path d="M97.5559 162.635C96.8911 162.635 96.3521 162.096 96.3521 161.431C96.3521 160.767 96.8911 160.228 97.5559 160.228C98.2208 160.228 98.7598 160.767 98.7598 161.431C98.7598 162.096 98.2208 162.635 97.5559 162.635Z" fill="#E1E4E5"/>
<path d="M193.355 22.9061C192.405 22.9061 191.635 22.1361 191.635 21.1862C191.635 20.2363 192.405 19.4663 193.355 19.4663C194.305 19.4663 195.075 20.2363 195.075 21.1862C195.075 22.1361 194.305 22.9061 193.355 22.9061Z" fill="#E1E4E5"/>
<path d="M96.7854 98.689C97.0257 99.5856 96.4936 100.507 95.597 100.747C94.7004 100.988 93.7788 100.456 93.5385 99.559C93.2983 98.6624 93.8304 97.7408 94.727 97.5005C95.6236 97.2603 96.5452 97.7924 96.7854 98.689Z" fill="#E1E4E5"/>
<path d="M79.0023 44.8923C77.7675 44.8923 76.7664 43.8912 76.7664 42.6564C76.7664 41.4215 77.7675 40.4204 79.0023 40.4204C80.2372 40.4204 81.2383 41.4215 81.2383 42.6564C81.2383 43.8912 80.2372 44.8923 79.0023 44.8923Z" fill="#E1E4E5"/>
<path d="M222.952 73.47C222.002 73.47 221.232 72.854 221.232 72.0941C221.232 71.3342 222.002 70.7183 222.952 70.7183C223.902 70.7183 224.672 71.3342 224.672 72.0941C224.672 72.854 223.902 73.47 222.952 73.47Z" fill="#E1E4E5"/>
<path d="M137.58 32.5901C138.08 34.4562 136.973 36.3743 135.107 36.8743C133.24 37.3743 131.322 36.2669 130.822 34.4008C130.322 32.5347 131.43 30.6166 133.296 30.1166C135.162 29.6166 137.08 30.724 137.58 32.5901Z" fill="#E1E4E5"/>
<path d="M225.749 91.2906H225.794C226.06 95.0657 228.868 95.124 228.868 95.124C228.868 95.124 225.772 95.1844 225.772 99.5463C225.772 95.1844 222.676 95.124 222.676 95.124C222.676 95.124 225.482 95.0657 225.749 91.2906ZM60.3409 25.6934H60.3988C60.7404 30.6447 64.3409 30.7208 64.3409 30.7208C64.3409 30.7208 60.3706 30.8001 60.3706 36.5212C60.3706 30.8001 56.4004 30.7208 56.4004 30.7208C56.4004 30.7208 59.9993 30.6447 60.3409 25.6934Z" fill="#E1E4E5"/>
<path d="M124.611 56.7793C124.611 50.1535 119.24 44.7822 112.614 44.7822C105.988 44.7822 100.617 50.1535 100.617 56.7793C100.617 63.4051 105.988 68.7764 112.614 68.7764C119.24 68.7764 124.611 63.4051 124.611 56.7793Z" fill="#A30401"/>
<path fill-rule="evenodd" clip-rule="evenodd" d="M118.067 61.8115V62.6137C118.067 63.0567 117.712 63.4161 117.275 63.4161H107.775C107.338 63.4161 106.983 63.0567 106.983 62.6137V61.7987C106.983 59.3713 109.721 57.794 112.525 57.794C115.329 57.794 118.067 59.3719 118.067 61.7987M114.512 50.7468C114.782 51.006 114.997 51.3162 115.145 51.6594C115.292 52.0026 115.37 52.3718 115.374 52.7455C115.378 53.1192 115.307 53.4898 115.165 53.8357C115.024 54.1817 114.815 54.4959 114.551 54.7602C114.286 55.0244 113.972 55.2333 113.626 55.3746C113.28 55.5159 112.909 55.5869 112.536 55.5833C112.162 55.5797 111.793 55.5016 111.45 55.3536C111.107 55.2056 110.796 54.9907 110.537 54.7214C110.027 54.1909 109.745 53.4813 109.752 52.745C109.759 52.0088 110.055 51.3047 110.575 50.7842C111.096 50.2636 111.8 49.9681 112.536 49.9611C113.272 49.9541 113.982 50.2362 114.512 50.7468Z" fill="white"/>
<path d="M182.71 48.6992H133.093C132.349 48.6992 131.746 49.3021 131.746 50.0458C131.746 50.7894 132.349 51.3923 133.093 51.3923H182.71C183.454 51.3923 184.056 50.7894 184.056 50.0458C184.056 49.3021 183.454 48.6992 182.71 48.6992Z" fill="#E1E4E5"/>
<path d="M182.699 77.5752H103.029C102.331 77.5752 101.766 78.1408 101.766 78.8384C101.766 79.536 102.331 80.1016 103.029 80.1016H182.699C183.397 80.1016 183.962 79.536 183.962 78.8384C183.962 78.1408 183.397 77.5752 182.699 77.5752Z" fill="#E1E4E5"/>
<path d="M182.699 106.45H103.029C102.331 106.45 101.766 107.015 101.766 107.713C101.766 108.411 102.331 108.976 103.029 108.976H182.699C183.397 108.976 183.962 108.411 183.962 107.713C183.962 107.015 183.397 106.45 182.699 106.45Z" fill="#E1E4E5"/>
<path d="M182.699 135.323H103.029C102.331 135.323 101.766 135.889 101.766 136.586C101.766 137.284 102.331 137.85 103.029 137.85H182.699C183.397 137.85 183.962 137.284 183.962 136.586C183.962 135.889 183.397 135.323 182.699 135.323Z" fill="#E1E4E5"/>
<path d="M182.71 55.3101H133.093C132.349 55.3101 131.746 55.9129 131.746 56.6566C131.746 57.4003 132.349 58.0032 133.093 58.0032H182.71C183.454 58.0032 184.056 57.4003 184.056 56.6566C184.056 55.9129 183.454 55.3101 182.71 55.3101Z" fill="#E1E4E5"/>
<path d="M182.519 84.0718H103.209C102.412 84.0718 101.766 84.7181 101.766 85.5155C101.766 86.3128 102.412 86.9591 103.209 86.9591H182.519C183.316 86.9591 183.962 86.3128 183.962 85.5155C183.962 84.7181 183.316 84.0718 182.519 84.0718Z" fill="#E1E4E5"/>
<path d="M182.519 112.946H103.209C102.412 112.946 101.766 113.593 101.766 114.39C101.766 115.187 102.412 115.834 103.209 115.834H182.519C183.316 115.834 183.962 115.187 183.962 114.39C183.962 113.593 183.316 112.946 182.519 112.946Z" fill="#E1E4E5"/>
<path d="M182.519 141.82H103.209C102.412 141.82 101.766 142.467 101.766 143.264C101.766 144.061 102.412 144.708 103.209 144.708H182.519C183.316 144.708 183.962 144.061 183.962 143.264C183.962 142.467 183.316 141.82 182.519 141.82Z" fill="#E1E4E5"/>
<path d="M182.71 61.9204H133.093C132.349 61.9204 131.746 62.5233 131.746 63.267C131.746 64.0106 132.349 64.6135 133.093 64.6135H182.71C183.454 64.6135 184.056 64.0106 184.056 63.267C184.056 62.5233 183.454 61.9204 182.71 61.9204Z" fill="#E1E4E5"/>
<path d="M182.699 90.9297H103.029C102.331 90.9297 101.766 91.4953 101.766 92.1929C101.766 92.8905 102.331 93.4561 103.029 93.4561H182.699C183.397 93.4561 183.962 92.8905 183.962 92.1929C183.962 91.4953 183.397 90.9297 182.699 90.9297Z" fill="#E1E4E5"/>
<path d="M182.699 119.804H103.029C102.331 119.804 101.766 120.37 101.766 121.067C101.766 121.765 102.331 122.331 103.029 122.331H182.699C183.397 122.331 183.962 121.765 183.962 121.067C183.962 120.37 183.397 119.804 182.699 119.804Z" fill="#E1E4E5"/>
<path d="M182.699 148.678H103.029C102.331 148.678 101.766 149.243 101.766 149.941C101.766 150.639 102.331 151.204 103.029 151.204H182.699C183.397 151.204 183.962 150.639 183.962 149.941C183.962 149.243 183.397 148.678 182.699 148.678Z" fill="#E1E4E5"/>
</g>
<defs>
<linearGradient id="paint0_linear_147_1875" x1="173.507" y1="167.954" x2="214.333" y2="148.666" gradientUnits="userSpaceOnUse">
<stop stop-color="white"/>
<stop offset="1" stop-color="#EEEEEE"/>
</linearGradient>
<linearGradient id="paint1_linear_147_1875" x1="191.804" y1="14.0891" x2="244.123" y2="42.9323" gradientUnits="userSpaceOnUse">
<stop stop-color="white"/>
<stop offset="1" stop-color="#EEEEEE"/>
</linearGradient>
<linearGradient id="paint2_linear_147_1875" x1="45.3851" y1="118.408" x2="70.8707" y2="78.4572" gradientUnits="userSpaceOnUse">
<stop stop-color="white"/>
<stop offset="1" stop-color="#EEEEEE"/>
</linearGradient>
<clipPath id="clip0_147_1875">
<rect width="282" height="188" fill="white"/>
</clipPath>
</defs>
</svg>
