<svg width="16" height="16" viewBox="0 0 16 16" fill="none" xmlns="http://www.w3.org/2000/svg">
<path d="M7.99996 10.0001L9.99996 8.00008M9.99996 8.00008L7.99996 6.00008M9.99996 8.00008H2.66663M5.99996 4.83247V4.80021C5.99996 4.05347 5.99996 3.67983 6.14529 3.39461C6.27311 3.14373 6.47694 2.9399 6.72783 2.81207C7.01303 2.66675 7.38669 2.66675 8.13343 2.66675H11.2001C11.9468 2.66675 12.3197 2.66675 12.6049 2.81207C12.8558 2.9399 13.0603 3.14373 13.1881 3.39461C13.3333 3.67955 13.3333 4.05274 13.3333 4.79802V11.2025C13.3333 11.9477 13.3333 12.3204 13.1881 12.6053C13.0603 12.8562 12.8558 13.0604 12.6049 13.1882C12.32 13.3334 11.9473 13.3334 11.202 13.3334H8.13123C7.38596 13.3334 7.01276 13.3334 6.72783 13.1882C6.47694 13.0604 6.27311 12.856 6.14529 12.6051C5.99996 12.3199 5.99996 11.9468 5.99996 11.2001V11.1667" stroke="#A30401" stroke-width="1.33333" stroke-linecap="round" stroke-linejoin="round"/>
</svg>
