<svg width="633" height="422" viewBox="0 0 633 422" fill="none" xmlns="http://www.w3.org/2000/svg">
<g clip-path="url(#clip0_213_788)">
<path d="M509.086 311.085V104.658C509.086 80.8456 489.782 61.5416 465.97 61.5416L165.388 61.5416C141.576 61.5416 122.272 80.8456 122.272 104.658V311.085C122.272 334.898 141.576 354.201 165.388 354.201H465.97C489.782 354.201 509.086 334.898 509.086 311.085Z" fill="white" stroke="#E1E4E5" stroke-width="7.73667"/>
<path d="M572.515 339.521H59.9641C55.995 339.521 52.7774 342.738 52.7774 346.707V352.62C52.7774 356.589 55.995 359.806 59.9641 359.806H572.515C576.485 359.806 579.702 356.589 579.702 352.62V346.707C579.702 342.738 576.485 339.521 572.515 339.521Z" fill="white" stroke="#E1E4E5" stroke-width="7.73667"/>
<path d="M316.247 307.452C369.653 307.452 412.947 264.158 412.947 210.752C412.947 157.346 369.653 114.052 316.247 114.052C262.841 114.052 219.547 157.346 219.547 210.752C219.547 264.158 262.841 307.452 316.247 307.452Z" fill="#A30401"/>
<path d="M253.929 236.168L305.503 202.4L331.29 228.007M331.289 228.187L382.862 193.804" stroke="white" stroke-width="16.88" stroke-linecap="round" stroke-linejoin="round"/>
<path fill-rule="evenodd" clip-rule="evenodd" d="M156.008 103.528C154.331 103.545 152.728 104.224 151.547 105.417C150.367 106.61 149.705 108.22 149.705 109.898C149.705 111.575 150.367 113.186 151.547 114.378C152.728 115.571 154.331 116.25 156.008 116.267H219.707C220.549 116.276 221.385 116.118 222.165 115.802C222.946 115.486 223.656 115.018 224.255 114.426C224.853 113.833 225.329 113.128 225.653 112.351C225.977 111.574 226.144 110.74 226.144 109.898C226.144 109.055 225.977 108.222 225.653 107.444C225.329 106.667 224.853 105.962 224.255 105.37C223.656 104.777 222.946 104.31 222.165 103.993C221.385 103.677 220.549 103.519 219.707 103.528H156.008ZM156.008 129.008C155.166 128.999 154.331 129.157 153.55 129.473C152.77 129.789 152.06 130.257 151.461 130.849C150.862 131.442 150.387 132.147 150.063 132.924C149.738 133.701 149.571 134.535 149.571 135.377C149.571 136.219 149.738 137.053 150.063 137.83C150.387 138.608 150.862 139.313 151.461 139.905C152.06 140.498 152.77 140.965 153.55 141.281C154.331 141.598 155.166 141.756 156.008 141.747H181.487C183.165 141.729 184.768 141.05 185.948 139.858C187.129 138.665 187.791 137.055 187.791 135.377C187.791 133.699 187.129 132.089 185.948 130.897C184.768 129.704 183.165 129.025 181.487 129.008H156.008ZM476.041 103.528C477.718 103.545 479.321 104.224 480.502 105.417C481.682 106.61 482.344 108.22 482.344 109.898C482.344 111.575 481.682 113.186 480.502 114.378C479.321 115.571 477.718 116.25 476.041 116.267H412.342C411.5 116.276 410.664 116.118 409.884 115.802C409.103 115.486 408.393 115.018 407.794 114.426C407.196 113.833 406.72 113.128 406.396 112.351C406.072 111.574 405.905 110.74 405.905 109.898C405.905 109.055 406.072 108.222 406.396 107.444C406.72 106.667 407.196 105.962 407.794 105.37C408.393 104.777 409.103 104.31 409.884 103.993C410.664 103.677 411.5 103.519 412.342 103.528H476.041ZM476.041 129.008C476.883 128.999 477.718 129.157 478.499 129.473C479.279 129.789 479.99 130.257 480.588 130.849C481.187 131.442 481.662 132.147 481.986 132.924C482.311 133.701 482.478 134.535 482.478 135.377C482.478 136.219 482.311 137.053 481.986 137.83C481.662 138.608 481.187 139.313 480.588 139.905C479.99 140.498 479.279 140.965 478.499 141.281C477.718 141.598 476.883 141.756 476.041 141.747H450.561C448.883 141.729 447.28 141.05 446.1 139.858C444.92 138.665 444.258 137.055 444.258 135.377C444.258 133.699 444.92 132.089 446.1 130.897C447.28 129.704 448.883 129.025 450.561 129.008H476.041Z" fill="#A30401"/>
<path d="M251.339 104.747C263.336 110.699 279.26 103.046 279.26 103.046C279.26 103.046 275.721 85.7483 263.717 79.8051C251.72 73.8535 235.802 81.498 235.802 81.498C235.802 81.498 239.342 98.7958 251.339 104.747Z" fill="url(#paint0_linear_213_788)"/>
<path d="M187.611 218.539C192.392 218.539 196.267 222.414 196.267 227.195C196.267 231.975 192.392 235.851 187.611 235.851C182.831 235.851 178.955 231.975 178.955 227.195C178.955 222.414 182.831 218.539 187.611 218.539Z" fill="#A30401"/>
<path d="M457.628 209.519C464.984 209.519 470.947 215.482 470.947 222.838C470.947 230.194 464.984 236.157 457.628 236.157C450.272 236.157 444.309 230.194 444.309 222.838C444.309 215.482 450.272 209.519 457.628 209.519Z" fill="#A30401"/>
<path d="M356.742 103.542C361.52 103.542 365.394 99.6684 365.394 94.8902C365.394 90.112 361.52 86.2385 356.742 86.2385C351.964 86.2385 348.09 90.112 348.09 94.8902C348.09 99.6684 351.964 103.542 356.742 103.542Z" fill="#A30401"/>
<path d="M470.82 300.879C477.574 300.879 483.049 295.404 483.049 288.65C483.049 281.896 477.574 276.421 470.82 276.421C464.067 276.421 458.592 281.896 458.592 288.65C458.592 295.404 464.067 300.879 470.82 300.879Z" fill="#E1E4E5"/>
<path d="M230.139 317.901C235.989 317.901 240.731 313.159 240.731 307.31C240.731 301.46 235.989 296.718 230.139 296.718C224.29 296.718 219.548 301.46 219.548 307.31C219.548 313.159 224.29 317.901 230.139 317.901Z" fill="#E1E4E5"/>
<path d="M172.597 204.31C176.144 204.31 179.019 201.942 179.019 199.022C179.019 196.101 176.144 193.733 172.597 193.733C169.051 193.733 166.176 196.101 166.176 199.022C166.176 201.942 169.051 204.31 172.597 204.31Z" fill="#E1E4E5"/>
<path d="M157.907 301.265C157.907 305.438 161.289 308.82 165.462 308.82C169.635 308.82 173.017 305.438 173.017 301.265C173.017 297.092 169.635 293.71 165.462 293.71C161.289 293.71 157.907 297.092 157.907 301.265Z" fill="#E1E4E5"/>
</g>
<defs>
<linearGradient id="paint0_linear_213_788" x1="297.41" y1="123.311" x2="198.455" y2="45.0372" gradientUnits="userSpaceOnUse">
<stop stop-color="white"/>
<stop offset="1" stop-color="#EEEEEE"/>
</linearGradient>
<clipPath id="clip0_213_788">
<rect width="633" height="422" fill="white"/>
</clipPath>
</defs>
</svg>
