<svg width="16" height="16" viewBox="0 0 16 16" fill="none" xmlns="http://www.w3.org/2000/svg">
<g clip-path="url(#clip0_101_3829)">
<path d="M2.55926 11.1617C2.66326 11.2204 2.7763 11.2476 2.88934 11.2476C3.12673 11.2476 3.35733 11.121 3.48168 10.8994L4.96252 8.24518L6.64458 8.66118C6.94979 8.73578 7.2663 8.59335 7.411 8.31301L8.47585 6.24209L10.4925 6.49078C10.6076 6.50479 10.7243 6.48907 10.8316 6.44514C10.9388 6.40121 11.033 6.33052 11.1052 6.23983L13.3344 3.44092L13.4338 3.90439C13.5017 4.22317 13.7843 4.44021 14.0963 4.44021C14.1437 4.44021 14.1912 4.43569 14.2387 4.42438C14.3257 4.40576 14.4082 4.37015 14.4815 4.3196C14.5548 4.26906 14.6173 4.20456 14.6656 4.1298C14.7139 4.05504 14.747 3.97149 14.763 3.88393C14.7789 3.79637 14.7775 3.70652 14.7587 3.61953L14.3585 1.75434L14.3517 1.734C14.345 1.70234 14.3337 1.67295 14.3224 1.64356C14.3178 1.63226 14.3133 1.61869 14.3065 1.60739C14.302 1.60061 14.2997 1.59156 14.2975 1.58478C14.2862 1.56217 14.2726 1.54182 14.259 1.52148C14.2545 1.51696 14.2523 1.51017 14.25 1.50565C14.2274 1.47174 14.2003 1.44235 14.1731 1.41522C14.1664 1.4107 14.1618 1.40618 14.1551 1.39939C14.1324 1.37678 14.1053 1.3587 14.0804 1.34061C14.0727 1.33454 14.0644 1.32924 14.0556 1.32479C14.0254 1.30553 13.9936 1.28889 13.9606 1.27505C13.9561 1.27279 13.9538 1.27053 13.9493 1.27053C13.9131 1.25696 13.877 1.24566 13.8408 1.23887L13.8001 1.23209C13.773 1.22757 13.7458 1.22531 13.7164 1.22531H13.6599L11.806 1.33383C11.433 1.35644 11.1459 1.67747 11.1685 2.05051C11.1911 2.42355 11.5121 2.70389 11.8852 2.68807L12.2198 2.66772L10.28 5.10037L8.17064 4.84037C7.88803 4.80646 7.61447 4.95116 7.48334 5.20437L6.44788 7.21877L4.78391 6.8073C4.63952 6.77118 4.48724 6.78373 4.3507 6.84301C4.21417 6.90228 4.10101 7.00496 4.0288 7.13512L2.29474 10.2438C2.11387 10.5671 2.23144 10.9808 2.55926 11.1617ZM1.3565 13.5152V0.732448C1.3565 0.35715 1.05355 0.0541992 0.678249 0.0541992C0.302951 0.0541992 0 0.35715 0 0.732448V14.1934C0 14.5687 0.302951 14.8717 0.678249 14.8717H6.95883C6.97558 14.6255 7.0426 14.3853 7.15575 14.166C7.2689 13.9467 7.42579 13.7529 7.61673 13.5966C7.58734 13.5717 7.56021 13.5423 7.53082 13.5152H1.3565ZM12.6177 8.70865L12.3034 8.4577C11.8612 8.10086 11.3162 7.89532 10.7485 7.87131C10.1808 7.8473 9.62033 8.00608 9.14957 8.32431L8.38315 8.83978C8.30918 8.88932 8.24569 8.95296 8.19633 9.02705C8.14697 9.10115 8.11269 9.18425 8.09548 9.2716C8.07826 9.35895 8.07843 9.44884 8.09598 9.53613C8.11353 9.62341 8.14812 9.70638 8.19777 9.78029C8.29817 9.92926 8.45349 10.0324 8.62975 10.0671C8.806 10.1019 8.98884 10.0654 9.13827 9.96567L9.90469 9.45021C10.1359 9.29396 10.4111 9.216 10.6898 9.22781C10.9686 9.23961 11.2362 9.34054 11.4534 9.51577L11.7676 9.76672C12.2492 10.1533 12.8438 10.35 13.4384 10.35C13.9674 10.35 14.4964 10.194 14.9486 9.88202L15.7195 9.35073C16.027 9.13821 16.1061 8.71544 15.8936 8.40796C15.7916 8.26003 15.635 8.15863 15.4582 8.12599C15.2815 8.09336 15.099 8.13216 14.9509 8.23388L14.1799 8.76517C13.7051 9.09073 13.0631 9.06813 12.6177 8.70865ZM14.9509 11.0305L14.1799 11.5618C13.9476 11.7205 13.6706 11.8006 13.3895 11.7904C13.1084 11.7803 12.8379 11.6803 12.6177 11.5053L12.3034 11.2543C11.8612 10.8975 11.3162 10.692 10.7485 10.668C10.1808 10.6439 9.62033 10.8027 9.14957 11.121L8.38315 11.6364C8.30918 11.686 8.24569 11.7496 8.19633 11.8237C8.14697 11.8978 8.11269 11.9809 8.09548 12.0682C8.07826 12.1556 8.07843 12.2455 8.09598 12.3328C8.11353 12.4201 8.14812 12.503 8.19777 12.5769C8.2473 12.6509 8.31094 12.7144 8.38504 12.7638C8.45913 12.8131 8.54223 12.8474 8.62958 12.8646C8.71694 12.8818 8.80682 12.8817 8.89411 12.8641C8.9814 12.8466 9.06436 12.812 9.13827 12.7623L9.90469 12.2469C10.1359 12.0906 10.4111 12.0126 10.6898 12.0245C10.9686 12.0363 11.2362 12.1372 11.4534 12.3124L11.7676 12.5634C12.2492 12.95 12.8438 13.1467 13.4384 13.1467C13.9674 13.1467 14.4964 12.9929 14.9486 12.6787L15.7195 12.1474C16.027 11.9349 16.1061 11.5121 15.8936 11.2046C15.7912 11.0571 15.6347 10.9561 15.4581 10.9235C15.2815 10.8909 15.0992 10.9293 14.9509 11.0305ZM14.9509 13.8294L14.1799 14.3607C13.9476 14.5194 13.6706 14.5995 13.3895 14.5893C13.1084 14.5792 12.8379 14.4792 12.6177 14.3042L12.3034 14.0533C11.8612 13.6964 11.3162 13.4909 10.7485 13.4669C10.1808 13.4428 9.62033 13.6016 9.14957 13.9199L8.38315 14.4353C8.30918 14.4849 8.24569 14.5485 8.19633 14.6226C8.14697 14.6967 8.11269 14.7798 8.09548 14.8672C8.07826 14.9545 8.07843 15.0444 8.09598 15.1317C8.11353 15.219 8.14812 15.3019 8.19777 15.3758C8.29817 15.5248 8.45349 15.6279 8.62975 15.6627C8.806 15.6974 8.98884 15.661 9.13827 15.5612L9.90469 15.0458C10.1359 14.8895 10.4111 14.8116 10.6898 14.8234C10.9686 14.8352 11.2362 14.9361 11.4534 15.1113L11.7676 15.3623C12.2492 15.7489 12.8438 15.9456 13.4384 15.9456C13.9674 15.9456 14.4964 15.7918 14.9486 15.4776L15.7195 14.9463C16.027 14.7338 16.1061 14.311 15.8936 14.0035C15.8433 13.9301 15.7789 13.8673 15.7042 13.8187C15.6295 13.7702 15.546 13.7369 15.4584 13.7207C15.3708 13.7045 15.2809 13.7058 15.1938 13.7245C15.1067 13.7431 15.0241 13.7788 14.9509 13.8294Z" fill="#A30401"/>
</g>
<defs>
<clipPath id="clip0_101_3829">
<rect width="16" height="16" fill="white"/>
</clipPath>
</defs>
</svg>
