<svg width="293" height="195" viewBox="0 0 293 195" fill="none" xmlns="http://www.w3.org/2000/svg">
<g clip-path="url(#clip0_150_290)">
<path fill-rule="evenodd" clip-rule="evenodd" d="M111.512 143.542H86.4442C77.2106 143.542 69.7317 136.064 69.7317 126.83V34.9125C69.7317 25.6789 77.2106 18.2 86.4442 18.2H203.43C212.664 18.2 220.143 25.6789 220.143 34.9125V126.83C220.143 136.064 212.664 143.542 203.43 143.542H178.362" fill="white"/>
<path d="M111.512 143.542H86.4442C77.2106 143.542 69.7317 136.064 69.7317 126.83V34.9125C69.7317 25.6789 77.2106 18.2 86.4442 18.2H203.43C212.664 18.2 220.143 25.6789 220.143 34.9125V126.83C220.143 136.064 212.664 143.542 203.43 143.542H178.362" stroke="#E1E4E5" stroke-width="1.3"/>
<path d="M144.937 176.967C163.397 176.967 178.362 162.002 178.362 143.542C178.362 125.083 163.397 110.118 144.937 110.118C126.477 110.118 111.513 125.083 111.513 143.542C111.513 162.002 126.477 176.967 144.937 176.967Z" fill="#A30401"/>
<path d="M103.156 70.1977H186.718M103.156 49.1319H186.718M103.156 91.3692H186.718" stroke="#E1E4E5" stroke-width="7.8" stroke-linecap="round" stroke-linejoin="round"/>
<path d="M144.937 155.325V131.761M133.156 143.542H156.72" stroke="white" stroke-width="5.525" stroke-linecap="round" stroke-linejoin="round"/>
<path fill-rule="evenodd" clip-rule="evenodd" d="M205.297 77.518V79.4524H203.289C202.452 79.4524 201.763 80.1161 201.763 80.9234C201.763 81.7307 202.452 82.394 203.289 82.394H205.297V84.3287C205.297 85.136 205.985 85.7993 206.823 85.7993C207.66 85.7993 208.349 85.136 208.349 84.3287V82.4021H210.364C211.202 82.4021 211.891 81.7388 211.891 80.9312C211.891 80.1239 211.202 79.4606 210.364 79.4606H208.357V77.518C208.357 76.7107 207.669 76.0471 206.823 76.0471C205.985 76.0471 205.297 76.7107 205.297 77.518ZM198.545 118.028V119.962H196.538C195.7 119.962 195.012 120.626 195.012 121.433C195.012 122.24 195.7 122.904 196.538 122.904H198.545V124.838C198.545 125.646 199.233 126.309 200.071 126.309C200.909 126.309 201.597 125.646 201.597 124.838V122.912H203.613C204.451 122.912 205.139 122.248 205.139 121.441C205.139 120.634 204.451 119.97 203.613 119.97H201.606V118.028C201.606 117.22 200.917 116.557 200.071 116.557C199.233 116.557 198.545 117.22 198.545 118.028ZM91.6445 118.028V119.962H89.6373C88.7994 119.962 88.111 120.626 88.111 121.433C88.111 122.24 88.7994 122.904 89.6373 122.904H91.6445V124.838C91.6445 125.646 92.3328 126.309 93.1706 126.309C94.0085 126.309 94.6968 125.646 94.6968 124.838V122.912H96.7125C97.55 122.912 98.2384 122.248 98.2384 121.441C98.2384 120.634 97.55 119.97 96.7125 119.97H94.705V118.028C94.705 117.22 94.0166 116.557 93.1706 116.557C92.3328 116.557 91.6445 117.22 91.6445 118.028ZM81.5171 87.2703V89.2047H79.5099C78.6721 89.2047 77.9837 89.8684 77.9837 90.6757C77.9837 91.483 78.6721 92.1466 79.5099 92.1466H81.5171V94.081C81.5171 94.8883 82.2055 95.5516 83.0433 95.5516C83.8809 95.5516 84.5695 94.8883 84.5695 94.081V92.1544H86.5849C87.4227 92.1544 88.111 91.4911 88.111 90.6835C88.111 89.8762 87.4227 89.2128 86.5849 89.2128H84.5777V87.2703C84.5777 86.463 83.8893 85.7993 83.0433 85.7993C82.2055 85.7993 81.5171 86.463 81.5171 87.2703ZM54.4755 110.186V111.675H52.9145C52.2629 111.675 51.7273 112.185 51.7273 112.806C51.7273 113.427 52.2629 113.937 52.9145 113.937H54.4755V115.425C54.4755 116.046 55.0111 116.557 55.6627 116.557C56.3144 116.557 56.8496 116.046 56.8496 115.425V113.943H58.4174C59.0687 113.943 59.6043 113.433 59.6043 112.812C59.6043 112.191 59.0687 111.681 58.4174 111.681H56.8561V110.186C56.8561 109.565 56.3205 109.055 55.6627 109.055C55.0111 109.055 54.4755 109.565 54.4755 110.186ZM45.1334 73.3922V75.3266H43.1262C42.2883 75.3266 41.6 75.9899 41.6 76.7972C41.6 77.6048 42.2883 78.2681 43.1262 78.2681H45.1334V80.2025C45.1334 81.0102 45.8217 81.6735 46.6596 81.6735C47.4974 81.6735 48.1858 81.0102 48.1858 80.2025V78.2763H50.2011C51.0389 78.2763 51.7273 77.6126 51.7273 76.8053C51.7273 75.998 51.0389 75.3344 50.2011 75.3344H48.1939V73.3922C48.1939 72.5845 47.5055 71.9212 46.6596 71.9212C45.8217 71.9212 45.1334 72.5845 45.1334 73.3922ZM234.85 109.797V112.252H232.248C231.162 112.252 230.27 113.094 230.27 114.119C230.27 115.144 231.162 115.986 232.248 115.986H234.85V118.441C234.85 119.465 235.743 120.308 236.829 120.308C237.915 120.308 238.807 119.465 238.807 118.441V115.996H241.42C242.506 115.996 243.398 115.154 243.398 114.129C243.398 113.104 242.506 112.262 241.42 112.262H238.818V109.797C238.818 108.772 237.925 107.93 236.829 107.93C235.743 107.93 234.85 108.772 234.85 109.797ZM241.62 68.0693V70.8968H238.794C237.616 70.8968 236.646 71.8663 236.646 73.0464C236.646 74.2264 237.616 75.1962 238.794 75.1962H241.62V78.0234C241.62 79.2035 242.588 80.173 243.768 80.173C244.947 80.173 245.915 79.2035 245.915 78.0234V75.2079H248.752C249.931 75.2079 250.9 74.2381 250.9 73.0581C250.9 71.878 249.931 70.9085 248.752 70.9085H245.927V68.0693C245.927 66.8896 244.958 65.9198 243.768 65.9198C242.588 65.9198 241.62 66.8896 241.62 68.0693Z" fill="#E1E4E5"/>
</g>
<defs>
<clipPath id="clip0_150_290">
<rect width="292.5" height="195" fill="white"/>
</clipPath>
</defs>
</svg>
