<svg width="593" height="395" viewBox="0 0 593 395" fill="none" xmlns="http://www.w3.org/2000/svg">
<g clip-path="url(#clip0_213_818)">
<path fill-rule="evenodd" clip-rule="evenodd" d="M161.651 86.688C131.426 86.688 106.7 111.381 106.7 141.567C106.7 171.753 131.426 196.447 161.651 196.447C167.714 196.447 172.681 201.407 172.681 207.462C172.681 213.517 167.714 218.477 161.651 218.477H132.897C118.152 218.477 106.087 230.527 106.087 245.252C106.087 259.978 118.152 272.027 132.897 272.027C145.65 272.027 156.084 282.449 156.084 295.184C156.084 318.421 175.121 337.432 198.387 337.432H446.717C476.943 337.432 501.668 312.739 501.668 282.553C501.668 252.367 476.943 227.673 446.717 227.673H441.402C435.339 227.673 430.373 222.72 430.373 216.658C430.373 210.603 435.333 205.644 441.402 205.644H477.182C491.926 205.644 503.992 193.593 503.992 178.868C503.992 164.161 491.957 152.123 477.237 152.093H448.447C435.694 152.093 425.26 141.671 425.26 128.936C425.26 105.699 406.223 86.688 382.956 86.688H161.651Z" fill="url(#paint0_linear_213_818)"/>
<path fill-rule="evenodd" clip-rule="evenodd" d="M369.237 175.012C404.915 210.689 404.915 268.534 369.237 304.211C333.56 339.888 275.716 339.888 240.038 304.211C204.361 268.534 204.361 210.689 240.038 175.012C275.716 139.334 333.56 139.334 369.237 175.012Z" fill="#A30401"/>
<path d="M369.237 175.012C404.915 210.689 404.915 268.534 369.237 304.211C333.56 339.888 275.716 339.888 240.038 304.211C204.361 268.534 204.361 210.689 240.038 175.012C275.716 139.334 333.56 139.334 369.237 175.012Z" stroke="#A30401" stroke-width="21.0825" stroke-linecap="round" stroke-linejoin="round"/>
<path d="M304.638 267.72V231.88M304.596 210.53C298.777 210.53 294.055 215.253 294.097 221.072C294.097 226.891 298.819 231.613 304.638 231.613C310.457 231.613 315.18 226.891 315.18 221.072C315.18 215.253 310.457 210.53 304.596 210.53Z" stroke="white" stroke-width="21.0825" stroke-linecap="round" stroke-linejoin="round"/>
<path d="M252.2 118.007C258.088 94.9988 278.96 77.9783 303.81 77.9783C333.227 77.9783 357.064 101.816 357.064 131.233V164.824" stroke="#A30401" stroke-width="21.0825" stroke-linecap="round" stroke-linejoin="round"/>
<path fill-rule="evenodd" clip-rule="evenodd" d="M474.905 156.812C474.905 172.996 462.74 188.128 446.393 191.803C430.045 188.128 417.881 172.996 417.881 156.812V144.099C417.881 141.205 419.631 138.596 422.311 137.502L440.131 130.21C444.144 128.567 448.642 128.567 452.655 130.21L470.475 137.502C471.784 138.038 472.905 138.951 473.694 140.126C474.483 141.301 474.904 142.684 474.905 144.099V156.812Z" fill="#A30401"/>
<path d="M457.976 153.044L444.611 166.409L436.592 158.39" stroke="white" stroke-width="6.57938" stroke-linecap="round" stroke-linejoin="round"/>
<path fill-rule="evenodd" clip-rule="evenodd" d="M181.757 199.035C181.757 223.425 163.426 246.23 138.789 251.767C114.152 246.23 95.8204 223.425 95.8204 199.035V179.876C95.8202 177.743 96.455 175.659 97.644 173.888C98.833 172.117 100.522 170.741 102.497 169.934L129.352 158.945C135.399 156.469 142.178 156.469 148.226 158.945L175.081 169.934C177.055 170.742 178.744 172.118 179.933 173.889C181.122 175.659 181.757 177.743 181.757 179.876V199.035Z" fill="#A30401"/>
<path d="M156.245 193.357L136.103 213.498L124.019 201.414" stroke="white" stroke-width="9.91582" stroke-linecap="round" stroke-linejoin="round"/>
<path fill-rule="evenodd" clip-rule="evenodd" d="M217.898 101.433C217.898 116.705 206.42 130.985 190.993 134.453C175.566 130.985 164.088 116.705 164.088 101.433V89.4366C164.088 86.7058 165.739 84.2443 168.268 83.2114L185.084 76.3305C188.871 74.78 193.115 74.78 196.902 76.3305L213.718 83.2114C214.954 83.7169 216.011 84.5789 216.756 85.6875C217.5 86.7961 217.898 88.1012 217.898 89.4366V101.433Z" fill="#A30401"/>
<path d="M201.924 97.8784L189.312 110.49L181.745 102.923" stroke="white" stroke-width="6.20874" stroke-linecap="round" stroke-linejoin="round"/>
<path d="M493.574 224.517L471.967 246.125C471.18 246.912 471.18 248.188 471.966 248.974C472.753 249.761 474.029 249.761 474.816 248.974L496.424 227.367C497.211 226.58 497.211 225.304 496.424 224.517C495.637 223.73 494.361 223.73 493.574 224.517Z" fill="#E1E4E5"/>
<path d="M491.46 239.988L485.228 246.219C484.441 247.006 484.441 248.282 485.228 249.069C486.015 249.855 487.291 249.855 488.078 249.068L494.309 242.837C495.096 242.05 495.096 240.774 494.309 239.987C493.522 239.201 492.246 239.201 491.46 239.988Z" fill="#E1E4E5"/>
<path d="M127.402 135.679L149.01 114.072C149.796 113.285 149.797 112.009 149.01 111.222C148.223 110.435 146.947 110.435 146.16 111.222L124.552 132.83C123.765 133.617 123.765 134.893 124.552 135.68C125.339 136.466 126.615 136.466 127.402 135.679Z" fill="#E1E4E5"/>
<path d="M129.517 120.208L135.748 113.977C136.535 113.19 136.535 111.914 135.748 111.127C134.961 110.34 133.686 110.341 132.899 111.127L126.667 117.359C125.88 118.146 125.88 119.422 126.667 120.208C127.454 120.995 128.73 120.995 129.517 120.208Z" fill="#E1E4E5"/>
<path d="M178 341.284L199.608 319.676C200.395 318.889 200.395 317.614 199.608 316.827C198.821 316.04 197.545 316.04 196.758 316.827L175.151 338.435C174.364 339.222 174.364 340.497 175.15 341.284C175.937 342.071 177.213 342.071 178 341.284Z" fill="#E1E4E5"/>
<path d="M180.115 325.814L186.346 319.582C187.133 318.795 187.133 317.519 186.347 316.733C185.56 315.946 184.284 315.946 183.497 316.733L177.266 322.964C176.479 323.751 176.478 325.027 177.265 325.814C178.052 326.601 179.328 326.601 180.115 325.814Z" fill="#E1E4E5"/>
<path d="M402.077 95.5223L423.685 73.9147C424.472 73.1277 424.472 71.8519 423.685 71.0651C422.898 70.2782 421.622 70.2783 420.835 71.0653L399.228 92.6729C398.441 93.4599 398.44 94.7357 399.227 95.5226C400.014 96.3094 401.29 96.3093 402.077 95.5223Z" fill="#E1E4E5"/>
<path d="M404.192 80.0512L410.423 73.8199C411.21 73.0329 411.21 71.7571 410.423 70.9702C409.637 70.1834 408.361 70.1835 407.574 70.9705L401.342 77.2018C400.555 77.9888 400.555 79.2646 401.342 80.0514C402.129 80.8383 403.405 80.8382 404.192 80.0512Z" fill="#E1E4E5"/>
<path d="M474.247 286.076C470.71 284.034 466.187 285.246 464.145 288.783C462.103 292.32 463.315 296.843 466.852 298.885C470.389 300.927 474.912 299.715 476.954 296.178C478.996 292.641 477.784 288.118 474.247 286.076Z" fill="#A30401"/>
<path d="M521.715 194.482C524.45 196.061 525.387 199.558 523.808 202.292C522.229 205.027 518.732 205.964 515.997 204.385C513.263 202.806 512.326 199.309 513.904 196.575C515.483 193.84 518.98 192.903 521.715 194.482Z" fill="#E1E4E5"/>
<path d="M447.095 254.149C444.136 252.44 440.352 253.454 438.644 256.414C436.935 259.373 437.949 263.157 440.908 264.865C443.867 266.574 447.651 265.56 449.36 262.601C451.068 259.641 450.054 255.857 447.095 254.149Z" fill="white"/>
<path d="M123.127 288.402C123.127 293.062 119.351 296.835 114.685 296.835C110.019 296.835 106.262 293.044 106.262 288.402C106.262 283.742 110.038 279.969 114.703 279.969C119.369 279.969 123.127 283.742 123.127 288.402ZM373.708 60.3093C373.708 64.9696 369.931 68.7425 365.266 68.7425C360.601 68.7425 356.842 64.9505 356.842 60.3093C356.842 55.6483 360.619 51.876 365.285 51.876C369.95 51.876 373.708 55.6483 373.708 60.3093Z" stroke="#E1E4E5" stroke-width="4.01583" stroke-miterlimit="10"/>
<path d="M402.621 323.691C402.621 323.691 427.481 310.834 437.251 291.844C437.847 290.686 437.457 289.227 436.318 288.59C435.575 288.176 434.464 288.06 432.811 288.75C428.399 290.594 414.951 312.005 402.621 323.691ZM164.088 266.374C164.088 266.374 171.498 253.984 181.586 249.558C182.201 249.288 182.94 249.535 183.232 250.142C183.421 250.538 183.445 251.113 183.038 251.943C181.947 254.156 170.496 260.398 164.088 266.374ZM203.442 162.769C203.442 162.769 210.852 150.379 220.941 145.953C221.555 145.683 222.294 145.93 222.586 146.537C222.775 146.933 222.8 147.508 222.392 148.338C221.302 150.55 209.85 156.793 203.442 162.769Z" fill="#E1E4E5"/>
<path d="M475.486 104.982C462.037 116.636 439.004 112.098 439.004 112.098C439.004 112.098 437.792 88.6689 451.252 77.0237C464.701 65.3712 487.723 69.8985 487.723 69.8985C487.723 69.8985 488.935 93.3286 475.486 104.982Z" fill="url(#paint1_linear_213_818)"/>
</g>
<defs>
<linearGradient id="paint0_linear_213_818" x1="313.524" y1="478.014" x2="308.651" y2="-186.134" gradientUnits="userSpaceOnUse">
<stop stop-color="white"/>
<stop offset="1" stop-color="#EEEEEE"/>
</linearGradient>
<linearGradient id="paint1_linear_213_818" x1="422.41" y1="144.214" x2="523.613" y2="10.5544" gradientUnits="userSpaceOnUse">
<stop stop-color="white"/>
<stop offset="1" stop-color="#EEEEEE"/>
</linearGradient>
<clipPath id="clip0_213_818">
<rect width="592.5" height="395" fill="white"/>
</clipPath>
</defs>
</svg>
