<svg width="291" height="194" viewBox="0 0 291 194" fill="none" xmlns="http://www.w3.org/2000/svg">
<g clip-path="url(#clip0_216_3942)">
<path fill-rule="evenodd" clip-rule="evenodd" d="M113.379 51.4114H197.61C199.455 51.4114 200.707 53.287 199.999 54.9904L189.311 80.7177C189.181 81.0322 189.114 81.3694 189.114 81.71C189.114 82.0505 189.181 82.3878 189.311 82.7023L199.999 108.43C200.707 110.133 199.455 112.009 197.61 112.009H113.379" fill="#A30401"/>
<path d="M125.399 151.911H101.73M113.565 151.911V51.3186" stroke="#3D1515" stroke-width="7.71958" stroke-linecap="round" stroke-linejoin="round"/>
<path d="M230.817 110.323C226.442 111.359 221.814 107.649 221.814 107.649C221.814 107.649 224.284 102.26 228.66 101.227C233.035 100.19 237.661 103.898 237.661 103.898C237.661 103.898 235.192 109.287 230.817 110.323Z" fill="url(#paint0_linear_216_3942)"/>
<path d="M79.025 47.8045C84.7872 51.7734 93.5902 48.9992 93.5902 48.9992C93.5902 48.9992 93.0451 39.7907 87.2791 35.8257C81.517 31.8568 72.7178 34.6274 72.7178 34.6274C72.7178 34.6274 73.2629 43.8356 79.025 47.8045Z" fill="url(#paint1_linear_216_3942)"/>
<path d="M223.618 50.9744C219.643 55.02 212.211 54.167 212.211 54.167C212.211 54.167 211.227 46.7549 215.205 42.712C219.18 38.6668 226.609 39.5171 226.609 39.5171C226.609 39.5171 227.593 46.9292 223.618 50.9744Z" fill="url(#paint2_linear_216_3942)"/>
<path d="M83.3265 135.89C81.4406 135.89 79.9118 137.418 79.9118 139.304C79.9118 141.19 81.4406 142.719 83.3265 142.719C85.2124 142.719 86.7412 141.19 86.7412 139.304C86.7412 137.418 85.2124 135.89 83.3265 135.89Z" fill="#A30401"/>
<path d="M171.437 126.507C169.349 126.507 167.656 128.115 167.656 130.099C167.656 132.083 169.349 133.692 171.437 133.692C173.525 133.692 175.218 132.083 175.218 130.099C175.218 128.115 173.525 126.507 171.437 126.507Z" fill="#A30401"/>
<path d="M72.5884 73.7199C70.7134 73.7199 69.1934 72.1999 69.1934 70.3249C69.1934 68.4499 70.7134 66.9299 72.5884 66.9299C74.4634 66.9299 75.9834 68.4499 75.9834 70.3249C75.9834 72.1999 74.4634 73.7199 72.5884 73.7199Z" fill="#A30401"/>
<path d="M152.46 44.8146C150.58 44.8146 149.057 43.3757 149.057 41.6007C149.057 39.8256 150.58 38.3867 152.46 38.3867C154.339 38.3867 155.863 39.8256 155.863 41.6007C155.863 43.3757 154.339 44.8146 152.46 44.8146Z" fill="#E1E4E5"/>
<path d="M138.855 127.271C137.346 127.271 136.123 126.047 136.123 124.539C136.123 123.03 137.346 121.807 138.855 121.807C140.364 121.807 141.587 123.03 141.587 124.539C141.587 126.047 140.364 127.271 138.855 127.271Z" fill="#E1E4E5"/>
<path d="M170.75 153.706C169.849 153.706 169.119 152.975 169.119 152.074C169.119 151.173 169.849 150.443 170.75 150.443C171.651 150.443 172.382 151.173 172.382 152.074C172.382 152.975 171.651 153.706 170.75 153.706Z" fill="#E1E4E5"/>
<path d="M170.089 28.892C168.802 28.892 167.758 27.8485 167.758 26.5611C167.758 25.2738 168.802 24.2302 170.089 24.2302C171.376 24.2302 172.42 25.2738 172.42 26.5611C172.42 27.8485 171.376 28.892 170.089 28.892Z" fill="#E1E4E5"/>
<path d="M148.873 136.94C149.199 138.155 148.477 139.404 147.262 139.73C146.047 140.056 144.798 139.334 144.472 138.119C144.147 136.904 144.868 135.655 146.083 135.329C147.298 135.004 148.547 135.725 148.873 136.94Z" fill="#E1E4E5"/>
<path d="M68.3437 98.2105C66.6702 98.2105 65.3135 96.8538 65.3135 95.1802C65.3135 93.5066 66.6702 92.1499 68.3437 92.1499C70.0173 92.1499 71.374 93.5066 71.374 95.1802C71.374 96.8538 70.0173 98.2105 68.3437 98.2105Z" fill="#E1E4E5"/>
<path d="M94.3595 88.4674C93.0722 88.4674 92.0286 87.6325 92.0286 86.6027C92.0286 85.5729 93.0722 84.738 94.3595 84.738C95.6468 84.738 96.6904 85.5729 96.6904 86.6027C96.6904 87.6325 95.6468 88.4674 94.3595 88.4674Z" fill="#E1E4E5"/>
<path d="M204.708 126.709C205.385 129.237 203.885 131.837 201.356 132.514C198.827 133.192 196.228 131.691 195.55 129.162C194.873 126.634 196.373 124.034 198.902 123.357C201.431 122.679 204.03 124.18 204.708 126.709Z" fill="#E1E4E5"/>
<path d="M82.0875 104.67H82.1486C82.5098 109.786 86.3145 109.865 86.3145 109.865C86.3145 109.865 82.1189 109.947 82.1189 115.859C82.1189 109.947 77.9233 109.865 77.9233 109.865C77.9233 109.865 81.7267 109.786 82.0875 104.67ZM115.353 22.1892H115.412C115.765 27.3942 119.481 27.4744 119.481 27.4744C119.481 27.4744 115.383 27.5578 115.383 33.5718C115.383 27.5578 111.285 27.4744 111.285 27.4744C111.285 27.4744 115 27.3942 115.353 22.1892ZM56.1238 110.49H56.1833C56.5361 115.695 60.2522 115.775 60.2522 115.775C60.2522 115.775 56.1546 115.859 56.1546 121.873C56.1546 115.859 52.0566 115.775 52.0566 115.775C52.0566 115.775 55.7711 115.695 56.1238 110.49ZM207.546 72.8782H207.605C207.958 78.0832 211.674 78.1634 211.674 78.1634C211.674 78.1634 207.576 78.2468 207.576 84.2608C207.576 78.2468 203.478 78.1634 203.478 78.1634C203.478 78.1634 207.193 78.0832 207.546 72.8782ZM235.868 79.4502H235.912C236.176 83.3393 238.953 83.3991 238.953 83.3991C238.953 83.3991 235.891 83.4612 235.891 87.9549C235.891 83.4612 232.829 83.3991 232.829 83.3991C232.829 83.3991 235.605 83.3393 235.868 79.4502Z" fill="#E1E4E5"/>
</g>
<defs>
<linearGradient id="paint0_linear_216_3942" x1="214.342" y1="112.9" x2="252.641" y2="94.8058" gradientUnits="userSpaceOnUse">
<stop stop-color="white"/>
<stop offset="1" stop-color="#EEEEEE"/>
</linearGradient>
<linearGradient id="paint1_linear_216_3942" x1="101.471" y1="60.8271" x2="56.1127" y2="12.998" gradientUnits="userSpaceOnUse">
<stop stop-color="white"/>
<stop offset="1" stop-color="#EEEEEE"/>
</linearGradient>
<linearGradient id="paint2_linear_216_3942" x1="207.76" y1="64.7927" x2="236.494" y2="19.7485" gradientUnits="userSpaceOnUse">
<stop stop-color="white"/>
<stop offset="1" stop-color="#EEEEEE"/>
</linearGradient>
<clipPath id="clip0_216_3942">
<rect width="291" height="194" fill="white"/>
</clipPath>
</defs>
</svg>
