<svg width="16" height="16" viewBox="0 0 16 16" fill="none" xmlns="http://www.w3.org/2000/svg">
<path d="M5.95859 3.07102C6.58651 2.81063 7.27555 2.66659 7.99995 2.66659C8.72434 2.66659 9.41341 2.81063 10.0413 3.07102C10.3814 3.21206 10.7715 3.05068 10.9125 2.71057C11.0535 2.37047 10.8921 1.98042 10.552 1.83939C9.76508 1.51304 8.90268 1.33325 7.99995 1.33325C7.09721 1.33325 6.23483 1.51304 5.44785 1.83939C5.10775 1.98042 4.94637 2.37047 5.0874 2.71057C5.22844 3.05068 5.61848 3.21206 5.95859 3.07102Z" fill="#A30401"/>
<path d="M3.07114 5.95859C3.21218 5.61848 3.0508 5.22844 2.71069 5.0874C2.37059 4.94637 1.98054 5.10775 1.83951 5.44785C1.51316 6.23483 1.33337 7.09721 1.33337 7.99995C1.33337 8.90268 1.51316 9.76508 1.83951 10.552C1.98054 10.8921 2.37059 11.0535 2.71069 10.9125C3.0508 10.7715 3.21218 10.3814 3.07114 10.0413C2.81075 9.41341 2.66671 8.72434 2.66671 7.99995C2.66671 7.27555 2.81075 6.58651 3.07114 5.95859Z" fill="#A30401"/>
<path d="M14.1606 5.44785C14.0195 5.10775 13.6295 4.94637 13.2894 5.0874C12.9493 5.22844 12.7879 5.61848 12.9289 5.95859C13.1893 6.58651 13.3334 7.27555 13.3334 7.99995C13.3334 8.72434 13.1893 9.41341 12.9289 10.0413C12.7879 10.3814 12.9493 10.7715 13.2894 10.9125C13.6295 11.0535 14.0195 10.8921 14.1606 10.552C14.4869 9.76508 14.6667 8.90268 14.6667 7.99995C14.6667 7.09721 14.4869 6.23483 14.1606 5.44785Z" fill="#A30401"/>
<path d="M5.95859 12.9289C5.61848 12.7879 5.22844 12.9493 5.0874 13.2894C4.94637 13.6295 5.10775 14.0195 5.44785 14.1606C6.23483 14.4869 7.09721 14.6667 7.99995 14.6667C8.90268 14.6667 9.76508 14.4869 10.552 14.1606C10.8921 14.0195 11.0535 13.6295 10.9125 13.2894C10.7715 12.9493 10.3814 12.7879 10.0413 12.9289C9.41341 13.1893 8.72434 13.3334 7.99995 13.3334C7.27555 13.3334 6.58651 13.1893 5.95859 12.9289Z" fill="#A30401"/>
<path fill-rule="evenodd" clip-rule="evenodd" d="M8.00004 5.33325C6.52728 5.33325 5.33337 6.52716 5.33337 7.99992C5.33337 9.47265 6.52728 10.6666 8.00004 10.6666C9.47277 10.6666 10.6667 9.47265 10.6667 7.99992C10.6667 6.52716 9.47277 5.33325 8.00004 5.33325ZM6.66671 7.99992C6.66671 7.26352 7.26364 6.66659 8.00004 6.66659C8.73644 6.66659 9.33337 7.26352 9.33337 7.99992C9.33337 8.73632 8.73644 9.33325 8.00004 9.33325C7.26364 9.33325 6.66671 8.73632 6.66671 7.99992Z" fill="#A30401"/>
</svg>
