<svg width="17" height="17" viewBox="0 0 17 17" fill="none" xmlns="http://www.w3.org/2000/svg">
<g clip-path="url(#clip0_101_3810)">
<path d="M15.9371 15.1548L11.9245 11.1421C13.018 9.80472 13.5556 8.09821 13.4262 6.37554C13.2967 4.65287 12.5101 3.04585 11.2291 1.88688C9.94801 0.727904 8.27049 0.105654 6.54351 0.148834C4.81652 0.192014 3.1722 0.897321 1.95065 2.11887C0.729108 3.34041 0.0238016 4.98473 -0.0193785 6.71172C-0.0625585 8.4387 0.559691 10.1162 1.71866 11.3973C2.87763 12.6784 4.48466 13.465 6.20732 13.5944C7.92999 13.7238 9.63651 13.1862 10.9739 12.0927L14.9866 16.1054C15.1134 16.2278 15.2832 16.2956 15.4594 16.294C15.6357 16.2925 15.8043 16.2218 15.929 16.0972C16.0536 15.9725 16.1243 15.8039 16.1258 15.6277C16.1274 15.4514 16.0596 15.2816 15.9371 15.1548ZM6.72257 12.2688C5.65889 12.2688 4.61911 11.9534 3.73469 11.3624C2.85028 10.7715 2.16097 9.93157 1.75392 8.94886C1.34687 7.96615 1.24036 6.88481 1.44788 5.84158C1.65539 4.79834 2.1676 3.84007 2.91973 3.08794C3.67186 2.33581 4.63013 1.8236 5.67337 1.61609C6.7166 1.40858 7.79794 1.51508 8.78065 1.92213C9.76335 2.32918 10.6033 3.0185 11.1942 3.90291C11.7852 4.78732 12.1006 5.82711 12.1006 6.89078C12.099 8.31663 11.5319 9.68362 10.5236 10.6918C9.51541 11.7001 8.14842 12.2672 6.72257 12.2688Z" fill="#BCBCBC"/>
</g>
<defs>
<clipPath id="clip0_101_3810">
<rect width="16.1341" height="16.1341" fill="white" transform="translate(0 0.167603)"/>
</clipPath>
</defs>
</svg>
