<svg width="16" height="16" viewBox="0 0 16 16" fill="none" xmlns="http://www.w3.org/2000/svg">
<path d="M13.5666 5.94862L13.3225 5.8128C13.2846 5.7917 13.2659 5.78112 13.2476 5.77016C13.0655 5.6611 12.9121 5.51042 12.8001 5.33015C12.7889 5.31201 12.7783 5.29299 12.7565 5.2554C12.7349 5.21784 12.7239 5.19882 12.7137 5.17998C12.6133 4.99244 12.559 4.78343 12.5557 4.5707C12.5554 4.54932 12.5555 4.52747 12.5562 4.48402L12.561 4.20052C12.5686 3.74683 12.5725 3.51929 12.5087 3.31508C12.4521 3.13368 12.3573 2.96662 12.2308 2.82483C12.0878 2.66456 11.8898 2.55022 11.4935 2.32184L11.1643 2.13213C10.7691 1.90438 10.5714 1.79047 10.3615 1.74704C10.1759 1.70862 9.98433 1.7104 9.7994 1.75192C9.5906 1.79879 9.3954 1.91567 9.00527 2.1493L9.003 2.15036L8.76713 2.2916C8.72986 2.31394 8.711 2.32519 8.69226 2.33558C8.50673 2.43873 8.29966 2.49576 8.08746 2.50258C8.06613 2.50326 8.04433 2.50326 8.00086 2.50326C7.95766 2.50326 7.93493 2.50326 7.9136 2.50258C7.701 2.49574 7.49347 2.43839 7.30767 2.33482C7.28893 2.32438 7.2704 2.31304 7.23306 2.2906L6.99566 2.14808C6.60281 1.91224 6.4061 1.79414 6.19618 1.74704C6.01046 1.70538 5.81825 1.70422 5.63194 1.74314C5.42157 1.78708 5.22385 1.90184 4.82839 2.13135L4.82663 2.13213L4.50152 2.32082L4.49792 2.32302C4.10603 2.55048 3.90961 2.66448 3.7678 2.82409C3.64196 2.96573 3.5479 3.13254 3.4916 3.31345C3.42796 3.51794 3.43135 3.74597 3.43902 4.2018L3.44379 4.4849C3.44451 4.52777 3.44576 4.54908 3.44545 4.57016C3.44229 4.78332 3.38724 4.99276 3.28649 5.18064C3.27653 5.19922 3.2658 5.2178 3.24436 5.25491C3.22291 5.29206 3.21251 5.31052 3.20139 5.32845C3.08891 5.50968 2.93476 5.66124 2.75155 5.77048C2.73343 5.78128 2.71433 5.79168 2.67681 5.81247L2.43577 5.94605C2.03472 6.1683 1.83425 6.27952 1.68837 6.43779C1.55932 6.57781 1.46183 6.74386 1.40233 6.9248C1.33506 7.12926 1.33511 7.35853 1.33616 7.817L1.33701 8.1918C1.33804 8.6472 1.33946 8.8748 1.40688 9.07786C1.46653 9.25753 1.5633 9.42266 1.69163 9.5618C1.83668 9.71913 2.03516 9.82966 2.43316 10.0511L2.67205 10.184C2.71271 10.2066 2.73317 10.2177 2.75278 10.2296C2.93432 10.3389 3.08726 10.49 3.19879 10.6702C3.21083 10.6897 3.2224 10.7099 3.24553 10.7503C3.26837 10.7902 3.28006 10.8101 3.29062 10.8301C3.3884 11.0153 3.44076 11.221 3.44433 11.4303C3.44471 11.4529 3.44439 11.4758 3.44361 11.5218L3.43902 11.7935C3.4313 12.2509 3.42793 12.4798 3.49194 12.6849C3.54858 12.8663 3.64323 13.0333 3.76975 13.1751C3.91277 13.3354 4.11103 13.4497 4.50738 13.6781L4.83652 13.8677C5.23175 14.0955 5.4293 14.2092 5.63912 14.2527C5.82476 14.2911 6.01642 14.2896 6.20139 14.2481C6.41044 14.2011 6.60632 14.0839 6.9976 13.8495L7.23346 13.7083C7.2708 13.6859 7.28973 13.6747 7.3084 13.6643C7.49393 13.5612 7.7008 13.5039 7.913 13.4971C7.93433 13.4964 7.95613 13.4964 7.9996 13.4964C8.0432 13.4964 8.06493 13.4964 8.08633 13.4971C8.29893 13.5039 8.50713 13.5615 8.69293 13.665C8.70927 13.6741 8.72567 13.684 8.7544 13.7013L9.0052 13.8518C9.39806 14.0877 9.5944 14.2054 9.80433 14.2525C9.99 14.2942 10.1824 14.2959 10.3687 14.257C10.579 14.2131 10.7771 14.0981 11.1724 13.8687L11.5024 13.6771C11.8945 13.4495 12.0911 13.3354 12.233 13.1757C12.3589 13.0341 12.4531 12.8674 12.5093 12.6865C12.5725 12.4835 12.5687 12.2572 12.5611 11.8079L12.5562 11.5149C12.5555 11.4721 12.5554 11.4507 12.5557 11.4297C12.5589 11.2165 12.613 11.0069 12.7137 10.8191C12.7237 10.8005 12.7345 10.7817 12.7559 10.7447C12.7773 10.7077 12.7885 10.6891 12.7996 10.6712C12.9121 10.4899 13.0663 10.3383 13.2496 10.229C13.2675 10.2183 13.2859 10.2081 13.3225 10.1879L13.3238 10.1873L13.5648 10.0537C13.9659 9.83146 14.1667 9.72006 14.3126 9.5618C14.4417 9.4218 14.539 9.25593 14.5985 9.07506C14.6654 8.8718 14.6649 8.64386 14.6639 8.19073L14.663 7.80793C14.6619 7.35246 14.6614 7.12493 14.594 6.92186C14.5343 6.7422 14.437 6.57707 14.3087 6.4379C14.1638 6.28074 13.965 6.17017 13.5678 5.94918L13.5666 5.94862Z" stroke="#A30401" stroke-width="1.33333" stroke-linecap="round" stroke-linejoin="round"/>
<path d="M5.3335 7.99995C5.3335 9.47268 6.5274 10.6666 8.00014 10.6666C9.47294 10.6666 10.6668 9.47268 10.6668 7.99995C10.6668 6.52716 9.47294 5.33325 8.00014 5.33325C6.5274 5.33325 5.3335 6.52716 5.3335 7.99995Z" stroke="#A30401" stroke-width="1.33333" stroke-linecap="round" stroke-linejoin="round"/>
</svg>
