<svg width="335" height="224" viewBox="0 0 335 224" fill="none" xmlns="http://www.w3.org/2000/svg">
<path d="M86.9891 126.737C83.3294 98.7938 102.613 65.564 143.707 70.6039C178.564 74.8778 186.12 69.367 201.126 61.5142C211.035 56.3307 226.537 47.1587 239.114 73.3863C255.575 107.713 216.971 161.535 182.493 178.042C149.522 193.829 93.6273 177.446 86.9891 126.737Z" fill="#A30401"/>
<path d="M90.9877 77.0282L101.667 66.3488C102.056 65.96 102.056 65.3296 101.667 64.9407C101.278 64.5519 100.648 64.5519 100.259 64.9407L89.5796 75.6201C89.1907 76.0089 89.1908 76.6394 89.5796 77.0282C89.9684 77.4171 90.5989 77.4171 90.9877 77.0282Z" fill="#E1E4E5"/>
<path d="M87.5919 174.551L93.9369 168.206C94.168 167.975 94.1681 167.601 93.937 167.369C93.706 167.138 93.3313 167.138 93.1002 167.37L86.7552 173.715C86.5241 173.946 86.524 174.32 86.7551 174.551C86.9861 174.783 87.3608 174.782 87.5919 174.551Z" fill="#E1E4E5"/>
<path d="M245.042 145.025L238.697 151.37C238.466 151.601 238.466 151.976 238.697 152.207C238.928 152.438 239.303 152.438 239.534 152.207L245.879 145.862C246.11 145.631 246.11 145.256 245.879 145.025C245.648 144.794 245.273 144.794 245.042 145.025Z" fill="#E1E4E5"/>
<path d="M92.0327 69.3821L95.1126 66.3021C95.5015 65.9132 95.5015 65.2828 95.1126 64.894C94.7238 64.5051 94.0934 64.5051 93.7045 64.894L90.6245 67.9739C90.2357 68.3628 90.2357 68.9932 90.6245 69.3821C91.0134 69.7709 91.6438 69.7709 92.0327 69.3821Z" fill="#E1E4E5"/>
<path d="M88.2129 170.008L90.0427 168.178C90.2738 167.947 90.2739 167.573 90.0428 167.342C89.8117 167.111 89.4371 167.111 89.206 167.342L87.3762 169.172C87.145 169.403 87.145 169.777 87.376 170.008C87.6071 170.239 87.9818 170.239 88.2129 170.008Z" fill="#E1E4E5"/>
<path d="M244.421 149.568L242.591 151.398C242.36 151.629 242.36 152.004 242.591 152.235C242.822 152.466 243.197 152.466 243.428 152.235L245.258 150.405C245.489 150.174 245.489 149.799 245.258 149.568C245.027 149.337 244.652 149.337 244.421 149.568Z" fill="#E1E4E5"/>
<path d="M181.687 186.304C179.984 186.711 177.697 187.59 176.4 189.338C175.103 191.086 176.672 191.602 178.743 191.266C180.815 190.931 182.87 189.762 183.704 188.117C184.537 186.472 183.084 185.969 181.687 186.304ZM190.074 183.048C189.252 183.245 188.147 183.669 187.52 184.514C186.894 185.358 187.652 185.607 188.652 185.445C189.653 185.283 190.646 184.719 191.048 183.924C191.451 183.129 190.749 182.887 190.074 183.048ZM220.693 171.721C222.83 170.256 223.04 166.843 223.04 166.843C223.04 166.843 219.783 165.809 217.646 167.277C215.508 168.742 215.298 172.153 215.298 172.153C215.298 172.153 218.555 173.187 220.693 171.721Z" fill="#E1E4E5"/>
<path d="M214.911 46.6488C216.485 46.6488 217.761 45.2816 217.761 43.5951C217.761 41.9086 216.485 40.5414 214.911 40.5414C213.337 40.5414 212.061 41.9086 212.061 43.5951C212.061 45.2816 213.337 46.6488 214.911 46.6488Z" fill="#E1E4E5"/>
<path d="M254.814 125.643C255.714 125.643 256.443 124.549 256.443 123.199C256.443 121.85 255.714 120.756 254.814 120.756C253.915 120.756 253.186 121.85 253.186 123.199C253.186 124.549 253.915 125.643 254.814 125.643Z" fill="#E1E4E5"/>
<path d="M134.288 124.652L152.201 142.744L191.294 103.248" stroke="white" stroke-width="17.1018" stroke-linecap="round" stroke-linejoin="round"/>
<path d="M180.781 62.1138C169.136 65.1969 156.483 55.585 156.483 55.585C156.483 55.585 162.718 40.979 174.366 37.9045C186.011 34.8214 198.661 44.4251 198.661 44.4251C198.661 44.4251 192.425 59.0307 180.781 62.1138Z" fill="url(#paint0_linear_7_1502)"/>
<path d="M261.726 91.6247C258.225 95.1883 251.677 94.4372 251.677 94.4372C251.677 94.4372 250.811 87.9077 254.315 84.3459C257.817 80.7822 264.361 81.5315 264.361 81.5315C264.361 81.5315 265.228 88.061 261.726 91.6247Z" fill="url(#paint1_linear_7_1502)"/>
<path d="M73.8221 118.313C77.0829 118.313 79.7263 121.139 79.7263 124.624C79.7263 128.11 77.0829 130.936 73.8221 130.936C70.5613 130.936 67.9179 128.11 67.9179 124.624C67.9179 121.139 70.5613 118.313 73.8221 118.313Z" fill="#E1E4E5"/>
<path d="M72.6005 89.8101C73.8374 89.8101 74.8401 88.8986 74.8401 87.7741C74.8401 86.6496 73.8374 85.738 72.6005 85.738C71.3635 85.738 70.3608 86.6496 70.3608 87.7741C70.3608 88.8986 71.3635 89.8101 72.6005 89.8101Z" fill="#E1E4E5"/>
<path d="M130.42 61.3073C132.782 61.3073 134.696 59.3931 134.696 57.0319C134.696 54.6707 132.782 52.7566 130.42 52.7566C128.059 52.7566 126.145 54.6707 126.145 57.0319C126.145 59.3931 128.059 61.3073 130.42 61.3073Z" fill="#E1E4E5"/>
<path d="M250.583 51.1278H250.497C249.989 58.3895 244.635 58.5012 244.635 58.5012C244.635 58.5012 250.539 58.6173 250.539 67.0079C250.539 58.6173 256.443 58.5012 256.443 58.5012C256.443 58.5012 251.091 58.3895 250.583 51.1278Z" fill="#E1E4E5"/>
<defs>
<linearGradient id="paint0_linear_7_1502" x1="136.837" y1="70.1728" x2="238.141" y2="19.0235" gradientUnits="userSpaceOnUse">
<stop stop-color="white"/>
<stop offset="1" stop-color="#EEEEEE"/>
</linearGradient>
<linearGradient id="paint1_linear_7_1502" x1="247.756" y1="103.798" x2="273.07" y2="64.1163" gradientUnits="userSpaceOnUse">
<stop stop-color="white"/>
<stop offset="1" stop-color="#EEEEEE"/>
</linearGradient>
</defs>
</svg>
