<svg width="16" height="16" viewBox="0 0 16 16" fill="none" xmlns="http://www.w3.org/2000/svg">
<g clip-path="url(#clip0_101_3882)">
<path d="M15.4171 16.0019H0.097168V0.485746C0.097168 0.356918 0.148344 0.233359 0.239439 0.142264C0.330535 0.0511689 0.454086 0 0.582914 0C0.711742 0 0.835294 0.0511689 0.926389 0.142264C1.01748 0.233359 1.06866 0.356918 1.06866 0.485746V15.0304H15.4171C15.546 15.0304 15.6695 15.0816 15.7606 15.1727C15.8517 15.2638 15.9029 15.3874 15.9029 15.5162C15.9029 15.645 15.8517 15.7686 15.7606 15.8597C15.6695 15.9508 15.546 16.0019 15.4171 16.0019Z" fill="#A30401"/>
<path d="M2.53617 12.1136C2.43857 12.1135 2.34323 12.0841 2.26259 12.0291C2.18196 11.9741 2.11975 11.8961 2.0841 11.8052C2.04845 11.7144 2.041 11.6149 2.06272 11.5197C2.08444 11.4246 2.13432 11.3382 2.20586 11.2718L4.64625 9.00381C5.07248 8.60962 5.63224 8.39162 6.2128 8.39369C6.79335 8.39576 7.35155 8.61777 7.77494 9.01498L8.33453 9.54299C8.51528 9.71379 8.73013 9.8444 8.96496 9.92623C9.19979 10.0081 9.44929 10.0393 9.69704 10.0178C9.9448 9.99633 10.1852 9.92267 10.4025 9.80165C10.6197 9.68064 10.8089 9.515 10.9576 9.31566L14.5521 4.50094C14.6294 4.39788 14.7444 4.32974 14.872 4.31152C14.9995 4.29331 15.1291 4.32649 15.2321 4.40379C15.3352 4.48109 15.4033 4.59617 15.4215 4.7237C15.4398 4.85123 15.4066 4.98078 15.3293 5.08385L11.7348 9.89856C11.5041 10.2075 11.2107 10.4642 10.8739 10.6517C10.537 10.8392 10.1643 10.9534 9.78023 10.9867C9.39614 11.02 9.00934 10.9717 8.64524 10.845C8.28114 10.7182 7.94797 10.5159 7.6676 10.2512L7.10801 9.72321C6.86454 9.49443 6.54336 9.3665 6.20927 9.36524C5.87518 9.36398 5.55304 9.48947 5.30784 9.7164L2.86697 11.9848C2.77689 12.0679 2.65873 12.1139 2.53617 12.1136Z" fill="#A30401"/>
</g>
<defs>
<clipPath id="clip0_101_3882">
<rect width="16" height="16" fill="white"/>
</clipPath>
</defs>
</svg>
