<svg width="10" height="10" viewBox="0 0 10 10" fill="none" xmlns="http://www.w3.org/2000/svg">
<g clip-path="url(#clip0_172_2819)">
<path d="M9.63508 3.74076C9.05863 2.80193 7.74739 1.22681 5.44603 1.22681C3.14467 1.22681 1.83343 2.80193 1.25697 3.74076C1.07877 4.02899 0.984375 4.36116 0.984375 4.70003C0.984375 5.0389 1.07877 5.37107 1.25697 5.6593C1.83343 6.59813 3.14467 8.17326 5.44603 8.17326C7.74739 8.17326 9.05863 6.59813 9.63508 5.6593C9.81329 5.37107 9.90768 5.0389 9.90768 4.70003C9.90768 4.36116 9.81329 4.02899 9.63508 3.74076ZM9.00139 5.27017C8.50633 6.0752 7.38576 7.42992 5.44603 7.42992C3.5063 7.42992 2.38572 6.0752 1.89066 5.27017C1.78479 5.09885 1.72871 4.90143 1.72871 4.70003C1.72871 4.49864 1.78479 4.30122 1.89066 4.12989C2.38572 3.32487 3.5063 1.97014 5.44603 1.97014C7.38576 1.97014 8.50633 3.32338 9.00139 4.12989C9.10727 4.30122 9.16335 4.49864 9.16335 4.70003C9.16335 4.90143 9.10727 5.09885 9.00139 5.27017Z" fill="#A30401"/>
<path d="M5.44574 2.84155C5.07819 2.84155 4.7189 2.95054 4.4133 3.15474C4.1077 3.35893 3.86951 3.64917 3.72886 3.98873C3.58821 4.3283 3.55141 4.70195 3.62311 5.06243C3.69481 5.42291 3.8718 5.75403 4.1317 6.01393C4.39159 6.27382 4.72271 6.45081 5.08319 6.52251C5.44368 6.59422 5.81732 6.55742 6.15689 6.41676C6.49646 6.27611 6.78669 6.03792 6.99088 5.73232C7.19508 5.42672 7.30407 5.06743 7.30407 4.69989C7.30348 4.20721 7.1075 3.73488 6.75912 3.3865C6.41075 3.03812 5.93842 2.84214 5.44574 2.84155ZM5.44574 5.81489C5.22521 5.81489 5.00964 5.74949 4.82628 5.62698C4.64291 5.50446 4.5 5.33032 4.41561 5.12658C4.33122 4.92284 4.30914 4.69865 4.35216 4.48236C4.39518 4.26607 4.50138 4.0674 4.65731 3.91146C4.81325 3.75553 5.01192 3.64933 5.22821 3.60631C5.4445 3.56329 5.66869 3.58537 5.87243 3.66976C6.07617 3.75415 6.25031 3.89706 6.37282 4.08043C6.49534 4.26379 6.56074 4.47936 6.56074 4.69989C6.56074 4.9956 6.44326 5.27921 6.23416 5.48831C6.02506 5.69741 5.74145 5.81489 5.44574 5.81489Z" fill="#A30401"/>
</g>
<defs>
<clipPath id="clip0_172_2819">
<rect width="8.92" height="8.92" fill="white" transform="translate(0.98584 0.23999)"/>
</clipPath>
</defs>
</svg>
